TerminusHybrid.sfdir
StartChar: exclam
Encoding: 33 33 2
Width: 1024
VWidth: 0
Flags: W
HStem: 0 256<448 576> 1260 20G<456 568>
VStem: 448 128<0 256 448 1280>
LayerCount: 3
Back
Fore
SplineSet
464 256 m 2,0,-1
 560 256 l 2,1,2
 576 256 576 256 576 240 c 2,3,-1
 576 16 l 2,4,5
 576 0 576 0 560 0 c 2,6,-1
 464 0 l 2,7,8
 448 0 448 0 448 16 c 2,9,-1
 448 240 l 2,10,11
 448 256 448 256 464 256 c 2,0,-1
464 1280 m 2,12,-1
 560 1280 l 2,13,14
 576 1280 576 1280 576 1264 c 2,15,-1
 576 464 l 2,16,17
 576 448 576 448 560 448 c 2,18,-1
 464 448 l 2,19,20
 448 448 448 448 448 464 c 2,21,-1
 448 1264 l 2,22,23
 448 1280 448 1280 464 1280 c 2,12,-1
EndSplineSet
Validated: 19457
Layer: 2
SplineSet
464 256 m 2,0,-1
 560 256 l 2,1,2
 576 256 576 256 576 240 c 2,3,-1
 576 16 l 2,4,5
 576 0 576 0 560 0 c 2,6,-1
 464 0 l 2,7,8
 448 0 448 0 448 16 c 2,9,-1
 448 240 l 2,10,11
 448 256 448 256 464 256 c 2,0,-1
464 1280 m 2,12,-1
 560 1280 l 2,13,14
 576 1280 576 1280 576 1264 c 2,15,-1
 576 464 l 2,16,17
 576 448 576 448 560 448 c 2,18,-1
 464 448 l 2,19,20
 448 448 448 448 448 464 c 2,21,-1
 448 1264 l 2,22,23
 448 1280 448 1280 464 1280 c 2,12,-1
EndSplineSet
Colour: 6600
EndChar
StartChar: dollar
Encoding: 36 36 5
Width: 1024
VWidth: 0
Flags: W
HStem: 64 128<289.003 448 576 734.997> 576 128<289.003 448 576 734.997> 1088 128<289.003 448 576 734.997>
VStem: 128 128<225.003 320 737.003 1055> 448 128<-128 64 192 576 704 1088 1216 1408> 768 128<225.003 542.997 960 1055>
CounterMasks: 2 e0 1c
LayerCount: 3
Back
Fore
SplineSet
592 192 m 258,0,-1
 659 192 l 258,1,2
 704 192 704 192 736 224 c 256,3,4
 768 256 768 256 768 301 c 258,5,-1
 768 467 l 258,6,7
 768 512 768 512 736 544 c 256,8,9
 704 576 704 576 659 576 c 258,10,-1
 592 576 l 258,11,12
 576 576 576 576 576 560 c 258,13,-1
 576 208 l 258,14,15
 576 192 576 192 592 192 c 258,0,-1
256 979 m 258,16,-1
 256 813 l 258,17,18
 256 768 256 768 288 736 c 256,19,20
 320 704 320 704 365 704 c 258,21,-1
 432 704 l 258,22,23
 448 704 448 704 448 720 c 258,24,-1
 448 1072 l 258,25,26
 448 1088 448 1088 432 1088 c 258,27,-1
 365 1088 l 258,28,29
 320 1088 320 1088 288 1056 c 256,30,31
 256 1024 256 1024 256 979 c 258,16,-1
448 1232 m 258,32,-1
 448 1392 l 258,33,34
 448 1408 448 1408 464 1408 c 258,35,-1
 560 1408 l 258,36,37
 576 1408 576 1408 576 1392 c 258,38,-1
 576 1232 l 258,39,40
 576 1216 576 1216 592 1216 c 258,41,-1
 678 1216 l 258,42,43
 768 1216 768 1216 832 1152 c 256,44,45
 896 1088 896 1088 896 998 c 258,46,-1
 896 976 l 258,47,48
 896 960 896 960 880 960 c 258,49,-1
 784 960 l 258,50,51
 768 960 768 960 768 976 c 258,52,-1
 768 979 l 258,53,54
 768 1024 768 1024 736 1056 c 256,55,56
 704 1088 704 1088 659 1088 c 258,57,-1
 592 1088 l 258,58,59
 576 1088 576 1088 576 1072 c 258,60,-1
 576 720 l 258,61,62
 576 704 576 704 592 704 c 258,63,-1
 678 704 l 258,64,65
 768 704 768 704 832 640 c 256,66,67
 896 576 896 576 896 486 c 258,68,-1
 896 282 l 258,69,70
 896 192 896 192 832 128 c 256,71,72
 768 64 768 64 678 64 c 258,73,-1
 592 64 l 258,74,75
 576 64 576 64 576 48 c 258,76,-1
 576 -112 l 258,77,78
 576 -128 576 -128 560 -128 c 258,79,-1
 464 -128 l 258,80,81
 448 -128 448 -128 448 -112 c 258,82,-1
 448 48 l 258,83,84
 448 64 448 64 432 64 c 258,85,-1
 346 64 l 258,86,87
 256 64 256 64 192 128 c 256,88,89
 128 192 128 192 128 282 c 258,90,-1
 128 304 l 258,91,92
 128 320 128 320 144 320 c 258,93,-1
 240 320 l 258,94,95
 256 320 256 320 256 304 c 258,96,-1
 256 301 l 258,97,98
 256 256 256 256 288 224 c 256,99,100
 320 192 320 192 365 192 c 258,101,-1
 432 192 l 258,102,103
 448 192 448 192 448 208 c 258,104,-1
 448 560 l 258,105,106
 448 576 448 576 432 576 c 258,107,-1
 346 576 l 258,108,109
 256 576 256 576 192 640 c 256,110,111
 128 704 128 704 128 794 c 258,112,-1
 128 998 l 258,113,114
 128 1088 128 1088 192 1152 c 256,115,116
 256 1216 256 1216 346 1216 c 258,117,-1
 432 1216 l 258,118,119
 448 1216 448 1216 448 1232 c 258,32,-1
EndSplineSet
Validated: 19457
Layer: 2
SplineSet
592 192 m 258,0,-1
 659 192 l 258,1,2
 704 192 704 192 736 224 c 256,3,4
 768 256 768 256 768 301 c 258,5,-1
 768 467 l 258,6,7
 768 512 768 512 736 544 c 256,8,9
 704 576 704 576 659 576 c 258,10,-1
 592 576 l 258,11,12
 576 576 576 576 576 560 c 258,13,-1
 576 208 l 258,14,15
 576 192 576 192 592 192 c 258,0,-1
256 979 m 258,16,-1
 256 813 l 258,17,18
 256 768 256 768 288 736 c 256,19,20
 320 704 320 704 365 704 c 258,21,-1
 432 704 l 258,22,23
 448 704 448 704 448 720 c 258,24,-1
 448 1072 l 258,25,26
 448 1088 448 1088 432 1088 c 258,27,-1
 365 1088 l 258,28,29
 320 1088 320 1088 288 1056 c 256,30,31
 256 1024 256 1024 256 979 c 258,16,-1
448 1232 m 258,32,-1
 448 1392 l 258,33,34
 448 1408 448 1408 464 1408 c 258,35,-1
 560 1408 l 258,36,37
 576 1408 576 1408 576 1392 c 258,38,-1
 576 1232 l 258,39,40
 576 1216 576 1216 592 1216 c 258,41,-1
 678 1216 l 258,42,43
 768 1216 768 1216 832 1152 c 256,44,45
 896 1088 896 1088 896 998 c 258,46,-1
 896 976 l 258,47,48
 896 960 896 960 880 960 c 258,49,-1
 784 960 l 258,50,51
 768 960 768 960 768 976 c 258,52,-1
 768 979 l 258,53,54
 768 1024 768 1024 736 1056 c 256,55,56
 704 1088 704 1088 659 1088 c 258,57,-1
 592 1088 l 258,58,59
 576 1088 576 1088 576 1072 c 258,60,-1
 576 720 l 258,61,62
 576 704 576 704 592 704 c 258,63,-1
 678 704 l 258,64,65
 768 704 768 704 832 640 c 256,66,67
 896 576 896 576 896 486 c 258,68,-1
 896 282 l 258,69,70
 896 192 896 192 832 128 c 256,71,72
 768 64 768 64 678 64 c 258,73,-1
 592 64 l 258,74,75
 576 64 576 64 576 48 c 258,76,-1
 576 -112 l 258,77,78
 576 -128 576 -128 560 -128 c 258,79,-1
 464 -128 l 258,80,81
 448 -128 448 -128 448 -112 c 258,82,-1
 448 48 l 258,83,84
 448 64 448 64 432 64 c 258,85,-1
 346 64 l 258,86,87
 256 64 256 64 192 128 c 256,88,89
 128 192 128 192 128 282 c 258,90,-1
 128 304 l 258,91,92
 128 320 128 320 144 320 c 258,93,-1
 240 320 l 258,94,95
 256 320 256 320 256 304 c 258,96,-1
 256 301 l 258,97,98
 256 256 256 256 288 224 c 256,99,100
 320 192 320 192 365 192 c 258,101,-1
 432 192 l 258,102,103
 448 192 448 192 448 208 c 258,104,-1
 448 560 l 258,105,106
 448 576 448 576 432 576 c 258,107,-1
 346 576 l 258,108,109
 256 576 256 576 192 640 c 256,110,111
 128 704 128 704 128 794 c 258,112,-1
 128 998 l 258,113,114
 128 1088 128 1088 192 1152 c 256,115,116
 256 1216 256 1216 346 1216 c 258,117,-1
 432 1216 l 258,118,119
 448 1216 448 1216 448 1232 c 258,32,-1
EndSplineSet
Colour: 6600
EndChar
StartChar: ampersand
Encoding: 38 38 7
Width: 1024
VWidth: 0
Flags: W
HStem: 0 128<214 554> 576 192<340 490> 1152 128<278 550>
VStem: 64 128<150 446> 128 128<852 1130> 576 128<866 1118> 640 128<214 426> 768 128<0 94 546 640>
DStem2: 352 800 192 768 0.701517 -0.712652<-181.087 1.4086> 480 800 640 768 0.707107 0.707107<-44.7632 173.948> 560 656 512 512 0.707107 -0.707107<-21.6441 203.282>
CounterMasks: 1 e0
LayerCount: 3
Back
Fore
SplineSet
384 576 m 256,0,1
 320 576 320 576 256 512 c 256,2,3
 192 448 192 448 192 384 c 258,4,-1
 192 224 l 258,5,6
 192 192 192 192 224 160 c 256,7,8
 256 128 256 128 288 128 c 258,9,-1
 448 128 l 258,10,11
 512 128 512 128 576 192 c 256,12,13
 640 256 640 256 640 320 c 256,14,15
 640 384 640 384 576 448 c 258,16,-1
 512 512 l 258,17,18
 448 576 448 576 384 576 c 256,0,1
256 1056 m 258,19,-1
 256 928 l 258,20,21
 256 897 256 897 289 864 c 258,22,-1
 352 800 l 258,23,24
 384 768 384 768 416 768 c 256,25,26
 448 768 448 768 480 800 c 258,27,-1
 543 864 l 258,28,29
 576 897 576 897 576 928 c 258,30,-1
 576 1056 l 258,31,32
 576 1088 576 1088 544 1120 c 256,33,34
 512 1152 512 1152 480 1152 c 258,35,-1
 352 1152 l 258,36,37
 320 1152 320 1152 288 1120 c 256,38,39
 256 1088 256 1088 256 1056 c 258,19,-1
320 1280 m 258,40,-1
 512 1280 l 258,41,42
 576 1280 576 1280 640 1216 c 256,43,44
 704 1152 704 1152 704 1088 c 258,45,-1
 704 896 l 258,46,47
 704 832 704 832 640 768 c 258,48,-1
 560 688 l 258,49,50
 544 672 544 672 560 656 c 258,51,-1
 688 528 l 258,52,53
 704 512 704 512 720 528 c 258,54,-1
 736 544 l 258,55,56
 768 576 768 576 768 608 c 258,57,-1
 768 624 l 258,58,59
 768 640 768 640 784 640 c 282,60,-1
 880 640 l 258,61,62
 896 640 896 640 896 624 c 258,63,-1
 896 576 l 258,64,65
 896 512 896 512 832 448 c 256,66,67
 768 384 768 384 768 320 c 256,68,69
 768 256 768 256 832 192 c 256,70,71
 896 128 896 128 896 64 c 258,72,-1
 896 16 l 258,73,74
 896 0 896 0 880 0 c 258,75,-1
 784 0 l 258,76,77
 768 0 768 0 768 16 c 258,78,-1
 768 32 l 258,79,80
 768 64 768 64 736 96 c 258,81,82
 720 112 l 258,83,84
 704 128 704 128 688 112 c 258,85,-1
 640 64 l 266,86,87
 576 0 576 0 512 0 c 258,88,-1
 256 0 l 258,89,90
 192 0 192 0 128 64 c 256,91,92
 64 128 64 128 64 192 c 258,93,-1
 64 448 l 258,94,95
 64 512 64 512 128 576 c 258,96,-1
 240 688 l 258,97,98
 256 704 256 704 240 720 c 258,99,-1
 192 768 l 258,100,101
 128 832 128 832 128 896 c 258,102,-1
 128 1088 l 258,103,104
 128 1152 128 1152 192 1216 c 256,105,106
 256 1280 256 1280 320 1280 c 258,40,-1
EndSplineSet
Validated: 19457
Layer: 2
SplineSet
384 576 m 256,0,1
 320 576 320 576 256 512 c 256,2,3
 192 448 192 448 192 384 c 258,4,-1
 192 224 l 258,5,6
 192 192 192 192 224 160 c 256,7,8
 256 128 256 128 288 128 c 258,9,-1
 448 128 l 258,10,11
 512 128 512 128 576 192 c 256,12,13
 640 256 640 256 640 320 c 256,14,15
 640 384 640 384 576 448 c 258,16,-1
 512 512 l 258,17,18
 448 576 448 576 384 576 c 256,0,1
256 1056 m 258,19,-1
 256 928 l 258,20,21
 256 897 256 897 289 864 c 258,22,-1
 352 800 l 258,23,24
 384 768 384 768 416 768 c 256,25,26
 448 768 448 768 480 800 c 258,27,-1
 543 864 l 258,28,29
 576 897 576 897 576 928 c 258,30,-1
 576 1056 l 258,31,32
 576 1088 576 1088 544 1120 c 256,33,34
 512 1152 512 1152 480 1152 c 258,35,-1
 352 1152 l 258,36,37
 320 1152 320 1152 288 1120 c 256,38,39
 256 1088 256 1088 256 1056 c 258,19,-1
320 1280 m 258,40,-1
 512 1280 l 258,41,42
 576 1280 576 1280 640 1216 c 256,43,44
 704 1152 704 1152 704 1088 c 258,45,-1
 704 896 l 258,46,47
 704 832 704 832 640 768 c 258,48,-1
 560 688 l 258,49,50
 544 672 544 672 560 656 c 258,51,-1
 688 528 l 258,52,53
 704 512 704 512 720 528 c 258,54,-1
 736 544 l 258,55,56
 768 576 768 576 768 608 c 258,57,-1
 768 624 l 258,58,59
 768 640 768 640 784 640 c 282,60,-1
 880 640 l 258,61,62
 896 640 896 640 896 624 c 258,63,-1
 896 576 l 258,64,65
 896 512 896 512 832 448 c 256,66,67
 768 384 768 384 768 320 c 256,68,69
 768 256 768 256 832 192 c 256,70,71
 896 128 896 128 896 64 c 258,72,-1
 896 16 l 258,73,74
 896 0 896 0 880 0 c 258,75,-1
 784 0 l 258,76,77
 768 0 768 0 768 16 c 258,78,-1
 768 32 l 258,79,80
 768 64 768 64 736 96 c 258,81,82
 720 112 l 258,83,84
 704 128 704 128 688 112 c 258,85,-1
 640 64 l 266,86,87
 576 0 576 0 512 0 c 258,88,-1
 256 0 l 258,89,90
 192 0 192 0 128 64 c 256,91,92
 64 128 64 128 64 192 c 258,93,-1
 64 448 l 258,94,95
 64 512 64 512 128 576 c 258,96,-1
 240 688 l 258,97,98
 256 704 256 704 240 720 c 258,99,-1
 192 768 l 258,100,101
 128 832 128 832 128 896 c 258,102,-1
 128 1088 l 258,103,104
 128 1152 128 1152 192 1216 c 256,105,106
 256 1280 256 1280 320 1280 c 258,40,-1
EndSplineSet
Colour: 6600
EndChar
StartChar: quotesingle
Encoding: 39 39 8
Width: 1024
VWidth: 0
Flags: W
HStem: 1024 384<448 576>
VStem: 448 128<1024 1408>
LayerCount: 3
Back
Fore
SplineSet
464 1408 m 258,0,-1
 560 1408 l 258,1,2
 576 1408 576 1408 576 1392 c 258,3,-1
 576 1040 l 258,4,5
 576 1024 576 1024 560 1024 c 258,6,-1
 464 1024 l 258,7,8
 448 1024 448 1024 448 1040 c 258,9,-1
 448 1392 l 258,10,11
 448 1408 448 1408 464 1408 c 258,0,-1
EndSplineSet
Validated: 19457
Layer: 2
SplineSet
464 1408 m 258,0,-1
 560 1408 l 258,1,2
 576 1408 576 1408 576 1392 c 258,3,-1
 576 1040 l 258,4,5
 576 1024 576 1024 560 1024 c 258,6,-1
 464 1024 l 258,7,8
 448 1024 448 1024 448 1040 c 258,9,-1
 448 1392 l 258,10,11
 448 1408 448 1408 464 1408 c 258,0,-1
EndSplineSet
Colour: 6600
EndChar
StartChar: parenleft
Encoding: 40 40 9
Width: 1024
VWidth: 0
Flags: W
HStem: 0 128<518.875 704> 1152 128<518.875 704>
VStem: 320 128<198.875 1080.81>
LayerCount: 3
Back
Fore
SplineSet
688 128 m 258,0,1
 704 128 704 128 704 112 c 258,2,-1
 704 16 l 258,3,4
 704 0 704 0 688 0 c 258,5,6
 672 0 l 258,7,8
 320 0 320 0 320 352 c 258,9,-1
 320 927 l 258,10,11
 320 1280 320 1280 673 1280 c 258,12,13
 688 1280 l 258,14,15
 704 1280 704 1280 704 1264 c 258,16,-1
 704 1168 l 258,17,18
 704 1152 704 1152 688 1152 c 258,19,-1
 672 1152 l 258,20,21
 448 1152 448 1152 448 927 c 258,22,-1
 448 352 l 258,23,24
 448 128 448 128 672 128 c 258,25,26
 688 128 l 258,0,1
EndSplineSet
Validated: 19457
Layer: 2
SplineSet
688 128 m 258,0,1
 704 128 704 128 704 112 c 258,2,-1
 704 16 l 258,3,4
 704 0 704 0 688 0 c 258,5,6
 672 0 l 258,7,8
 320 0 320 0 320 352 c 258,9,-1
 320 927 l 258,10,11
 320 1280 320 1280 673 1280 c 258,12,13
 688 1280 l 258,14,15
 704 1280 704 1280 704 1264 c 258,16,-1
 704 1168 l 258,17,18
 704 1152 704 1152 688 1152 c 258,19,-1
 672 1152 l 258,20,21
 448 1152 448 1152 448 927 c 258,22,-1
 448 352 l 258,23,24
 448 128 448 128 672 128 c 258,25,26
 688 128 l 258,0,1
EndSplineSet
Colour: 6600
EndChar
StartChar: asterisk
Encoding: 42 42 11
Width: 1024
VWidth: 0
Flags: W
HStem: 448 128<96 367.996 656.004 928>
VStem: 368 288<372.5 448 576 651.5>
DStem2: 272 896 176 800 0.707107 -0.707107<-22.6274 282.486> 176 224 272 128 0.707107 0.707107<-22.6274 282.486> 528 672 672 624 0.707107 0.707107<34.2974 339.411> 848 224 752 128 0.707107 -0.707107<-282.486 22.6274>
LayerCount: 3
Back
Fore
SplineSet
96 464 m 258,0,-1
 96 560 l 258,1,2
 96 576 96 576 112 576 c 258,3,-1
 352 576 l 258,4,5
 368 576 368 576 368 592 c 256,6,7
 368 608 368 608 352 624 c 266,8,-1
 176 800 l 258,9,10
 160 816 160 816 176 832 c 258,11,-1
 240 896 l 258,12,13
 256 912 256 912 272 896 c 258,14,-1
 496 672 l 274,15,16
 512 656 512 656 528 672 c 282,17,-1
 752 896 l 258,18,19
 768 912 768 912 784 896 c 258,20,-1
 848 832 l 258,21,22
 864 816 864 816 848 800 c 258,23,-1
 672 624 l 258,24,25
 656 608 656 608 656 592 c 256,26,27
 656 576 656 576 672 576 c 258,28,-1
 912 576 l 258,29,30
 928 576 928 576 928 560 c 258,31,-1
 928 464 l 258,32,33
 928 448 928 448 912 448 c 258,34,-1
 672 448 l 258,35,36
 656 448 656 448 656 432 c 256,37,38
 656 416 656 416 672 400 c 258,39,-1
 848 224 l 258,40,41
 864 208 864 208 848 192 c 258,42,-1
 784 128 l 258,43,44
 768 112 768 112 752 128 c 258,45,-1
 528 352 l 258,46,47
 512 368 512 368 496 352 c 258,48,-1
 272 128 l 258,49,50
 256 112 256 112 240 128 c 258,51,-1
 176 192 l 258,52,53
 160 208 160 208 176 224 c 258,54,-1
 352 400 l 258,55,56
 368 416 368 416 368 432 c 256,57,58
 368 448 368 448 352 448 c 258,59,-1
 112 448 l 258,60,61
 96 448 96 448 96 464 c 258,0,-1
EndSplineSet
Validated: 19457
Layer: 2
SplineSet
64 592 m 258,0,-1
 64 688 l 258,1,2
 64 704 64 704 80 704 c 258,3,-1
 320 704 l 258,4,5
 336 704 336 704 336 720 c 256,6,7
 336 736 336 736 320 752 c 266,8,-1
 144 928 l 258,9,10
 128 944 128 944 144 960 c 258,11,-1
 208 1024 l 258,12,13
 224 1040 224 1040 240 1024 c 258,14,-1
 464 800 l 274,15,16
 480 784 480 784 496 800 c 282,17,-1
 720 1024 l 258,18,19
 736 1040 736 1040 752 1024 c 258,20,-1
 816 960 l 258,21,22
 832 944 832 944 816 928 c 258,23,-1
 640 752 l 258,24,25
 624 736 624 736 624 720 c 256,26,27
 624 704 624 704 640 704 c 258,28,-1
 880 704 l 258,29,30
 896 704 896 704 896 688 c 258,31,-1
 896 592 l 258,32,33
 896 576 896 576 880 576 c 258,34,-1
 640 576 l 258,35,36
 624 576 624 576 624 560 c 256,37,38
 624 544 624 544 640 528 c 258,39,-1
 816 352 l 258,40,41
 832 336 832 336 816 320 c 258,42,-1
 752 256 l 258,43,44
 736 240 736 240 720 256 c 258,45,-1
 496 480 l 258,46,47
 480 496 480 496 464 480 c 258,48,-1
 240 256 l 258,49,50
 224 240 224 240 208 256 c 258,51,-1
 144 320 l 258,52,53
 128 336 128 336 144 352 c 258,54,-1
 320 528 l 258,55,56
 336 544 336 544 336 560 c 256,57,58
 336 576 336 576 320 576 c 258,59,-1
 80 576 l 258,60,61
 64 576 64 576 64 592 c 258,0,-1
EndSplineSet
Colour: 6600
EndChar
StartChar: plus
Encoding: 43 43 12
Width: 1024
VWidth: 0
Flags: W
HStem: 448 128<128 448 576 896> 876 20G<456 568>
VStem: 448 128<128 448 576 896>
LayerCount: 3
Back
Fore
SplineSet
464 896 m 262,0,-1
 560 896 l 262,1,2
 576 896 576 896 576 880 c 262,3,-1
 576 592 l 262,4,5
 576 576 576 576 592 576 c 262,6,-1
 880 576 l 262,7,8
 896 576 896 576 896 560 c 262,9,-1
 896 464 l 262,10,11
 896 448 896 448 880 448 c 262,12,-1
 592 448 l 262,13,14
 576 448 576 448 576 432 c 262,15,-1
 576 144 l 262,16,17
 576 128 576 128 560 128 c 262,18,-1
 464 128 l 262,19,20
 448 128 448 128 448 144 c 262,21,-1
 448 432 l 262,22,23
 448 448 448 448 432 448 c 262,24,-1
 144 448 l 262,25,26
 128 448 128 448 128 464 c 262,27,-1
 128 560 l 262,28,29
 128 576 128 576 144 576 c 262,30,-1
 432 576 l 262,31,32
 448 576 448 576 448 592 c 262,33,-1
 448 880 l 262,34,35
 448 896 448 896 464 896 c 262,0,-1
EndSplineSet
Validated: 19457
Layer: 2
SplineSet
464 1024 m 258,0,-1
 560 1024 l 258,1,2
 576 1024 576 1024 576 1008 c 258,3,-1
 576 720 l 258,4,5
 576 704 576 704 592 704 c 258,6,-1
 880 704 l 258,7,8
 896 704 896 704 896 688 c 258,9,-1
 896 592 l 258,10,11
 896 576 896 576 880 576 c 258,12,-1
 592 576 l 258,13,14
 576 576 576 576 576 560 c 258,15,-1
 576 272 l 258,16,17
 576 256 576 256 560 256 c 258,18,-1
 464 256 l 258,19,20
 448 256 448 256 448 272 c 258,21,-1
 448 560 l 258,22,23
 448 576 448 576 432 576 c 258,24,-1
 144 576 l 258,25,26
 128 576 128 576 128 592 c 258,27,-1
 128 688 l 258,28,29
 128 704 128 704 144 704 c 258,30,-1
 432 704 l 258,31,32
 448 704 448 704 448 720 c 258,33,-1
 448 1008 l 258,34,35
 448 1024 448 1024 464 1024 c 258,0,-1
EndSplineSet
Colour: 6600
EndChar
StartChar: comma
Encoding: 44 44 13
Width: 1024
VWidth: 0
Flags: W
VStem: 448 128<24.5 256>
DStem2: 352 -32 448 -128 0.707107 0.707107<-22.6274 179.282>
LayerCount: 3
Back
Fore
SplineSet
464 256 m 258,0,-1
 560 256 l 258,1,2
 576 256 576 256 576 240 c 258,3,-1
 576 112 l 258,4,5
 576 0 576 0 464 -112 c 258,6,7
 448 -128 l 258,8,9
 432 -144 432 -144 416 -128 c 258,10,-1
 352 -64 l 258,11,12
 336 -48 336 -48 352 -32 c 258,13,14
 368 -16 l 258,15,16
 448 64 448 64 448 144 c 258,17,-1
 448 240 l 258,18,19
 448 256 448 256 464 256 c 258,0,-1
EndSplineSet
Validated: 19457
Layer: 2
SplineSet
464 256 m 258,0,-1
 560 256 l 258,1,2
 576 256 576 256 576 240 c 258,3,-1
 576 112 l 258,4,5
 576 0 576 0 464 -112 c 258,6,7
 448 -128 l 258,8,9
 432 -144 432 -144 416 -128 c 258,10,-1
 352 -64 l 258,11,12
 336 -48 336 -48 352 -32 c 258,13,14
 368 -16 l 258,15,16
 448 64 448 64 448 144 c 258,17,-1
 448 240 l 258,18,19
 448 256 448 256 464 256 c 258,0,-1
EndSplineSet
Colour: 6600
EndChar
StartChar: hyphen
Encoding: 45 45 14
Width: 1024
VWidth: 0
Flags: W
HStem: 448 128<128 896>
LayerCount: 3
Back
Fore
SplineSet
128 464 m 262,0,-1
 128 560 l 262,1,2
 128 576 128 576 144 576 c 262,3,-1
 880 576 l 262,4,5
 896 576 896 576 896 560 c 262,6,-1
 896 464 l 262,7,8
 896 448 896 448 880 448 c 262,9,-1
 144 448 l 262,10,11
 128 448 128 448 128 464 c 262,0,-1
EndSplineSet
Validated: 19457
Layer: 2
SplineSet
128 592 m 258,0,-1
 128 688 l 258,1,2
 128 704 128 704 144 704 c 258,3,-1
 880 704 l 258,4,5
 896 704 896 704 896 688 c 258,6,-1
 896 592 l 258,7,8
 896 576 896 576 880 576 c 258,9,-1
 144 576 l 258,10,11
 128 576 128 576 128 592 c 258,0,-1
EndSplineSet
Colour: 6600
EndChar
StartChar: period
Encoding: 46 46 15
Width: 1024
VWidth: 0
Flags: W
HStem: 0 256<448 576>
VStem: 448 128<0 256>
LayerCount: 3
Back
Fore
SplineSet
464 256 m 258,0,-1
 560 256 l 258,1,2
 576 256 576 256 576 240 c 258,3,-1
 576 16 l 258,4,5
 576 0 576 0 560 0 c 258,6,-1
 464 0 l 258,7,8
 448 0 448 0 448 16 c 258,9,-1
 448 240 l 258,10,11
 448 256 448 256 464 256 c 258,0,-1
EndSplineSet
Validated: 19457
Layer: 2
SplineSet
464 256 m 258,0,-1
 560 256 l 258,1,2
 576 256 576 256 576 240 c 258,3,-1
 576 16 l 258,4,5
 576 0 576 0 560 0 c 258,6,-1
 464 0 l 258,7,8
 448 0 448 0 448 16 c 258,9,-1
 448 240 l 258,10,11
 448 256 448 256 464 256 c 258,0,-1
EndSplineSet
Colour: 6600
EndChar
StartChar: slash
Encoding: 47 47 16
Width: 1024
VWidth: 0
Flags: W
HStem: 0 21G<136 248> 1260 20G<712.5 824.5>
DStem2: 135 16 263 16 0.411215 0.911538<15.0229 1406.93>
LayerCount: 3
Back
Fore
SplineSet
720 1280 m 258,0,-1
 816 1280 l 258,1,2
 833 1280 833 1280 826 1264 c 258,3,-1
 263 16 l 258,4,5
 256 0 256 0 240 0 c 258,6,-1
 144 0 l 258,7,8
 128 0 128 0 135 16 c 258,9,-1
 698 1264 l 258,10,11
 705 1280 705 1280 720 1280 c 258,0,-1
EndSplineSet
Validated: 19457
Layer: 2
SplineSet
720 1280 m 258,0,-1
 816 1280 l 258,1,2
 833 1280 833 1280 826 1264 c 258,3,-1
 263 16 l 258,4,5
 256 0 256 0 240 0 c 258,6,-1
 144 0 l 258,7,8
 128 0 128 0 135 16 c 258,9,-1
 698 1264 l 258,10,11
 705 1280 705 1280 720 1280 c 258,0,-1
EndSplineSet
Colour: 6600
EndChar
StartChar: zero
Encoding: 48 48 17
Width: 1024
VWidth: 0
Flags: W
HStem: 0 128<278 746> 1152 128<278 746>
VStem: 128 128<150 333 512.004 1130> 768 128<162 767.996 947 1118>
DStem2: 304 528 304 336 0.707107 0.707107<-33.5848 486.133>
LayerCount: 3
Back
Fore
SplineSet
672 1152 m 258,0,-1
 352 1152 l 258,1,2
 320 1152 320 1152 288 1120 c 256,3,4
 256 1088 256 1088 256 1056 c 258,5,-1
 256 528 l 258,6,7
 256 512 256 512 272 512 c 256,8,9
 288 512 288 512 304 528 c 258,10,-1
 720 944 l 258,11,12
 768 992 768 992 768 1040 c 258,13,14
 768 1056 l 258,15,16
 768 1088 768 1088 736 1120 c 256,17,18
 704 1152 704 1152 672 1152 c 258,0,-1
352 128 m 258,19,-1
 672 128 l 258,20,21
 704 128 704 128 736 160 c 256,22,23
 768 192 768 192 768 224 c 258,24,-1
 768 752 l 258,25,26
 768 768 768 768 752 768 c 256,27,28
 736 768 736 768 720 752 c 258,29,-1
 304 336 l 258,30,31
 256 288 256 288 256 240 c 258,32,33
 256 224 l 258,34,35
 256 192 256 192 288 160 c 256,36,37
 320 128 320 128 352 128 c 258,19,-1
128 192 m 258,38,-1
 128 1088 l 258,39,40
 128 1152 128 1152 192 1216 c 256,41,42
 256 1280 256 1280 320 1280 c 258,43,-1
 704 1280 l 258,44,45
 768 1280 768 1280 832 1216 c 256,46,47
 896 1152 896 1152 896 1088 c 258,48,-1
 896 192 l 258,49,50
 896 128 896 128 832 64 c 256,51,52
 768 0 768 0 704 0 c 258,53,-1
 320 0 l 258,54,55
 256 0 256 0 192 64 c 256,56,57
 128 128 128 128 128 192 c 258,38,-1
EndSplineSet
Validated: 19457
Layer: 2
SplineSet
672 1152 m 258,0,-1
 352 1152 l 258,1,2
 320 1152 320 1152 288 1120 c 256,3,4
 256 1088 256 1088 256 1056 c 258,5,-1
 256 528 l 258,6,7
 256 512 256 512 272 512 c 256,8,9
 288 512 288 512 304 528 c 258,10,-1
 720 944 l 258,11,12
 768 992 768 992 768 1040 c 258,13,14
 768 1056 l 258,15,16
 768 1088 768 1088 736 1120 c 256,17,18
 704 1152 704 1152 672 1152 c 258,0,-1
352 128 m 258,19,-1
 672 128 l 258,20,21
 704 128 704 128 736 160 c 256,22,23
 768 192 768 192 768 224 c 258,24,-1
 768 752 l 258,25,26
 768 768 768 768 752 768 c 256,27,28
 736 768 736 768 720 752 c 258,29,-1
 304 336 l 258,30,31
 256 288 256 288 256 240 c 258,32,33
 256 224 l 258,34,35
 256 192 256 192 288 160 c 256,36,37
 320 128 320 128 352 128 c 258,19,-1
128 192 m 258,38,-1
 128 1088 l 258,39,40
 128 1152 128 1152 192 1216 c 256,41,42
 256 1280 256 1280 320 1280 c 258,43,-1
 704 1280 l 258,44,45
 768 1280 768 1280 832 1216 c 256,46,47
 896 1152 896 1152 896 1088 c 258,48,-1
 896 192 l 258,49,50
 896 128 896 128 832 64 c 256,51,52
 768 0 768 0 704 0 c 258,53,-1
 320 0 l 258,54,55
 256 0 256 0 192 64 c 256,56,57
 128 128 128 128 128 192 c 258,38,-1
EndSplineSet
Colour: 6600
EndChar
StartChar: one
Encoding: 49 49 18
Width: 1024
VWidth: 0
Flags: W
HStem: 0 128<256 448 576 768> 1260 20G<456 568>
VStem: 448 128<128 1024 1204.5 1280>
LayerCount: 3
Back
Fore
SplineSet
576 1264 m 258,0,-1
 576 144 l 258,1,2
 576 128 576 128 592 128 c 258,3,-1
 752 128 l 258,4,5
 768 128 768 128 768 112 c 258,6,-1
 768 16 l 258,7,8
 768 0 768 0 752 0 c 258,9,-1
 272 0 l 258,10,11
 256 0 256 0 256 16 c 258,12,-1
 256 112 l 258,13,14
 256 128 256 128 272 128 c 258,15,-1
 432 128 l 258,16,17
 448 128 448 128 448 144 c 258,18,-1
 448 1008 l 258,19,20
 448 1024 448 1024 432 1024 c 256,21,22
 416 1024 416 1024 400 1008 c 258,23,-1
 352 960 l 258,24,25
 336 944 336 944 320 960 c 258,26,-1
 256 1024 l 258,27,28
 240 1040 240 1040 256 1056 c 258,29,-1
 432 1232 l 258,30,31
 448 1248 448 1248 448 1264 c 256,32,33
 448 1280 448 1280 464 1280 c 258,34,-1
 560 1280 l 258,35,36
 576 1280 576 1280 576 1264 c 258,0,-1
EndSplineSet
Validated: 19457
Layer: 2
SplineSet
576 1264 m 258,0,-1
 576 144 l 258,1,2
 576 128 576 128 592 128 c 258,3,-1
 752 128 l 258,4,5
 768 128 768 128 768 112 c 258,6,-1
 768 16 l 258,7,8
 768 0 768 0 752 0 c 258,9,-1
 272 0 l 258,10,11
 256 0 256 0 256 16 c 258,12,-1
 256 112 l 258,13,14
 256 128 256 128 272 128 c 258,15,-1
 432 128 l 258,16,17
 448 128 448 128 448 144 c 258,18,-1
 448 1008 l 258,19,20
 448 1024 448 1024 432 1024 c 256,21,22
 416 1024 416 1024 400 1008 c 258,23,-1
 352 960 l 258,24,25
 336 944 336 944 320 960 c 258,26,-1
 256 1024 l 258,27,28
 240 1040 240 1040 256 1056 c 258,29,-1
 432 1232 l 258,30,31
 448 1248 448 1248 448 1264 c 256,32,33
 448 1280 448 1280 464 1280 c 258,34,-1
 560 1280 l 258,35,36
 576 1280 576 1280 576 1264 c 258,0,-1
EndSplineSet
Colour: 6600
EndChar
StartChar: two
Encoding: 50 50 19
Width: 1024
VWidth: 0
Flags: MW
LayerCount: 4
Back
Fore
SplineSet
656 688 m 258,0,1
 768 800 768 800 768 912 c 258,2,-1
 768 1056 l 258,3,4
 768 1088 768 1088 736 1120 c 256,5,6
 704 1152 704 1152 672 1152 c 258,7,-1
 352 1152 l 258,8,9
 320 1152 320 1152 288 1120 c 256,10,11
 256 1088 256 1088 256 1056 c 258,12,-1
 256 848 l 258,13,14
 256 832 256 832 240 832 c 258,15,-1
 144 832 l 258,16,17
 128 832 128 832 128 848 c 258,18,-1
 128 1088 l 258,19,20
 128 1152 128 1152 192 1216 c 256,21,22
 256 1280 256 1280 320 1280 c 258,23,-1
 704 1280 l 258,24,25
 768 1280 768 1280 832 1216 c 256,26,27
 896 1152 896 1152 896 1088 c 258,28,-1
 896 864 l 258,29,30
 896 736 896 736 768 608 c 258,31,-1
 336 176 l 282,32,33
 320 160 320 160 320 144 c 280,34,35
 320 128 320 128 336 128 c 258,36,-1
 880 128 l 258,37,38
 896 128 896 128 896 112 c 258,39,-1
 896 16 l 258,40,41
 896 0 896 0 880 0 c 258,42,-1
 144 0 l 258,43,44
 128 0 128 0 128 16 c 258,45,-1
 128 96 l 258,46,47
 128 160 128 160 192 224 c 282,48,-1
 656 688 l 258,0,1
EndSplineSet
Validated: 19457
Layer: 2
SplineSet
754 740 m 2,0,1
 811 797 811 797 811 853 c 2,2,-1
 811 1024 l 2,3,4
 811 1081 811 1081 754 1138 c 128,-1,5
 697 1195 697 1195 640 1195 c 2,6,-1
 384 1195 l 2,7,8
 327 1195 327 1195 270 1138 c 128,-1,9
 213 1081 213 1081 213 1024 c 2,10,-1
 213 868 l 6,11,12
 213 853 213 853 199 853 c 2,13,-1
 142 853 l 2,14,15
 128 853 128 853 128 868 c 2,16,-1
 128 1024 l 2,17,18
 128 1109 128 1109 213.5 1194.5 c 128,-1,19
 299 1280 299 1280 384 1280 c 2,20,-1
 640 1280 l 2,21,22
 725 1280 725 1280 810.5 1194.5 c 128,-1,23
 896 1109 896 1109 896 1024 c 2,24,-1
 896 853 l 2,25,26
 896 768 896 768 811 683 c 2,27,-1
 256 128 l 2,28,29
 242 114 242 114 242 99.5 c 152,-1,30
 242 85 242 85 256 85 c 2,31,-1
 882 85 l 2,32,33
 896 85 896 85 896 71 c 2,34,-1
 896 14 l 2,35,36
 896 0 896 0 882 0 c 2,37,-1
 142 0 l 2,38,39
 128 0 128 0 128 14 c 2,40,-1
 128 85 l 2,41,42
 128 113 128 113 156 142 c 2,43,-1
 754 740 l 2,0,1
EndSplineSet
Layer: 3
SplineSet
752 784 m 258,0,1
 768 800 768 800 768 816 c 258,2,-1
 768 1072 l 258,3,4
 768 1088 768 1088 752 1104 c 258,5,6
 720 1136 l 258,7,8
 704 1152 704 1152 688 1152 c 258,9,-1
 352 1152 l 258,10,11
 320 1152 320 1152 304 1136 c 258,12,-1
 272 1104 l 258,13,14
 256 1088 256 1088 256 1056 c 258,15,-1
 256 848 l 258,16,17
 256 832 256 832 240 832 c 258,18,-1
 144 832 l 258,19,20
 128 832 128 832 128 848 c 258,21,-1
 128 1088 l 258,22,23
 128 1152 128 1152 160 1184 c 258,24,-1
 224 1248 l 262,25,26
 256 1280 256 1280 320 1280 c 258,27,-1
 736 1280 l 258,28,29
 768 1280 768 1280 800 1248 c 258,30,-1
 864 1184 l 258,31,32
 896 1152 896 1152 896 1120 c 258,33,-1
 896 768 l 258,34,35
 896 736 896 736 864 704 c 258,36,-1
 336 176 l 282,37,38
 320 160 320 160 320 144 c 280,39,40
 320 128 320 128 336 128 c 258,41,-1
 880 128 l 258,42,43
 896 128 896 128 896 112 c 258,44,-1
 896 16 l 258,45,46
 896 0 896 0 880 0 c 258,47,-1
 144 0 l 258,48,49
 128 0 128 0 128 16 c 258,50,-1
 128 128 l 258,51,52
 128 160 128 160 160 192 c 282,53,-1
 752 784 l 258,0,1
EndSplineSet
Comment: "Following my own conventions, I can't seem to get the bottom left of the '2' to look round.  But the current approach follows conventions.+AAoACgAA-UPDATE:  Not +ACIA-Exactly+ACIA following my own conventions, but I have managed to make the bottom left a bit more roundish."
Colour: 8000
EndChar
StartChar: three
Encoding: 51 51 20
Width: 1024
VWidth: 0
Flags: W
HStem: 0 128<278 746> 576 128<320 747.68> 1152 128<278 746>
VStem: 128 128<150 320 960 1130> 768 128<162 555 725 1118>
CounterMasks: 1 e0
LayerCount: 3
Back
Fore
SplineSet
256 224 m 258,0,1
 256 192 256 192 288 160 c 256,2,3
 320 128 320 128 352 128 c 258,4,-1
 672 128 l 258,5,6
 704 128 704 128 736 160 c 256,7,8
 768 192 768 192 768 224 c 258,9,-1
 768 480 l 258,10,11
 768 512 768 512 736 544 c 256,12,13
 704 576 704 576 672 576 c 258,14,-1
 336 576 l 258,15,16
 320 576 320 576 320 592 c 258,17,-1
 320 688 l 258,18,19
 320 704 320 704 336 704 c 258,20,-1
 672 704 l 258,21,22
 704 704 704 704 736 736 c 256,23,24
 768 768 768 768 768 800 c 258,25,-1
 768 1056 l 258,26,27
 768 1088 768 1088 736 1120 c 256,28,29
 704 1152 704 1152 672 1152 c 258,30,-1
 352 1152 l 258,31,32
 320 1152 320 1152 288 1120 c 256,33,34
 256 1088 256 1088 256 1056 c 258,35,-1
 256 976 l 258,36,37
 256 960 256 960 240 960 c 258,38,-1
 144 960 l 258,39,40
 128 960 128 960 128 976 c 258,41,-1
 128 1088 l 258,42,43
 128 1152 128 1152 192 1216 c 256,44,45
 256 1280 256 1280 320 1280 c 258,46,-1
 704 1280 l 258,47,48
 768 1280 768 1280 832 1216 c 256,49,50
 896 1152 896 1152 896 1088 c 258,51,-1
 896 737 l 258,52,53
 896 705 896 705 864 673 c 258,54,-1
 847 656 l 262,55,56
 831 640 831 640 847 624 c 262,57,-1
 864 607 l 258,58,59
 896 575 896 575 896 543 c 258,60,-1
 896 192 l 258,61,62
 896 128 896 128 832 64 c 256,63,64
 768 0 768 0 704 0 c 258,65,-1
 320 0 l 258,66,67
 256 0 256 0 192 64 c 256,68,69
 128 128 128 128 128 192 c 258,70,-1
 128 304 l 258,71,72
 128 320 128 320 144 320 c 258,73,-1
 240 320 l 258,74,75
 256 320 256 320 256 304 c 282,76,-1
 256 224 l 258,0,1
EndSplineSet
Validated: 19457
Layer: 2
SplineSet
256 224 m 258,0,1
 256 192 256 192 288 160 c 256,2,3
 320 128 320 128 352 128 c 258,4,-1
 672 128 l 258,5,6
 704 128 704 128 736 160 c 256,7,8
 768 192 768 192 768 224 c 258,9,-1
 768 480 l 258,10,11
 768 512 768 512 736 544 c 256,12,13
 704 576 704 576 672 576 c 258,14,-1
 336 576 l 258,15,16
 320 576 320 576 320 592 c 258,17,-1
 320 688 l 258,18,19
 320 704 320 704 336 704 c 258,20,-1
 672 704 l 258,21,22
 704 704 704 704 736 736 c 256,23,24
 768 768 768 768 768 800 c 258,25,-1
 768 1056 l 258,26,27
 768 1088 768 1088 736 1120 c 256,28,29
 704 1152 704 1152 672 1152 c 258,30,-1
 352 1152 l 258,31,32
 320 1152 320 1152 288 1120 c 256,33,34
 256 1088 256 1088 256 1056 c 258,35,-1
 256 976 l 258,36,37
 256 960 256 960 240 960 c 258,38,-1
 144 960 l 258,39,40
 128 960 128 960 128 976 c 258,41,-1
 128 1088 l 258,42,43
 128 1152 128 1152 192 1216 c 256,44,45
 256 1280 256 1280 320 1280 c 258,46,-1
 704 1280 l 258,47,48
 768 1280 768 1280 832 1216 c 256,49,50
 896 1152 896 1152 896 1088 c 258,51,-1
 896 736 l 258,52,53
 896 704 896 704 864 672 c 258,54,-1
 848 656 l 258,55,56
 832 640 832 640 848 624 c 258,57,-1
 864 608 l 258,58,59
 896 576 896 576 896 544 c 258,60,-1
 896 192 l 258,61,62
 896 128 896 128 832 64 c 256,63,64
 768 0 768 0 704 0 c 258,65,-1
 320 0 l 258,66,67
 256 0 256 0 192 64 c 256,68,69
 128 128 128 128 128 192 c 258,70,-1
 128 304 l 258,71,72
 128 320 128 320 144 320 c 258,73,-1
 240 320 l 258,74,75
 256 320 256 320 256 304 c 282,76,-1
 256 224 l 258,0,1
EndSplineSet
Colour: 6600
EndChar
StartChar: four
Encoding: 52 52 21
Width: 1024
VWidth: 0
Flags: W
HStem: 0 21G<776 888> 320 128<256.488 768> 1260 20G<776 888>
VStem: 128 128<448 599> 768 128<0 320 448 1040 1207.25 1280>
DStem2: 224 704 336 640 0.707107 0.707107<-121.959 610.584>
LayerCount: 3
Back
Fore
SplineSet
272 448 m 258,0,-1
 752 448 l 258,1,2
 768 448 768 448 768 464 c 258,3,-1
 768 1024 l 258,4,5
 768 1040 768 1040 752 1040 c 256,6,7
 736 1040 736 1040 720 1024 c 258,8,-1
 336 640 l 258,9,10
 256 560 256 560 256 480 c 258,11,-1
 256 464 l 258,12,13
 256 448 256 448 272 448 c 258,0,-1
880 0 m 258,14,-1
 784 0 l 258,15,16
 768 0 768 0 768 16 c 258,17,-1
 768 304 l 258,18,19
 768 320 768 320 752 320 c 258,20,-1
 144 320 l 258,21,22
 128 320 128 320 128 336 c 258,23,-1
 128 512 l 258,24,25
 128 608 128 608 224 704 c 258,26,-1
 752 1232 l 258,27,28
 768 1248 768 1248 768 1264 c 256,29,30
 768 1280 768 1280 784 1280 c 258,31,-1
 880 1280 l 258,32,33
 896 1280 896 1280 896 1264 c 258,34,-1
 896 16 l 258,35,36
 896 0 896 0 880 0 c 258,14,-1
EndSplineSet
Validated: 19457
Layer: 2
SplineSet
272 448 m 258,0,-1
 752 448 l 258,1,2
 768 448 768 448 768 464 c 258,3,-1
 768 1024 l 258,4,5
 768 1040 768 1040 752 1040 c 256,6,7
 736 1040 736 1040 720 1024 c 258,8,-1
 336 640 l 258,9,10
 256 560 256 560 256 480 c 258,11,-1
 256 464 l 258,12,13
 256 448 256 448 272 448 c 258,0,-1
880 0 m 258,14,-1
 784 0 l 258,15,16
 768 0 768 0 768 16 c 258,17,-1
 768 304 l 258,18,19
 768 320 768 320 752 320 c 258,20,-1
 144 320 l 258,21,22
 128 320 128 320 128 336 c 258,23,-1
 128 512 l 258,24,25
 128 608 128 608 224 704 c 258,26,-1
 752 1232 l 258,27,28
 768 1248 768 1248 768 1264 c 256,29,30
 768 1280 768 1280 784 1280 c 258,31,-1
 880 1280 l 258,32,33
 896 1280 896 1280 896 1264 c 258,34,-1
 896 16 l 258,35,36
 896 0 896 0 880 0 c 258,14,-1
EndSplineSet
Colour: 6600
EndChar
StartChar: five
Encoding: 53 53 22
Width: 1024
VWidth: 0
Flags: W
HStem: 0 128<278 746> 640 128<256 746> 1152 128<256 896>
VStem: 128 128<150 256 768 1152> 768 128<162 606>
CounterMasks: 1 e0
LayerCount: 3
Back
Fore
SplineSet
896 1264 m 258,0,-1
 896 1168 l 258,1,2
 896 1152 896 1152 880 1152 c 258,3,-1
 272 1152 l 258,4,5
 256 1152 256 1152 256 1136 c 282,6,-1
 256 784 l 258,7,8
 256 768 256 768 272 768 c 258,9,-1
 704 768 l 258,10,11
 768 768 768 768 832 704 c 256,12,13
 896 640 896 640 896 576 c 258,14,-1
 896 192 l 258,15,16
 896 128 896 128 832 64 c 256,17,18
 768 0 768 0 704 0 c 258,19,-1
 320 0 l 258,20,21
 256 0 256 0 192 64 c 256,22,23
 128 128 128 128 128 192 c 258,24,-1
 128 240 l 258,25,26
 128 256 128 256 144 256 c 258,27,-1
 240 256 l 258,28,29
 256 256 256 256 256 240 c 258,30,-1
 256 224 l 258,31,32
 256 192 256 192 288 160 c 256,33,34
 320 128 320 128 352 128 c 258,35,-1
 672 128 l 258,36,37
 704 128 704 128 736 160 c 256,38,39
 768 192 768 192 768 224 c 258,40,-1
 768 544 l 258,41,42
 768 576 768 576 736 608 c 256,43,44
 704 640 704 640 672 640 c 282,45,-1
 144 640 l 258,46,47
 128 640 128 640 128 656 c 258,48,-1
 128 1264 l 258,49,50
 128 1280 128 1280 144 1280 c 258,51,-1
 880 1280 l 258,52,53
 896 1280 896 1280 896 1264 c 258,0,-1
EndSplineSet
Validated: 19457
Layer: 2
SplineSet
896 1264 m 258,0,-1
 896 1168 l 258,1,2
 896 1152 896 1152 880 1152 c 258,3,-1
 272 1152 l 258,4,5
 256 1152 256 1152 256 1136 c 282,6,-1
 256 784 l 258,7,8
 256 768 256 768 272 768 c 258,9,-1
 704 768 l 258,10,11
 768 768 768 768 832 704 c 256,12,13
 896 640 896 640 896 576 c 258,14,-1
 896 192 l 258,15,16
 896 128 896 128 832 64 c 256,17,18
 768 0 768 0 704 0 c 258,19,-1
 320 0 l 258,20,21
 256 0 256 0 192 64 c 256,22,23
 128 128 128 128 128 192 c 258,24,-1
 128 240 l 258,25,26
 128 256 128 256 144 256 c 258,27,-1
 240 256 l 258,28,29
 256 256 256 256 256 240 c 258,30,-1
 256 224 l 258,31,32
 256 192 256 192 288 160 c 256,33,34
 320 128 320 128 352 128 c 258,35,-1
 672 128 l 258,36,37
 704 128 704 128 736 160 c 256,38,39
 768 192 768 192 768 224 c 258,40,-1
 768 544 l 258,41,42
 768 576 768 576 736 608 c 256,43,44
 704 640 704 640 672 640 c 282,45,-1
 144 640 l 258,46,47
 128 640 128 640 128 656 c 258,48,-1
 128 1264 l 258,49,50
 128 1280 128 1280 144 1280 c 258,51,-1
 880 1280 l 258,52,53
 896 1280 896 1280 896 1264 c 258,0,-1
EndSplineSet
Colour: 6600
EndChar
StartChar: six
Encoding: 54 54 23
Width: 1024
VWidth: 0
Flags: W
HStem: 0 128<278 746> 640 128<256 746> 1152 128<278 832>
VStem: 128 128<150 640 768 1130> 768 128<162 606>
CounterMasks: 1 e0
LayerCount: 3
Back
Fore
SplineSet
672 640 m 258,0,-1
 272 640 l 258,1,2
 256 640 256 640 256 624 c 258,3,-1
 256 224 l 258,4,5
 256 192 256 192 288 160 c 256,6,7
 320 128 320 128 352 128 c 258,8,-1
 672 128 l 258,9,10
 704 128 704 128 736 160 c 256,11,12
 768 192 768 192 768 224 c 258,13,-1
 768 544 l 258,14,15
 768 576 768 576 736 608 c 256,16,17
 704 640 704 640 672 640 c 258,0,-1
832 1264 m 258,18,-1
 832 1168 l 258,19,20
 832 1152 832 1152 816 1152 c 258,21,-1
 352 1152 l 258,22,23
 320 1152 320 1152 288 1120 c 256,24,25
 256 1088 256 1088 256 1056 c 258,26,-1
 256 784 l 258,27,28
 256 768 256 768 272 768 c 258,29,-1
 704 768 l 258,30,31
 768 768 768 768 832 704 c 256,32,33
 896 640 896 640 896 576 c 258,34,-1
 896 192 l 258,35,36
 896 128 896 128 832 64 c 256,37,38
 768 0 768 0 704 0 c 258,39,-1
 320 0 l 258,40,41
 256 0 256 0 192 64 c 256,42,43
 128 128 128 128 128 192 c 258,44,-1
 128 1088 l 258,45,46
 128 1152 128 1152 192 1216 c 256,47,48
 256 1280 256 1280 320 1280 c 258,49,-1
 816 1280 l 258,50,51
 832 1280 832 1280 832 1264 c 258,18,-1
EndSplineSet
Validated: 19457
Layer: 2
SplineSet
672 640 m 258,0,-1
 272 640 l 258,1,2
 256 640 256 640 256 624 c 258,3,-1
 256 224 l 258,4,5
 256 192 256 192 288 160 c 256,6,7
 320 128 320 128 352 128 c 258,8,-1
 672 128 l 258,9,10
 704 128 704 128 736 160 c 256,11,12
 768 192 768 192 768 224 c 258,13,-1
 768 544 l 258,14,15
 768 576 768 576 736 608 c 256,16,17
 704 640 704 640 672 640 c 258,0,-1
832 1264 m 258,18,-1
 832 1168 l 258,19,20
 832 1152 832 1152 816 1152 c 258,21,-1
 352 1152 l 258,22,23
 320 1152 320 1152 288 1120 c 256,24,25
 256 1088 256 1088 256 1056 c 258,26,-1
 256 784 l 258,27,28
 256 768 256 768 272 768 c 258,29,-1
 704 768 l 258,30,31
 768 768 768 768 832 704 c 256,32,33
 896 640 896 640 896 576 c 258,34,-1
 896 192 l 258,35,36
 896 128 896 128 832 64 c 256,37,38
 768 0 768 0 704 0 c 258,39,-1
 320 0 l 258,40,41
 256 0 256 0 192 64 c 256,42,43
 128 128 128 128 128 192 c 258,44,-1
 128 1088 l 258,45,46
 128 1152 128 1152 192 1216 c 256,47,48
 256 1280 256 1280 320 1280 c 258,49,-1
 816 1280 l 258,50,51
 832 1280 832 1280 832 1264 c 258,18,-1
EndSplineSet
Colour: 6600
EndChar
StartChar: seven
Encoding: 55 55 24
Width: 1024
VWidth: 0
Flags: W
HStem: 0 21G<456 568> 896 21G<136 248> 1152 128<256 768>
VStem: 128 128<896 1152> 448 128<0 485> 768 128<795 1152>
DStem2: 592 656 656 528 0.707107 0.707107<-201.434 291.944>
LayerCount: 3
Back
Fore
SplineSet
240 896 m 258,0,-1
 144 896 l 258,1,2
 128 896 128 896 128 912 c 258,3,-1
 128 1264 l 258,4,5
 128 1280 128 1280 144 1280 c 258,6,-1
 880 1280 l 258,7,8
 896 1280 896 1280 896 1264 c 258,9,-1
 896 912 l 258,10,11
 896 768 896 768 752 624 c 258,12,13
 656 528 l 256,14,15
 576 448 576 448 576 368 c 258,16,-1
 576 16 l 258,17,18
 576 0 576 0 560 0 c 258,19,-1
 464 0 l 258,20,21
 448 0 448 0 448 16 c 258,22,-1
 448 368 l 258,23,24
 448 512 448 512 592 656 c 282,25,-1
 688 752 l 258,26,27
 768 832 768 832 768 912 c 258,28,-1
 768 1136 l 258,29,30
 768 1152 768 1152 752 1152 c 258,31,-1
 272 1152 l 258,32,33
 256 1152 256 1152 256 1136 c 258,34,-1
 256 912 l 258,35,36
 256 896 256 896 240 896 c 258,0,-1
EndSplineSet
Validated: 19457
Layer: 2
SplineSet
240 896 m 258,0,-1
 144 896 l 258,1,2
 128 896 128 896 128 912 c 258,3,-1
 128 1264 l 258,4,5
 128 1280 128 1280 144 1280 c 258,6,-1
 880 1280 l 258,7,8
 896 1280 896 1280 896 1264 c 258,9,-1
 896 912 l 258,10,11
 896 768 896 768 752 624 c 258,12,13
 656 528 l 256,14,15
 576 448 576 448 576 368 c 258,16,-1
 576 16 l 258,17,18
 576 0 576 0 560 0 c 258,19,-1
 464 0 l 258,20,21
 448 0 448 0 448 16 c 258,22,-1
 448 368 l 258,23,24
 448 512 448 512 592 656 c 282,25,-1
 688 752 l 258,26,27
 768 832 768 832 768 912 c 258,28,-1
 768 1136 l 258,29,30
 768 1152 768 1152 752 1152 c 258,31,-1
 272 1152 l 258,32,33
 256 1152 256 1152 256 1136 c 258,34,-1
 256 912 l 258,35,36
 256 896 256 896 240 896 c 258,0,-1
EndSplineSet
Colour: 6600
EndChar
StartChar: eight
Encoding: 56 56 25
Width: 1024
VWidth: 0
Flags: W
HStem: 0 128<278 746> 576 128<276.32 747.68> 1152 128<278 746>
VStem: 128 128<150 555 725 1130> 768 128<162 555 725 1118>
CounterMasks: 1 e0
LayerCount: 3
Back
Fore
SplineSet
672 576 m 258,0,-1
 352 576 l 258,1,2
 320 576 320 576 288 544 c 256,3,4
 256 512 256 512 256 480 c 258,5,-1
 256 224 l 258,6,7
 256 192 256 192 288 160 c 256,8,9
 320 128 320 128 352 128 c 258,10,-1
 672 128 l 258,11,12
 704 128 704 128 736 160 c 256,13,14
 768 192 768 192 768 224 c 258,15,-1
 768 480 l 258,16,17
 768 512 768 512 736 544 c 256,18,19
 704 576 704 576 672 576 c 258,0,-1
768 800 m 258,20,-1
 768 1056 l 258,21,22
 768 1088 768 1088 736 1120 c 256,23,24
 704 1152 704 1152 672 1152 c 258,25,-1
 352 1152 l 258,26,27
 320 1152 320 1152 288 1120 c 256,28,29
 256 1088 256 1088 256 1056 c 258,30,-1
 256 800 l 258,31,32
 256 768 256 768 288 736 c 256,33,34
 320 704 320 704 352 704 c 258,35,-1
 672 704 l 258,36,37
 704 704 704 704 736 736 c 256,38,39
 768 768 768 768 768 800 c 258,20,-1
128 737 m 258,40,-1
 128 1088 l 258,41,42
 128 1152 128 1152 192 1216 c 256,43,44
 256 1280 256 1280 320 1280 c 258,45,-1
 704 1280 l 258,46,47
 768 1280 768 1280 832 1216 c 256,48,49
 896 1152 896 1152 896 1088 c 258,50,-1
 896 737 l 258,51,52
 896 705 896 705 864 673 c 258,53,-1
 847 656 l 258,54,55
 831 640 831 640 847 624 c 258,56,-1
 864 607 l 258,57,58
 896 575 896 575 896 543 c 258,59,-1
 896 192 l 258,60,61
 896 128 896 128 832 64 c 256,62,63
 768 0 768 0 704 0 c 258,64,-1
 320 0 l 258,65,66
 256 0 256 0 192 64 c 256,67,68
 128 128 128 128 128 192 c 258,69,-1
 128 543 l 258,70,71
 128 575 128 575 160 607 c 258,72,-1
 177 624 l 262,73,74
 193 640 193 640 177 656 c 262,75,-1
 160 673 l 258,76,77
 128 705 128 705 128 737 c 258,40,-1
EndSplineSet
Validated: 19457
Layer: 2
SplineSet
672 576 m 258,0,-1
 352 576 l 258,1,2
 320 576 320 576 288 544 c 256,3,4
 256 512 256 512 256 480 c 258,5,-1
 256 224 l 258,6,7
 256 192 256 192 288 160 c 256,8,9
 320 128 320 128 352 128 c 258,10,-1
 672 128 l 258,11,12
 704 128 704 128 736 160 c 256,13,14
 768 192 768 192 768 224 c 258,15,-1
 768 480 l 258,16,17
 768 512 768 512 736 544 c 256,18,19
 704 576 704 576 672 576 c 258,0,-1
768 800 m 258,20,-1
 768 1056 l 258,21,22
 768 1088 768 1088 736 1120 c 256,23,24
 704 1152 704 1152 672 1152 c 258,25,-1
 352 1152 l 258,26,27
 320 1152 320 1152 288 1120 c 256,28,29
 256 1088 256 1088 256 1056 c 258,30,-1
 256 800 l 258,31,32
 256 768 256 768 288 736 c 256,33,34
 320 704 320 704 352 704 c 258,35,-1
 672 704 l 258,36,37
 704 704 704 704 736 736 c 256,38,39
 768 768 768 768 768 800 c 258,20,-1
128 736 m 258,40,-1
 128 1088 l 258,41,42
 128 1152 128 1152 192 1216 c 256,43,44
 256 1280 256 1280 320 1280 c 258,45,-1
 704 1280 l 258,46,47
 768 1280 768 1280 832 1216 c 256,48,49
 896 1152 896 1152 896 1088 c 258,50,-1
 896 736 l 258,51,52
 896 704 896 704 864 672 c 258,53,-1
 848 656 l 258,54,55
 832 640 832 640 848 624 c 258,56,-1
 864 608 l 258,57,58
 896 576 896 576 896 544 c 258,59,-1
 896 192 l 258,60,61
 896 128 896 128 832 64 c 256,62,63
 768 0 768 0 704 0 c 258,64,-1
 320 0 l 258,65,66
 256 0 256 0 192 64 c 256,67,68
 128 128 128 128 128 192 c 258,69,-1
 128 544 l 258,70,71
 128 576 128 576 160 608 c 258,72,-1
 176 624 l 258,73,74
 192 640 192 640 176 656 c 258,75,-1
 160 672 l 258,76,77
 128 704 128 704 128 736 c 258,40,-1
EndSplineSet
Colour: 6600
EndChar
StartChar: less
Encoding: 60 60 29
Width: 1024
VWidth: 0
Flags: W
DStem2: 144 528 336 528 0.707107 0.707107<113.137 905.097> 864 -32 768 -128 0.707107 -0.707107<-769.332 22.6274>
LayerCount: 3
Back
Fore
SplineSet
144 528 m 6,0,-1
 768 1152 l 262,1,2
 784 1168 784 1168 800 1152 c 262,3,-1
 864 1088 l 262,4,5
 880 1072 880 1072 864 1056 c 262,6,-1
 336 528 l 6,7,8
 320 512 320 512 336 496 c 6,9,-1
 864 -32 l 262,10,11
 880 -48 880 -48 864 -64 c 262,12,-1
 800 -128 l 262,13,14
 784 -144 784 -144 768 -128 c 262,15,-1
 144 496 l 6,16,17
 128 512 128 512 144 528 c 6,0,-1
EndSplineSet
Validated: 19457
Layer: 2
SplineSet
144 656 m 2,0,-1
 768 1280 l 258,1,2
 784 1296 784 1296 800 1280 c 258,3,-1
 864 1216 l 258,4,5
 880 1200 880 1200 864 1184 c 258,6,-1
 336 656 l 2,7,8
 320 640 320 640 336 624 c 2,9,-1
 864 96 l 258,10,11
 880 80 880 80 864 64 c 258,12,-1
 800 0 l 258,13,14
 784 -16 784 -16 768 0 c 258,15,-1
 144 624 l 2,16,17
 128 640 128 640 144 656 c 2,0,-1
EndSplineSet
Colour: 6600
EndChar
StartChar: question
Encoding: 63 63 32
Width: 1024
VWidth: 0
Flags: MW
LayerCount: 4
Back
Fore
SplineSet
464 256 m 258,0,-1
 560 256 l 258,1,2
 576 256 576 256 576 240 c 258,3,-1
 576 16 l 258,4,5
 576 0 576 0 560 0 c 258,6,-1
 464 0 l 258,7,8
 448 0 448 0 448 16 c 258,9,-1
 448 240 l 258,10,11
 448 256 448 256 464 256 c 258,0,-1
256 848 m 258,12,13
 256 832 256 832 240 832 c 258,14,-1
 144 832 l 258,15,16
 128 832 128 832 128 848 c 258,17,-1
 128 1088 l 258,18,19
 128 1152 128 1152 192 1216 c 128,-1,20
 256 1280 256 1280 320 1280 c 258,21,-1
 704 1280 l 258,22,23
 768 1280 768 1280 832 1216 c 128,-1,24
 896 1152 896 1152 896 1088 c 258,25,-1
 896 992 l 258,26,27
 896 832 896 832 736 672 c 262,28,-1
 672 608 l 258,29,30
 576 512 576 512 576 416 c 258,31,-1
 576 400 l 258,32,33
 576 384 576 384 560 384 c 258,34,-1
 464 384 l 258,35,36
 448 384 448 384 448 400 c 258,37,-1
 448 464 l 258,38,39
 448 576 448 576 560 688 c 258,40,-1
 624 752 l 262,41,42
 768 896 768 896 768 1040 c 258,43,-1
 768 1056 l 258,44,45
 768 1088 768 1088 736 1120 c 128,-1,46
 704 1152 704 1152 672 1152 c 258,47,-1
 352 1152 l 258,48,49
 320 1152 320 1152 288 1120 c 128,-1,50
 256 1088 256 1088 256 1056 c 258,51,-1
 256 848 l 258,12,13
EndSplineSet
Validated: 19457
Layer: 2
SplineSet
484 199 m 2,0,-1
 540 199 l 6,1,2
 555 199 555 199 555 185 c 2,3,-1
 555 14 l 2,4,5
 555 0 555 0 540 0 c 2,6,-1
 484 0 l 2,7,8
 469 0 469 0 469 14 c 2,9,-1
 469 185 l 2,10,11
 469 199 469 199 484 199 c 2,0,-1
213 868 m 2,12,13
 213 853 213 853 199 853 c 2,14,-1
 142 853 l 2,15,16
 128 853 128 853 128 868 c 2,17,-1
 128 1024 l 2,18,19
 128 1109 128 1109 213.5 1194.5 c 128,-1,20
 299 1280 299 1280 384 1280 c 2,21,-1
 640 1280 l 2,22,23
 725 1280 725 1280 810.5 1194.5 c 128,-1,24
 896 1109 896 1109 896 1024 c 2,25,-1
 896 853 l 0,26,-1
 896 825 l 2,27,28
 896 768 896 768 839 711 c 2,29,-1
 612 484 l 2,30,31
 555 427 555 427 555 370 c 2,32,-1
 555 327 l 2,33,34
 555 313 555 313 540 313 c 2,35,-1
 484 313 l 2,36,37
 469 313 469 313 469 327 c 2,38,-1
 469 398 l 2,39,40
 469 455 469 455 526 512 c 2,41,-1
 754 740 l 2,42,43
 811 797 811 797 811 853 c 2,44,-1
 811 1024 l 2,45,46
 811 1081 811 1081 754 1138 c 128,-1,47
 697 1195 697 1195 640 1195 c 2,48,-1
 384 1195 l 2,49,50
 327 1195 327 1195 270 1138 c 128,-1,51
 213 1081 213 1081 213 1024 c 2,52,-1
 213 868 l 2,12,13
EndSplineSet
Layer: 3
SplineSet
464 256 m 258,0,-1
 560 256 l 258,1,2
 576 256 576 256 576 240 c 258,3,-1
 576 16 l 258,4,5
 576 0 576 0 560 0 c 258,6,-1
 464 0 l 258,7,8
 448 0 448 0 448 16 c 258,9,-1
 448 240 l 258,10,11
 448 256 448 256 464 256 c 258,0,-1
256 848 m 258,12,13
 256 832 256 832 240 832 c 258,14,-1
 144 832 l 258,15,16
 128 832 128 832 128 848 c 258,17,-1
 128 1120 l 258,18,19
 128 1152 128 1152 160 1184 c 258,20,21
 224 1248 l 258,22,23
 256 1280 256 1280 288 1280 c 258,24,-1
 736 1280 l 258,25,26
 768 1280 768 1280 800 1248 c 258,27,28
 864 1184 l 258,29,30
 896 1152 896 1152 896 1120 c 258,31,-1
 896 864 l 262,32,33
 896 832 896 832 864 800 c 258,34,-1
 592 528 l 258,35,36
 576 512 576 512 576 496 c 258,37,-1
 576 400 l 258,38,39
 576 384 576 384 560 384 c 258,40,-1
 464 384 l 258,41,42
 448 384 448 384 448 400 c 258,43,-1
 448 544 l 258,44,45
 448 576 448 576 480 608 c 258,46,-1
 752 880 l 258,47,48
 768 896 768 896 768 912 c 258,49,-1
 768 1072 l 258,50,51
 768 1088 768 1088 752 1104 c 258,52,-1
 720 1136 l 258,53,54
 704 1152 704 1152 688 1152 c 258,55,-1
 336 1152 l 258,56,57
 320 1152 320 1152 304 1136 c 258,58,-1
 272 1104 l 258,59,60
 256 1088 256 1088 256 1072 c 258,61,-1
 256 848 l 258,12,13
EndSplineSet
Colour: 8000
EndChar
StartChar: at
Encoding: 64 64 33
Width: 1024
VWidth: 0
Flags: W
HStem: 0 128<214 896> 256 128<470 735.5> 288 96<470 747.531> 896 128<470 766.68> 1152 128<214 746>
VStem: 64 128<150 1130> 320 128<406 874> 768 128<404.32 896 1024 1118>
CounterMasks: 2 f8 07
LayerCount: 3
Back
Fore
SplineSet
752 896 m 258,0,-1
 544 896 l 258,1,2
 512 896 512 896 480 864 c 256,3,4
 448 832 448 832 448 800 c 258,5,-1
 448 480 l 258,6,7
 448 448 448 448 480 416 c 256,8,9
 512 384 512 384 544 384 c 258,10,-1
 672 384 l 258,11,12
 704 384 704 384 736 416 c 256,13,14
 768 448 768 448 768 480 c 258,15,-1
 768 880 l 258,16,17
 768 896 768 896 752 896 c 258,0,-1
256 1280 m 258,18,-1
 704 1280 l 258,19,20
 768 1280 768 1280 832 1216 c 256,21,22
 896 1152 896 1152 896 1088 c 258,23,-1
 896 272 l 258,24,25
 896 256 896 256 880 256 c 258,26,-1
 800 256 l 258,27,28
 784 256 784 256 768 272 c 256,29,30
 751 288 751 288 736 288 c 256,31,32
 720 288 720 288 704 272 c 256,33,34
 688 256 688 256 672 256 c 258,35,-1
 512 256 l 258,36,37
 448 256 448 256 384 320 c 256,38,39
 320 384 320 384 320 448 c 258,40,-1
 320 832 l 258,41,42
 320 896 320 896 384 960 c 256,43,44
 448 1024 448 1024 512 1024 c 258,45,-1
 752 1024 l 258,46,47
 768 1024 768 1024 768 1040 c 258,48,-1
 768 1056 l 258,49,50
 768 1088 768 1088 736 1120 c 256,51,52
 704 1152 704 1152 672 1152 c 258,53,-1
 288 1152 l 258,54,55
 256 1152 256 1152 224 1120 c 256,56,57
 192 1088 192 1088 192 1056 c 258,58,-1
 192 224 l 258,59,60
 192 192 192 192 224 160 c 256,61,62
 256 128 256 128 288 128 c 258,63,-1
 880 128 l 258,64,65
 896 128 896 128 896 112 c 258,66,-1
 896 16 l 258,67,68
 896 0 896 0 880 0 c 258,69,-1
 256 0 l 258,70,71
 192 0 192 0 128 64 c 256,72,73
 64 128 64 128 64 192 c 258,74,-1
 64 1088 l 258,75,76
 64 1152 64 1152 128 1216 c 256,77,78
 192 1280 192 1280 256 1280 c 258,18,-1
EndSplineSet
Validated: 19457
Layer: 2
SplineSet
752 896 m 258,0,-1
 544 896 l 258,1,2
 512 896 512 896 480 864 c 256,3,4
 448 832 448 832 448 800 c 258,5,-1
 448 480 l 258,6,7
 448 448 448 448 480 416 c 256,8,9
 512 384 512 384 544 384 c 258,10,-1
 672 384 l 258,11,12
 704 384 704 384 736 416 c 256,13,14
 768 448 768 448 768 480 c 258,15,-1
 768 880 l 258,16,17
 768 896 768 896 752 896 c 258,0,-1
256 1280 m 258,18,-1
 704 1280 l 258,19,20
 768 1280 768 1280 832 1216 c 256,21,22
 896 1152 896 1152 896 1088 c 258,23,-1
 896 272 l 258,24,25
 896 256 896 256 880 256 c 258,26,-1
 800 256 l 258,27,28
 784 256 784 256 768 272 c 256,29,30
 751 288 751 288 736 288 c 256,31,32
 720 288 720 288 704 272 c 256,33,34
 688 256 688 256 672 256 c 258,35,-1
 512 256 l 258,36,37
 448 256 448 256 384 320 c 256,38,39
 320 384 320 384 320 448 c 258,40,-1
 320 832 l 258,41,42
 320 896 320 896 384 960 c 256,43,44
 448 1024 448 1024 512 1024 c 258,45,-1
 752 1024 l 258,46,47
 768 1024 768 1024 768 1040 c 258,48,-1
 768 1056 l 258,49,50
 768 1088 768 1088 736 1120 c 256,51,52
 704 1152 704 1152 672 1152 c 258,53,-1
 288 1152 l 258,54,55
 256 1152 256 1152 224 1120 c 256,56,57
 192 1088 192 1088 192 1056 c 258,58,-1
 192 224 l 258,59,60
 192 192 192 192 224 160 c 256,61,62
 256 128 256 128 288 128 c 258,63,-1
 880 128 l 258,64,65
 896 128 896 128 896 112 c 258,66,-1
 896 16 l 258,67,68
 896 0 896 0 880 0 c 258,69,-1
 256 0 l 258,70,71
 192 0 192 0 128 64 c 256,72,73
 64 128 64 128 64 192 c 258,74,-1
 64 1088 l 258,75,76
 64 1152 64 1152 128 1216 c 256,77,78
 192 1280 192 1280 256 1280 c 258,18,-1
EndSplineSet
Colour: 6600
EndChar
StartChar: A
Encoding: 65 65 34
Width: 1024
VWidth: 0
Flags: W
HStem: 0 21G<136 248 776 888> 512 128<256 768> 1152 128<278 746>
VStem: 128 128<0 512 640 1130> 768 128<0 512 640 1118>
LayerCount: 3
Back
Fore
SplineSet
256 1056 m 258,0,-1
 256 656 l 258,1,2
 256 640 256 640 272 640 c 258,3,-1
 752 640 l 258,4,5
 768 640 768 640 768 656 c 258,6,-1
 768 1056 l 258,7,8
 768 1088 768 1088 736 1120 c 256,9,10
 704 1152 704 1152 672 1152 c 258,11,-1
 352 1152 l 258,12,13
 320 1152 320 1152 288 1120 c 256,14,15
 256 1088 256 1088 256 1056 c 258,0,-1
192 1216 m 256,16,17
 256 1280 256 1280 320 1280 c 258,18,-1
 704 1280 l 258,19,20
 768 1280 768 1280 832 1216 c 256,21,22
 896 1152 896 1152 896 1088 c 258,23,-1
 896 16 l 258,24,25
 896 0 896 0 880 0 c 258,26,-1
 784 0 l 258,27,28
 768 0 768 0 768 16 c 258,29,-1
 768 496 l 258,30,31
 768 512 768 512 752 512 c 258,32,-1
 272 512 l 258,33,34
 256 512 256 512 256 496 c 258,35,-1
 256 16 l 258,36,37
 256 0 256 0 240 0 c 258,38,-1
 144 0 l 258,39,40
 128 0 128 0 128 16 c 258,41,-1
 128 1088 l 258,42,43
 128 1152 128 1152 192 1216 c 256,16,17
EndSplineSet
Validated: 19457
Layer: 2
SplineSet
256 1056 m 258,0,-1
 256 656 l 258,1,2
 256 640 256 640 272 640 c 258,3,-1
 752 640 l 258,4,5
 768 640 768 640 768 656 c 258,6,-1
 768 1056 l 258,7,8
 768 1088 768 1088 736 1120 c 256,9,10
 704 1152 704 1152 672 1152 c 258,11,-1
 352 1152 l 258,12,13
 320 1152 320 1152 288 1120 c 256,14,15
 256 1088 256 1088 256 1056 c 258,0,-1
192 1216 m 256,16,17
 256 1280 256 1280 320 1280 c 258,18,-1
 704 1280 l 258,19,20
 768 1280 768 1280 832 1216 c 256,21,22
 896 1152 896 1152 896 1088 c 258,23,-1
 896 16 l 258,24,25
 896 0 896 0 880 0 c 258,26,-1
 784 0 l 258,27,28
 768 0 768 0 768 16 c 258,29,-1
 768 496 l 258,30,31
 768 512 768 512 752 512 c 258,32,-1
 272 512 l 258,33,34
 256 512 256 512 256 496 c 258,35,-1
 256 16 l 258,36,37
 256 0 256 0 240 0 c 258,38,-1
 144 0 l 258,39,40
 128 0 128 0 128 16 c 258,41,-1
 128 1088 l 258,42,43
 128 1152 128 1152 192 1216 c 256,16,17
EndSplineSet
Colour: 6600
EndChar
StartChar: B
Encoding: 66 66 35
Width: 1024
VWidth: 0
Flags: W
HStem: 0 128<256 746> 640 128<256 682> 1152 128<256 746>
VStem: 128 128<128 640 768 1152> 768 128<162 554 802 1118>
LayerCount: 3
Back
Fore
SplineSet
272 128 m 258,0,-1
 672 128 l 258,1,2
 704 128 704 128 736 160 c 256,3,4
 768 192 768 192 768 224 c 258,5,-1
 768 448 l 258,6,7
 768 512 768 512 704 576 c 256,8,9
 640 640 640 640 576 640 c 258,10,-1
 272 640 l 258,11,12
 256 640 256 640 256 624 c 258,13,-1
 256 144 l 258,14,15
 256 128 256 128 272 128 c 258,0,-1
272 768 m 258,16,-1
 672 768 l 258,17,18
 704 768 704 768 736 800 c 256,19,20
 768 832 768 832 768 864 c 258,21,-1
 768 1056 l 258,22,23
 768 1088 768 1088 736 1120 c 256,24,25
 704 1152 704 1152 672 1152 c 258,26,-1
 272 1152 l 258,27,28
 256 1152 256 1152 256 1136 c 258,29,-1
 256 784 l 258,30,31
 256 768 256 768 272 768 c 258,16,-1
896 1088 m 258,32,-1
 896 896 l 258,33,34
 896 832 896 832 832 768 c 258,35,-1
 784 720 l 258,36,37
 768 704 768 704 784 688 c 258,38,-1
 832 640 l 258,39,40
 896 576 896 576 896 512 c 258,41,-1
 896 192 l 258,42,43
 896 128 896 128 832 64 c 256,44,45
 768 0 768 0 704 0 c 258,46,-1
 144 0 l 258,47,48
 128 0 128 0 128 16 c 258,49,-1
 128 1264 l 258,50,51
 128 1280 128 1280 144 1280 c 258,52,-1
 704 1280 l 258,53,54
 768 1280 768 1280 832 1216 c 256,55,56
 896 1152 896 1152 896 1088 c 258,32,-1
EndSplineSet
Validated: 19457
Layer: 2
SplineSet
272 128 m 258,0,-1
 672 128 l 258,1,2
 704 128 704 128 736 160 c 256,3,4
 768 192 768 192 768 224 c 258,5,-1
 768 448 l 258,6,7
 768 512 768 512 704 576 c 256,8,9
 640 640 640 640 576 640 c 258,10,-1
 272 640 l 258,11,12
 256 640 256 640 256 624 c 258,13,-1
 256 144 l 258,14,15
 256 128 256 128 272 128 c 258,0,-1
272 768 m 258,16,-1
 672 768 l 258,17,18
 704 768 704 768 736 800 c 256,19,20
 768 832 768 832 768 864 c 258,21,-1
 768 1056 l 258,22,23
 768 1088 768 1088 736 1120 c 256,24,25
 704 1152 704 1152 672 1152 c 258,26,-1
 272 1152 l 258,27,28
 256 1152 256 1152 256 1136 c 258,29,-1
 256 784 l 258,30,31
 256 768 256 768 272 768 c 258,16,-1
896 1088 m 258,32,-1
 896 896 l 258,33,34
 896 832 896 832 832 768 c 258,35,-1
 784 720 l 258,36,37
 768 704 768 704 784 688 c 258,38,-1
 832 640 l 258,39,40
 896 576 896 576 896 512 c 258,41,-1
 896 192 l 258,42,43
 896 128 896 128 832 64 c 256,44,45
 768 0 768 0 704 0 c 258,46,-1
 144 0 l 258,47,48
 128 0 128 0 128 16 c 258,49,-1
 128 1264 l 258,50,51
 128 1280 128 1280 144 1280 c 258,52,-1
 704 1280 l 258,53,54
 768 1280 768 1280 832 1216 c 256,55,56
 896 1152 896 1152 896 1088 c 258,32,-1
EndSplineSet
Colour: 6600
EndChar
StartChar: C
Encoding: 67 67 36
Width: 1024
VWidth: 0
Flags: W
HStem: 0 128<278 746> 1152 128<278 746>
VStem: 128 128<150 1130> 768 128<162 320 960 1118>
LayerCount: 3
Back
Fore
SplineSet
768 976 m 258,0,-1
 768 1056 l 258,1,2
 768 1088 768 1088 736 1120 c 256,3,4
 704 1152 704 1152 672 1152 c 258,5,-1
 352 1152 l 258,6,7
 320 1152 320 1152 288 1120 c 256,8,9
 256 1088 256 1088 256 1056 c 258,10,-1
 256 224 l 258,11,12
 256 192 256 192 288 160 c 256,13,14
 320 128 320 128 352 128 c 258,15,-1
 672 128 l 258,16,17
 704 128 704 128 736 160 c 256,18,19
 768 192 768 192 768 224 c 258,20,-1
 768 304 l 258,21,22
 768 320 768 320 784 320 c 258,23,-1
 880 320 l 258,24,25
 896 320 896 320 896 304 c 258,26,-1
 896 192 l 258,27,28
 896 128 896 128 832 64 c 256,29,30
 768 0 768 0 704 0 c 258,31,-1
 320 0 l 258,32,33
 256 0 256 0 192 64 c 256,34,35
 128 128 128 128 128 192 c 258,36,-1
 128 1088 l 258,37,38
 128 1152 128 1152 192 1216 c 256,39,40
 256 1280 256 1280 320 1280 c 258,41,-1
 704 1280 l 258,42,43
 768 1280 768 1280 832 1216 c 256,44,45
 896 1152 896 1152 896 1088 c 258,46,-1
 896 976 l 258,47,48
 896 960 896 960 880 960 c 258,49,-1
 784 960 l 258,50,51
 768 960 768 960 768 976 c 258,0,-1
EndSplineSet
Validated: 19457
Layer: 2
SplineSet
768 976 m 258,0,-1
 768 1056 l 258,1,2
 768 1088 768 1088 736 1120 c 256,3,4
 704 1152 704 1152 672 1152 c 258,5,-1
 352 1152 l 258,6,7
 320 1152 320 1152 288 1120 c 256,8,9
 256 1088 256 1088 256 1056 c 258,10,-1
 256 224 l 258,11,12
 256 192 256 192 288 160 c 256,13,14
 320 128 320 128 352 128 c 258,15,-1
 672 128 l 258,16,17
 704 128 704 128 736 160 c 256,18,19
 768 192 768 192 768 224 c 258,20,-1
 768 304 l 258,21,22
 768 320 768 320 784 320 c 258,23,-1
 880 320 l 258,24,25
 896 320 896 320 896 304 c 258,26,-1
 896 192 l 258,27,28
 896 128 896 128 832 64 c 256,29,30
 768 0 768 0 704 0 c 258,31,-1
 320 0 l 258,32,33
 256 0 256 0 192 64 c 256,34,35
 128 128 128 128 128 192 c 258,36,-1
 128 1088 l 258,37,38
 128 1152 128 1152 192 1216 c 256,39,40
 256 1280 256 1280 320 1280 c 258,41,-1
 704 1280 l 258,42,43
 768 1280 768 1280 832 1216 c 256,44,45
 896 1152 896 1152 896 1088 c 258,46,-1
 896 976 l 258,47,48
 896 960 896 960 880 960 c 258,49,-1
 784 960 l 258,50,51
 768 960 768 960 768 976 c 258,0,-1
EndSplineSet
Colour: 6600
EndChar
StartChar: D
Encoding: 68 68 37
Width: 1024
VWidth: 0
Flags: MW
LayerCount: 5
Back
Fore
SplineSet
256 1136 m 262,0,-1
 256 144 l 262,1,2
 256 128 256 128 272 128 c 262,3,-1
 672 128 l 262,4,5
 704 128 704 128 736 160 c 260,6,7
 768 192 768 192 768 224 c 262,8,-1
 768 1056 l 262,9,10
 768 1088 768 1088 736 1120 c 260,11,12
 704 1152 704 1152 672 1152 c 262,13,-1
 272 1152 l 262,14,15
 256 1152 256 1152 256 1136 c 262,0,-1
144 1280 m 262,16,-1
 704 1280 l 262,17,18
 768 1280 768 1280 832 1216 c 260,19,20
 896 1152 896 1152 896 1088 c 262,21,-1
 896 192 l 262,22,23
 896 128 896 128 832 64 c 260,24,25
 768 0 768 0 704 0 c 262,26,-1
 144 0 l 262,27,28
 128 0 128 0 128 16 c 262,29,-1
 128 1264 l 262,30,31
 128 1280 128 1280 144 1280 c 262,16,-1
EndSplineSet
Validated: 19457
Layer: 2
SplineSet
213 1180 m 6,0,-1
 213 100 l 6,1,2
 213 85 213 85 228 85 c 6,3,-1
 640 85 l 2,4,5
 697 85 697 85 754 142 c 128,-1,6
 811 199 811 199 811 256 c 2,7,-1
 811 1024 l 2,8,9
 811 1081 811 1081 754 1138 c 128,-1,10
 697 1195 697 1195 640 1195 c 2,11,-1
 228 1195 l 2,12,13
 213 1195 213 1195 213 1180 c 6,0,-1
142 1280 m 2,14,-1
 640 1280 l 2,15,16
 725 1280 725 1280 810.5 1194.5 c 128,-1,17
 896 1109 896 1109 896 1024 c 2,18,-1
 896 256 l 2,19,20
 896 171 896 171 810.5 85.5 c 128,-1,21
 725 0 725 0 640 0 c 2,22,-1
 142 0 l 2,23,24
 128 0 128 0 128 14 c 2,25,-1
 128 1266 l 2,26,27
 128 1280 128 1280 142 1280 c 2,14,-1
EndSplineSet
Layer: 3
SplineSet
256 1136 m 258,0,-1
 256 144 l 258,1,2
 256 128 256 128 272 128 c 258,3,-1
 688 128 l 258,4,5
 704 128 704 128 720 144 c 2,6,-1
 752 176 l 258,7,8
 768 192 768 192 768 208 c 258,9,-1
 768 1072 l 258,10,11
 768 1088 768 1088 752 1104 c 2,12,13
 720 1136 l 258,14,15
 704 1152 704 1152 688 1152 c 258,16,-1
 272 1152 l 258,17,18
 256 1152 256 1152 256 1136 c 258,0,-1
144 1280 m 258,19,-1
 736 1280 l 258,20,21
 768 1280 768 1280 800 1248 c 258,22,23
 864 1184 l 2,24,25
 896 1152 896 1152 896 1120 c 258,26,-1
 896 160 l 258,27,28
 896 128 896 128 864 96 c 6,29,30
 800 32 l 258,31,32
 768 0 768 0 736 0 c 258,33,-1
 144 0 l 258,34,35
 128 0 128 0 128 16 c 258,36,-1
 128 1264 l 258,37,38
 128 1280 128 1280 144 1280 c 258,19,-1
EndSplineSet
Colour: 6600
EndChar
StartChar: E
Encoding: 69 69 38
Width: 1024
VWidth: 0
Flags: W
HStem: 0 128<256 896> 576 128<256 704> 1152 128<256 896>
VStem: 128 128<128 576 704 1152>
CounterMasks: 1 e0
LayerCount: 3
Back
Fore
SplineSet
144 1280 m 258,0,-1
 880 1280 l 258,1,2
 896 1280 896 1280 896 1264 c 258,3,-1
 896 1168 l 258,4,5
 896 1152 896 1152 880 1152 c 258,6,-1
 272 1152 l 258,7,8
 256 1152 256 1152 256 1136 c 258,9,-1
 256 720 l 258,10,11
 256 704 256 704 272 704 c 258,12,-1
 688 704 l 258,13,14
 704 704 704 704 704 688 c 258,15,-1
 704 592 l 258,16,17
 704 576 704 576 688 576 c 258,18,-1
 272 576 l 258,19,20
 256 576 256 576 256 560 c 258,21,-1
 256 144 l 258,22,23
 256 128 256 128 272 128 c 258,24,-1
 880 128 l 258,25,26
 896 128 896 128 896 112 c 258,27,-1
 896 16 l 258,28,29
 896 0 896 0 880 0 c 258,30,-1
 144 0 l 258,31,32
 128 0 128 0 128 16 c 258,33,-1
 128 1264 l 258,34,35
 128 1280 128 1280 144 1280 c 258,0,-1
EndSplineSet
Validated: 19457
Layer: 2
SplineSet
144 1280 m 258,0,-1
 880 1280 l 258,1,2
 896 1280 896 1280 896 1264 c 258,3,-1
 896 1168 l 258,4,5
 896 1152 896 1152 880 1152 c 258,6,-1
 272 1152 l 258,7,8
 256 1152 256 1152 256 1136 c 258,9,-1
 256 720 l 258,10,11
 256 704 256 704 272 704 c 258,12,-1
 688 704 l 258,13,14
 704 704 704 704 704 688 c 258,15,-1
 704 592 l 258,16,17
 704 576 704 576 688 576 c 258,18,-1
 272 576 l 258,19,20
 256 576 256 576 256 560 c 258,21,-1
 256 144 l 258,22,23
 256 128 256 128 272 128 c 258,24,-1
 880 128 l 258,25,26
 896 128 896 128 896 112 c 258,27,-1
 896 16 l 258,28,29
 896 0 896 0 880 0 c 258,30,-1
 144 0 l 258,31,32
 128 0 128 0 128 16 c 258,33,-1
 128 1264 l 258,34,35
 128 1280 128 1280 144 1280 c 258,0,-1
EndSplineSet
Colour: 6600
EndChar
StartChar: F
Encoding: 70 70 39
Width: 1024
VWidth: 0
Flags: W
HStem: 0 21G<136 248> 576 128<256 704> 1152 128<256 896>
VStem: 128 128<0 576 704 1152>
LayerCount: 3
Back
Fore
SplineSet
144 1280 m 258,0,-1
 880 1280 l 258,1,2
 896 1280 896 1280 896 1264 c 258,3,-1
 896 1168 l 258,4,5
 896 1152 896 1152 880 1152 c 258,6,-1
 272 1152 l 258,7,8
 256 1152 256 1152 256 1136 c 258,9,-1
 256 720 l 258,10,11
 256 704 256 704 272 704 c 258,12,-1
 688 704 l 258,13,14
 704 704 704 704 704 688 c 258,15,-1
 704 592 l 258,16,17
 704 576 704 576 688 576 c 258,18,-1
 272 576 l 258,19,20
 256 576 256 576 256 560 c 258,21,-1
 256 16 l 258,22,23
 256 0 256 0 240 0 c 258,24,-1
 144 0 l 258,25,26
 128 0 128 0 128 16 c 258,27,-1
 128 1264 l 258,28,29
 128 1280 128 1280 144 1280 c 258,0,-1
EndSplineSet
Validated: 19457
Layer: 2
SplineSet
144 1280 m 258,0,-1
 880 1280 l 258,1,2
 896 1280 896 1280 896 1264 c 258,3,-1
 896 1168 l 258,4,5
 896 1152 896 1152 880 1152 c 258,6,-1
 272 1152 l 258,7,8
 256 1152 256 1152 256 1136 c 258,9,-1
 256 720 l 258,10,11
 256 704 256 704 272 704 c 258,12,-1
 688 704 l 258,13,14
 704 704 704 704 704 688 c 258,15,-1
 704 592 l 258,16,17
 704 576 704 576 688 576 c 258,18,-1
 272 576 l 258,19,20
 256 576 256 576 256 560 c 258,21,-1
 256 16 l 258,22,23
 256 0 256 0 240 0 c 258,24,-1
 144 0 l 258,25,26
 128 0 128 0 128 16 c 258,27,-1
 128 1264 l 258,28,29
 128 1280 128 1280 144 1280 c 258,0,-1
EndSplineSet
Colour: 6600
EndChar
StartChar: G
Encoding: 71 71 40
Width: 1024
VWidth: 0
Flags: W
HStem: 0 128<278 746> 576 128<512 768> 1152 128<278 746>
VStem: 128 128<150 1130> 768 128<162 576 960 1118>
CounterMasks: 1 e0
LayerCount: 3
Back
Fore
SplineSet
752 576 m 258,0,-1
 528 576 l 258,1,2
 512 576 512 576 512 592 c 258,3,-1
 512 688 l 258,4,5
 512 704 512 704 528 704 c 258,6,-1
 880 704 l 258,7,8
 896 704 896 704 896 688 c 258,9,-1
 896 192 l 258,10,11
 896 128 896 128 832 64 c 256,12,13
 768 0 768 0 704 0 c 258,14,-1
 320 0 l 258,15,16
 256 0 256 0 192 64 c 256,17,18
 128 128 128 128 128 192 c 258,19,-1
 128 1088 l 258,20,21
 128 1152 128 1152 192 1216 c 256,22,23
 256 1280 256 1280 320 1280 c 258,24,-1
 704 1280 l 258,25,26
 768 1280 768 1280 832 1216 c 256,27,28
 896 1152 896 1152 896 1088 c 258,29,-1
 896 976 l 258,30,31
 896 960 896 960 880 960 c 258,32,-1
 784 960 l 258,33,34
 768 960 768 960 768 976 c 258,35,-1
 768 1056 l 258,36,37
 768 1088 768 1088 736 1120 c 256,38,39
 704 1152 704 1152 672 1152 c 258,40,-1
 352 1152 l 258,41,42
 320 1152 320 1152 288 1120 c 256,43,44
 256 1088 256 1088 256 1056 c 258,45,-1
 256 224 l 258,46,47
 256 192 256 192 288 160 c 256,48,49
 320 128 320 128 352 128 c 258,50,-1
 672 128 l 258,51,52
 704 128 704 128 736 160 c 256,53,54
 768 192 768 192 768 224 c 258,55,-1
 768 560 l 258,56,57
 768 576 768 576 752 576 c 258,0,-1
EndSplineSet
Validated: 19457
Layer: 2
SplineSet
752 576 m 258,0,-1
 528 576 l 258,1,2
 512 576 512 576 512 592 c 258,3,-1
 512 688 l 258,4,5
 512 704 512 704 528 704 c 258,6,-1
 880 704 l 258,7,8
 896 704 896 704 896 688 c 258,9,-1
 896 192 l 258,10,11
 896 128 896 128 832 64 c 256,12,13
 768 0 768 0 704 0 c 258,14,-1
 320 0 l 258,15,16
 256 0 256 0 192 64 c 256,17,18
 128 128 128 128 128 192 c 258,19,-1
 128 1088 l 258,20,21
 128 1152 128 1152 192 1216 c 256,22,23
 256 1280 256 1280 320 1280 c 258,24,-1
 704 1280 l 258,25,26
 768 1280 768 1280 832 1216 c 256,27,28
 896 1152 896 1152 896 1088 c 258,29,-1
 896 976 l 258,30,31
 896 960 896 960 880 960 c 258,32,-1
 784 960 l 258,33,34
 768 960 768 960 768 976 c 258,35,-1
 768 1056 l 258,36,37
 768 1088 768 1088 736 1120 c 256,38,39
 704 1152 704 1152 672 1152 c 258,40,-1
 352 1152 l 258,41,42
 320 1152 320 1152 288 1120 c 256,43,44
 256 1088 256 1088 256 1056 c 258,45,-1
 256 224 l 258,46,47
 256 192 256 192 288 160 c 256,48,49
 320 128 320 128 352 128 c 258,50,-1
 672 128 l 258,51,52
 704 128 704 128 736 160 c 256,53,54
 768 192 768 192 768 224 c 258,55,-1
 768 560 l 258,56,57
 768 576 768 576 752 576 c 258,0,-1
EndSplineSet
Colour: 6600
EndChar
StartChar: H
Encoding: 72 72 41
Width: 1024
VWidth: 0
Flags: W
HStem: 0 21G<136 248 776 888> 576 128<256 768> 1260 20G<136 248 776 888>
VStem: 128 128<0 576 704 1280> 768 128<0 576 704 1280>
LayerCount: 3
Back
Fore
SplineSet
144 1280 m 258,0,-1
 240 1280 l 258,1,2
 256 1280 256 1280 256 1264 c 258,3,-1
 256 720 l 258,4,5
 256 704 256 704 272 704 c 258,6,-1
 752 704 l 258,7,8
 768 704 768 704 768 720 c 258,9,-1
 768 1264 l 258,10,11
 768 1280 768 1280 784 1280 c 258,12,-1
 880 1280 l 258,13,14
 896 1280 896 1280 896 1264 c 258,15,-1
 896 16 l 258,16,17
 896 0 896 0 880 0 c 258,18,-1
 784 0 l 258,19,20
 768 0 768 0 768 16 c 258,21,-1
 768 560 l 258,22,23
 768 576 768 576 752 576 c 258,24,-1
 272 576 l 258,25,26
 256 576 256 576 256 560 c 258,27,-1
 256 16 l 258,28,29
 256 0 256 0 240 0 c 258,30,-1
 144 0 l 258,31,32
 128 0 128 0 128 16 c 258,33,-1
 128 1264 l 258,34,35
 128 1280 128 1280 144 1280 c 258,0,-1
EndSplineSet
Validated: 19457
Layer: 2
SplineSet
144 1280 m 258,0,-1
 240 1280 l 258,1,2
 256 1280 256 1280 256 1264 c 258,3,-1
 256 720 l 258,4,5
 256 704 256 704 272 704 c 258,6,-1
 752 704 l 258,7,8
 768 704 768 704 768 720 c 258,9,-1
 768 1264 l 258,10,11
 768 1280 768 1280 784 1280 c 258,12,-1
 880 1280 l 258,13,14
 896 1280 896 1280 896 1264 c 258,15,-1
 896 16 l 258,16,17
 896 0 896 0 880 0 c 258,18,-1
 784 0 l 258,19,20
 768 0 768 0 768 16 c 258,21,-1
 768 560 l 258,22,23
 768 576 768 576 752 576 c 258,24,-1
 272 576 l 258,25,26
 256 576 256 576 256 560 c 258,27,-1
 256 16 l 258,28,29
 256 0 256 0 240 0 c 258,30,-1
 144 0 l 258,31,32
 128 0 128 0 128 16 c 258,33,-1
 128 1264 l 258,34,35
 128 1280 128 1280 144 1280 c 258,0,-1
EndSplineSet
Colour: 6600
EndChar
StartChar: I
Encoding: 73 73 42
Width: 1024
VWidth: 0
Flags: W
HStem: 0 128<320 448 576 704> 1152 128<320 448 576 704>
VStem: 320 384<0 128 1152 1280> 448 128<128 1152>
LayerCount: 3
Back
Fore
SplineSet
336 1280 m 258,0,-1
 688 1280 l 258,1,2
 704 1280 704 1280 704 1264 c 258,3,-1
 704 1168 l 258,4,5
 704 1152 704 1152 688 1152 c 258,6,-1
 592 1152 l 258,7,8
 576 1152 576 1152 576 1136 c 258,9,-1
 576 144 l 258,10,11
 576 128 576 128 592 128 c 258,12,-1
 688 128 l 258,13,14
 704 128 704 128 704 112 c 258,15,-1
 704 16 l 258,16,17
 704 0 704 0 688 0 c 258,18,-1
 336 0 l 258,19,20
 320 0 320 0 320 16 c 258,21,-1
 320 112 l 258,22,23
 320 128 320 128 336 128 c 258,24,-1
 432 128 l 258,25,26
 448 128 448 128 448 144 c 258,27,-1
 448 1136 l 258,28,29
 448 1152 448 1152 432 1152 c 258,30,-1
 336 1152 l 258,31,32
 320 1152 320 1152 320 1168 c 258,33,-1
 320 1264 l 258,34,35
 320 1280 320 1280 336 1280 c 258,0,-1
EndSplineSet
Validated: 19457
Layer: 2
SplineSet
336 1280 m 258,0,-1
 688 1280 l 258,1,2
 704 1280 704 1280 704 1264 c 258,3,-1
 704 1168 l 258,4,5
 704 1152 704 1152 688 1152 c 258,6,-1
 592 1152 l 258,7,8
 576 1152 576 1152 576 1136 c 258,9,-1
 576 144 l 258,10,11
 576 128 576 128 592 128 c 258,12,-1
 688 128 l 258,13,14
 704 128 704 128 704 112 c 258,15,-1
 704 16 l 258,16,17
 704 0 704 0 688 0 c 258,18,-1
 336 0 l 258,19,20
 320 0 320 0 320 16 c 258,21,-1
 320 112 l 258,22,23
 320 128 320 128 336 128 c 258,24,-1
 432 128 l 258,25,26
 448 128 448 128 448 144 c 258,27,-1
 448 1136 l 258,28,29
 448 1152 448 1152 432 1152 c 258,30,-1
 336 1152 l 258,31,32
 320 1152 320 1152 320 1168 c 258,33,-1
 320 1264 l 258,34,35
 320 1280 320 1280 336 1280 c 258,0,-1
EndSplineSet
Colour: 6600
EndChar
StartChar: J
Encoding: 74 74 43
Width: 1024
VWidth: 0
Flags: W
HStem: 0 128<278 682> 1152 128<576 704 832 960>
VStem: 128 128<150 384> 704 128<162 1152>
LayerCount: 3
Back
Fore
SplineSet
960 1264 m 258,0,-1
 960 1168 l 258,1,2
 960 1152 960 1152 944 1152 c 258,3,-1
 848 1152 l 258,4,5
 832 1152 832 1152 832 1136 c 258,6,-1
 832 192 l 258,7,8
 832 128 832 128 768 64 c 256,9,10
 704 0 704 0 640 0 c 258,11,-1
 320 0 l 258,12,13
 256 0 256 0 192 64 c 256,14,15
 128 128 128 128 128 192 c 258,16,-1
 128 368 l 258,17,18
 128 384 128 384 144 384 c 258,19,-1
 240 384 l 258,20,21
 256 384 256 384 256 368 c 258,22,-1
 256 224 l 258,23,24
 256 192 256 192 288 160 c 256,25,26
 320 128 320 128 352 128 c 258,27,-1
 608 128 l 258,28,29
 640 128 640 128 672 160 c 256,30,31
 704 192 704 192 704 224 c 258,32,-1
 704 1136 l 258,33,34
 704 1152 704 1152 688 1152 c 258,35,-1
 592 1152 l 258,36,37
 576 1152 576 1152 576 1168 c 258,38,-1
 576 1264 l 258,39,40
 576 1280 576 1280 592 1280 c 258,41,-1
 944 1280 l 258,42,43
 960 1280 960 1280 960 1264 c 258,0,-1
EndSplineSet
Validated: 19457
Layer: 2
SplineSet
960 1264 m 258,0,-1
 960 1168 l 258,1,2
 960 1152 960 1152 944 1152 c 258,3,-1
 848 1152 l 258,4,5
 832 1152 832 1152 832 1136 c 258,6,-1
 832 192 l 258,7,8
 832 128 832 128 768 64 c 256,9,10
 704 0 704 0 640 0 c 258,11,-1
 320 0 l 258,12,13
 256 0 256 0 192 64 c 256,14,15
 128 128 128 128 128 192 c 258,16,-1
 128 368 l 258,17,18
 128 384 128 384 144 384 c 258,19,-1
 240 384 l 258,20,21
 256 384 256 384 256 368 c 258,22,-1
 256 224 l 258,23,24
 256 192 256 192 288 160 c 256,25,26
 320 128 320 128 352 128 c 258,27,-1
 608 128 l 258,28,29
 640 128 640 128 672 160 c 256,30,31
 704 192 704 192 704 224 c 258,32,-1
 704 1136 l 258,33,34
 704 1152 704 1152 688 1152 c 258,35,-1
 592 1152 l 258,36,37
 576 1152 576 1152 576 1168 c 258,38,-1
 576 1264 l 258,39,40
 576 1280 576 1280 592 1280 c 258,41,-1
 944 1280 l 258,42,43
 960 1280 960 1280 960 1264 c 258,0,-1
EndSplineSet
Colour: 6600
EndChar
StartChar: K
Encoding: 75 75 44
Width: 1024
VWidth: 0
Flags: W
HStem: 0 21G<136 248 776 888> 1260 20G<136 248 776 888>
VStem: 128 256<566 714> 128 128<0 511.996 768.004 1280> 768 128<0 76 1204 1280>
DStem2: 304 784 400 688 0.707107 0.707107<-33.5848 744.23> 816 176 752 48 0.707107 -0.707107<-621.898 155.917>
LayerCount: 3
Back
Fore
SplineSet
144 1280 m 258,0,-1
 240 1280 l 258,1,2
 256 1280 256 1280 256 1264 c 258,3,-1
 256 784 l 258,4,5
 256 768 256 768 272 768 c 280,6,7
 288 768 288 768 304 784 c 258,8,-1
 752 1232 l 258,9,10
 768 1248 768 1248 768 1264 c 280,11,12
 768 1280 768 1280 784 1280 c 258,13,-1
 880 1280 l 258,14,15
 896 1280 896 1280 896 1264 c 280,16,17
 896 1184 896 1184 816 1104 c 258,18,-1
 400 688 l 258,19,20
 384 672 384 672 384 656 c 258,21,-1
 384 624 l 258,22,23
 384 608 384 608 400 592 c 258,24,-1
 816 176 l 258,25,26
 896 96 896 96 896 16 c 256,27,28
 896 0 896 0 880 0 c 258,29,-1
 784 0 l 258,30,31
 768 0 768 0 768 16 c 280,32,33
 768 32 768 32 752 48 c 258,34,-1
 304 496 l 258,35,36
 288 512 288 512 272 512 c 280,37,38
 256 512 256 512 256 496 c 258,39,-1
 256 16 l 258,40,41
 256 0 256 0 240 0 c 258,42,-1
 144 0 l 258,43,44
 128 0 128 0 128 16 c 258,45,-1
 128 1264 l 258,46,47
 128 1280 128 1280 144 1280 c 258,0,-1
EndSplineSet
Validated: 19457
Layer: 2
SplineSet
144 1280 m 258,0,-1
 240 1280 l 258,1,2
 256 1280 256 1280 256 1264 c 258,3,-1
 256 784 l 258,4,5
 256 768 256 768 272 768 c 280,6,7
 288 768 288 768 304 784 c 258,8,-1
 752 1232 l 258,9,10
 768 1248 768 1248 768 1264 c 280,11,12
 768 1280 768 1280 784 1280 c 258,13,-1
 880 1280 l 258,14,15
 896 1280 896 1280 896 1264 c 280,16,17
 896 1184 896 1184 816 1104 c 258,18,-1
 400 688 l 258,19,20
 384 672 384 672 384 656 c 258,21,-1
 384 624 l 258,22,23
 384 608 384 608 400 592 c 258,24,-1
 816 176 l 258,25,26
 896 96 896 96 896 16 c 256,27,28
 896 0 896 0 880 0 c 258,29,-1
 784 0 l 258,30,31
 768 0 768 0 768 16 c 280,32,33
 768 32 768 32 752 48 c 258,34,-1
 304 496 l 258,35,36
 288 512 288 512 272 512 c 280,37,38
 256 512 256 512 256 496 c 258,39,-1
 256 16 l 258,40,41
 256 0 256 0 240 0 c 258,42,-1
 144 0 l 258,43,44
 128 0 128 0 128 16 c 258,45,-1
 128 1264 l 258,46,47
 128 1280 128 1280 144 1280 c 258,0,-1
EndSplineSet
Colour: 6600
EndChar
StartChar: L
Encoding: 76 76 45
Width: 1024
VWidth: 0
Flags: MW
LayerCount: 4
Back
Fore
SplineSet
128 16 m 262,0,-1
 128 1264 l 262,1,2
 128 1280 128 1280 144 1280 c 262,3,-1
 240 1280 l 262,4,5
 256 1280 256 1280 256 1264 c 262,6,-1
 256 144 l 262,7,8
 256 128 256 128 272 128 c 262,9,-1
 880 128 l 262,10,11
 896 128 896 128 896 112 c 262,12,-1
 896 16 l 262,13,14
 896 0 896 0 880 0 c 262,15,-1
 144 0 l 262,16,17
 128 0 128 0 128 16 c 262,0,-1
EndSplineSet
Validated: 19457
Layer: 2
SplineSet
128 14 m 2,0,-1
 128 1266 l 2,1,2
 128 1280 128 1280 142 1280 c 2,3,-1
 199 1280 l 2,4,5
 213 1280 213 1280 213 1266 c 2,6,-1
 213 100 l 6,7,8
 213 85 213 85 228 85 c 2,9,-1
 882 85 l 2,10,11
 896 85 896 85 896 71 c 2,12,-1
 896 14 l 2,13,14
 896 0 896 0 882 0 c 2,15,-1
 142 0 l 2,16,17
 128 0 128 0 128 14 c 2,0,-1
EndSplineSet
Layer: 3
SplineSet
128 16 m 2,0,-1
 128 1264 l 2,1,2
 128 1280 128 1280 144 1280 c 2,3,-1
 240 1280 l 2,4,5
 256 1280 256 1280 256 1264 c 6,6,-1
 256 144 l 2,7,8
 256 128 256 128 272 128 c 2,9,-1
 880 128 l 2,10,11
 896 128 896 128 896 112 c 2,12,-1
 896 16 l 2,13,14
 896 0 896 0 880 0 c 2,15,-1
 144 0 l 2,16,17
 128 0 128 0 128 16 c 2,0,-1
EndSplineSet
Colour: 8000
EndChar
StartChar: M
Encoding: 77 77 46
Width: 1024
VWidth: 0
Flags: W
HStem: 0 21G<136 248 776 888> 1260 20G<136 248 776 888>
VStem: 128 128<0 783.996 1041.06 1280> 768 128<0 783.996 1041.06 1280>
DStem2: 480 784 304 768 0.707107 -0.707107<-146.722 45.2548> 528 768 720 768 0.707107 0.707107<-22.6274 169.349>
LayerCount: 3
Back
Fore
SplineSet
496 576 m 258,0,-1
 304 768 l 258,1,2
 288 784 288 784 272 784 c 256,3,4
 256 784 256 784 256 768 c 258,5,-1
 256 16 l 258,6,7
 256 0 256 0 240 0 c 258,8,-1
 144 0 l 258,9,10
 128 0 128 0 128 16 c 258,11,-1
 128 1264 l 258,12,13
 128 1280 128 1280 144 1280 c 258,14,-1
 240 1280 l 258,15,16
 256 1280 256 1280 256 1264 c 258,17,-1
 256 1248 l 258,18,19
 256 1008 256 1008 480 784 c 258,20,-1
 496 768 l 258,21,22
 512 752 512 752 528 768 c 258,23,-1
 544 784 l 258,24,25
 768 1008 768 1008 768 1248 c 258,26,27
 768 1264 l 258,28,29
 768 1280 768 1280 784 1280 c 258,30,-1
 880 1280 l 258,31,32
 896 1280 896 1280 896 1264 c 258,33,-1
 896 16 l 258,34,35
 896 0 896 0 880 0 c 258,36,-1
 784 0 l 258,37,38
 768 0 768 0 768 16 c 258,39,-1
 768 768 l 258,40,41
 768 784 768 784 752 784 c 256,42,43
 736 784 736 784 720 768 c 258,44,-1
 528 576 l 258,45,46
 512 560 512 560 496 576 c 258,0,-1
EndSplineSet
Validated: 19457
Layer: 2
SplineSet
496 576 m 258,0,-1
 304 768 l 258,1,2
 288 784 288 784 272 784 c 256,3,4
 256 784 256 784 256 768 c 258,5,-1
 256 16 l 258,6,7
 256 0 256 0 240 0 c 258,8,-1
 144 0 l 258,9,10
 128 0 128 0 128 16 c 258,11,-1
 128 1264 l 258,12,13
 128 1280 128 1280 144 1280 c 258,14,-1
 240 1280 l 258,15,16
 256 1280 256 1280 256 1264 c 258,17,-1
 256 1248 l 258,18,19
 256 1008 256 1008 480 784 c 258,20,-1
 496 768 l 258,21,22
 512 752 512 752 528 768 c 258,23,-1
 544 784 l 258,24,25
 768 1008 768 1008 768 1248 c 258,26,27
 768 1264 l 258,28,29
 768 1280 768 1280 784 1280 c 258,30,-1
 880 1280 l 258,31,32
 896 1280 896 1280 896 1264 c 258,33,-1
 896 16 l 258,34,35
 896 0 896 0 880 0 c 258,36,-1
 784 0 l 258,37,38
 768 0 768 0 768 16 c 258,39,-1
 768 768 l 258,40,41
 768 784 768 784 752 784 c 256,42,43
 736 784 736 784 720 768 c 258,44,-1
 528 576 l 258,45,46
 512 560 512 560 496 576 c 258,0,-1
EndSplineSet
Colour: 6600
EndChar
StartChar: N
Encoding: 78 78 47
Width: 1024
VWidth: 0
Flags: W
HStem: 0 21G<136 248 776 888> 1260 20G<136 248 776 888>
VStem: 128 128<0 767.996 1040 1280> 768 128<0 240 512.004 1280>
DStem2: 512 736 304 752 0.707107 -0.707107<-189.328 325.092>
LayerCount: 3
Back
Fore
SplineSet
144 1280 m 258,0,-1
 240 1280 l 258,1,2
 256 1280 256 1280 256 1264 c 258,3,4
 256 1248 l 258,5,6
 256 992 256 992 512 736 c 258,7,-1
 720 528 l 258,8,9
 736 512 736 512 752 512 c 256,10,11
 768 512 768 512 768 528 c 258,12,-1
 768 1264 l 258,13,14
 768 1280 768 1280 784 1280 c 258,15,-1
 880 1280 l 258,16,17
 896 1280 896 1280 896 1264 c 258,18,-1
 896 16 l 258,19,20
 896 0 896 0 880 0 c 258,21,-1
 784 0 l 258,22,23
 768 0 768 0 768 16 c 258,24,25
 768 32 l 258,26,27
 768 288 768 288 512 544 c 258,28,-1
 304 752 l 258,29,30
 288 768 288 768 272 768 c 256,31,32
 256 768 256 768 256 752 c 258,33,-1
 256 16 l 258,34,35
 256 0 256 0 240 0 c 258,36,-1
 144 0 l 258,37,38
 128 0 128 0 128 16 c 258,39,-1
 128 1264 l 258,40,41
 128 1280 128 1280 144 1280 c 258,0,-1
EndSplineSet
Validated: 19457
Layer: 2
SplineSet
144 1280 m 258,0,-1
 240 1280 l 258,1,2
 256 1280 256 1280 256 1264 c 258,3,4
 256 1248 l 258,5,6
 256 992 256 992 512 736 c 258,7,-1
 720 528 l 258,8,9
 736 512 736 512 752 512 c 256,10,11
 768 512 768 512 768 528 c 258,12,-1
 768 1264 l 258,13,14
 768 1280 768 1280 784 1280 c 258,15,-1
 880 1280 l 258,16,17
 896 1280 896 1280 896 1264 c 258,18,-1
 896 16 l 258,19,20
 896 0 896 0 880 0 c 258,21,-1
 784 0 l 258,22,23
 768 0 768 0 768 16 c 258,24,25
 768 32 l 258,26,27
 768 288 768 288 512 544 c 258,28,-1
 304 752 l 258,29,30
 288 768 288 768 272 768 c 256,31,32
 256 768 256 768 256 752 c 258,33,-1
 256 16 l 258,34,35
 256 0 256 0 240 0 c 258,36,-1
 144 0 l 258,37,38
 128 0 128 0 128 16 c 258,39,-1
 128 1264 l 258,40,41
 128 1280 128 1280 144 1280 c 258,0,-1
EndSplineSet
Colour: 6600
EndChar
StartChar: O
Encoding: 79 79 48
Width: 1024
VWidth: 0
Flags: W
HStem: 0 128<278 746> 1152 128<278 746>
VStem: 128 128<150 1130> 768 128<162 1118>
LayerCount: 3
Back
Fore
SplineSet
256 224 m 258,0,1
 256 192 256 192 288 160 c 256,2,3
 320 128 320 128 352 128 c 258,4,-1
 672 128 l 258,5,6
 704 128 704 128 736 160 c 256,7,8
 768 192 768 192 768 224 c 258,9,-1
 768 1056 l 258,10,11
 768 1088 768 1088 736 1120 c 256,12,13
 704 1152 704 1152 672 1152 c 258,14,-1
 352 1152 l 258,15,16
 320 1152 320 1152 288 1120 c 256,17,18
 256 1088 256 1088 256 1056 c 258,19,-1
 256 224 l 258,0,1
128 192 m 258,20,-1
 128 1088 l 258,21,22
 128 1152 128 1152 192 1216 c 256,23,24
 256 1280 256 1280 320 1280 c 258,25,-1
 704 1280 l 258,26,27
 768 1280 768 1280 832 1216 c 256,28,29
 896 1152 896 1152 896 1088 c 258,30,-1
 896 192 l 258,31,32
 896 128 896 128 832 64 c 256,33,34
 768 0 768 0 704 0 c 258,35,-1
 320 0 l 258,36,37
 256 0 256 0 192 64 c 256,38,39
 128 128 128 128 128 192 c 258,20,-1
EndSplineSet
Validated: 19457
Layer: 2
SplineSet
256 224 m 258,0,1
 256 192 256 192 288 160 c 256,2,3
 320 128 320 128 352 128 c 258,4,-1
 672 128 l 258,5,6
 704 128 704 128 736 160 c 256,7,8
 768 192 768 192 768 224 c 258,9,-1
 768 1056 l 258,10,11
 768 1088 768 1088 736 1120 c 256,12,13
 704 1152 704 1152 672 1152 c 258,14,-1
 352 1152 l 258,15,16
 320 1152 320 1152 288 1120 c 256,17,18
 256 1088 256 1088 256 1056 c 258,19,-1
 256 224 l 258,0,1
128 192 m 258,20,-1
 128 1088 l 258,21,22
 128 1152 128 1152 192 1216 c 256,23,24
 256 1280 256 1280 320 1280 c 258,25,-1
 704 1280 l 258,26,27
 768 1280 768 1280 832 1216 c 256,28,29
 896 1152 896 1152 896 1088 c 258,30,-1
 896 192 l 258,31,32
 896 128 896 128 832 64 c 256,33,34
 768 0 768 0 704 0 c 258,35,-1
 320 0 l 258,36,37
 256 0 256 0 192 64 c 256,38,39
 128 128 128 128 128 192 c 258,20,-1
EndSplineSet
Colour: 6600
EndChar
StartChar: P
Encoding: 80 80 49
Width: 1024
VWidth: 0
Flags: W
HStem: 0 21G<136 248> 512 128<256 746> 1152 128<256 746>
VStem: 128 128<0 512 640 1152> 768 128<674 1118>
LayerCount: 3
Back
Fore
SplineSet
272 640 m 282,0,-1
 672 640 l 258,1,2
 704 640 704 640 736 672 c 256,3,4
 768 704 768 704 768 736 c 258,5,-1
 768 1056 l 258,6,7
 768 1088 768 1088 736 1120 c 256,8,9
 704 1152 704 1152 672 1152 c 258,10,-1
 272 1152 l 258,11,12
 256 1152 256 1152 256 1136 c 258,13,-1
 256 656 l 258,14,15
 256 640 256 640 272 640 c 282,0,-1
128 16 m 258,16,-1
 128 1264 l 258,17,18
 128 1280 128 1280 144 1280 c 258,19,-1
 704 1280 l 258,20,21
 768 1280 768 1280 832 1216 c 256,22,23
 896 1152 896 1152 896 1088 c 258,24,-1
 896 704 l 258,25,26
 896 640 896 640 832 576 c 256,27,28
 768 512 768 512 704 512 c 258,29,-1
 272 512 l 258,30,31
 256 512 256 512 256 496 c 258,32,-1
 256 16 l 258,33,34
 256 0 256 0 240 0 c 258,35,-1
 144 0 l 258,36,37
 128 0 128 0 128 16 c 258,16,-1
EndSplineSet
Validated: 19457
Layer: 2
SplineSet
272 640 m 282,0,-1
 672 640 l 258,1,2
 704 640 704 640 736 672 c 256,3,4
 768 704 768 704 768 736 c 258,5,-1
 768 1056 l 258,6,7
 768 1088 768 1088 736 1120 c 256,8,9
 704 1152 704 1152 672 1152 c 258,10,-1
 272 1152 l 258,11,12
 256 1152 256 1152 256 1136 c 258,13,-1
 256 656 l 258,14,15
 256 640 256 640 272 640 c 282,0,-1
128 16 m 258,16,-1
 128 1264 l 258,17,18
 128 1280 128 1280 144 1280 c 258,19,-1
 704 1280 l 258,20,21
 768 1280 768 1280 832 1216 c 256,22,23
 896 1152 896 1152 896 1088 c 258,24,-1
 896 704 l 258,25,26
 896 640 896 640 832 576 c 256,27,28
 768 512 768 512 704 512 c 258,29,-1
 272 512 l 258,30,31
 256 512 256 512 256 496 c 258,32,-1
 256 16 l 258,33,34
 256 0 256 0 240 0 c 258,35,-1
 144 0 l 258,36,37
 128 0 128 0 128 16 c 258,16,-1
EndSplineSet
Colour: 6600
EndChar
StartChar: Q
Encoding: 81 81 50
Width: 1024
VWidth: 0
Flags: W
HStem: 0 256<416 432 480 588.5> 0 128<278 479.996 627.5 684.5> 1152 128<278 746>
VStem: 128 128<150 1130> 768 128<162 1118>
DStem2: 656 144 432 208 0.707107 -0.707107<-202.586 -124.807 181.019 315.723>
LayerCount: 3
Back
Fore
SplineSet
128 192 m 258,0,-1
 128 1088 l 258,1,2
 128 1152 128 1152 192 1216 c 256,3,4
 256 1280 256 1280 320 1280 c 258,5,-1
 704 1280 l 258,6,7
 768 1280 768 1280 832 1216 c 256,8,9
 896 1152 896 1152 896 1088 c 258,10,-1
 896 192 l 258,11,12
 896 128 896 128 832 64 c 258,13,-1
 800 32 l 282,14,15
 784 16 784 16 800 0 c 282,16,-1
 880 -80 l 258,17,18
 896 -96 896 -96 896 -112 c 256,19,20
 896 -128 896 -128 880 -128 c 258,21,-1
 784 -128 l 258,22,23
 768 -128 768 -128 752 -112 c 258,24,-1
 656 -16 l 258,25,26
 640 0 640 0 624 0 c 258,27,-1
 320 0 l 258,28,29
 256 0 256 0 192 64 c 256,30,31
 128 128 128 128 128 192 c 258,0,-1
256 1056 m 258,32,-1
 256 224 l 258,33,34
 256 192 256 192 288 160 c 256,35,36
 320 128 320 128 352 128 c 258,37,-1
 464 128 l 258,38,39
 480 128 480 128 480 144 c 256,40,41
 480 160 480 160 464 176 c 257,42,-1
 432 208 l 258,43,44
 416 224 416 224 416 240 c 256,45,46
 416 256 416 256 432 256 c 258,47,-1
 528 256 l 258,48,49
 544 256 544 256 560 240 c 258,50,-1
 656 144 l 258,51,52
 672 128 672 128 688 128 c 280,53,54
 704 128 704 128 720 144 c 258,55,-1
 736 160 l 258,56,57
 768 192 768 192 768 224 c 258,58,-1
 768 1056 l 258,59,60
 768 1088 768 1088 736 1120 c 256,61,62
 704 1152 704 1152 672 1152 c 258,63,-1
 352 1152 l 258,64,65
 320 1152 320 1152 288 1120 c 256,66,67
 256 1088 256 1088 256 1056 c 258,32,-1
EndSplineSet
Validated: 19457
Layer: 2
SplineSet
128 192 m 258,0,-1
 128 1088 l 258,1,2
 128 1152 128 1152 192 1216 c 256,3,4
 256 1280 256 1280 320 1280 c 258,5,-1
 704 1280 l 258,6,7
 768 1280 768 1280 832 1216 c 256,8,9
 896 1152 896 1152 896 1088 c 258,10,-1
 896 192 l 258,11,12
 896 128 896 128 832 64 c 258,13,-1
 800 32 l 282,14,15
 784 16 784 16 800 0 c 282,16,-1
 880 -80 l 258,17,18
 896 -96 896 -96 896 -112 c 256,19,20
 896 -128 896 -128 880 -128 c 258,21,-1
 784 -128 l 258,22,23
 768 -128 768 -128 752 -112 c 258,24,-1
 656 -16 l 258,25,26
 640 0 640 0 624 0 c 258,27,-1
 320 0 l 258,28,29
 256 0 256 0 192 64 c 256,30,31
 128 128 128 128 128 192 c 258,0,-1
256 1056 m 258,32,-1
 256 224 l 258,33,34
 256 192 256 192 288 160 c 256,35,36
 320 128 320 128 352 128 c 258,37,-1
 464 128 l 258,38,39
 480 128 480 128 480 144 c 256,40,41
 480 160 480 160 464 176 c 257,42,-1
 432 208 l 258,43,44
 416 224 416 224 416 240 c 256,45,46
 416 256 416 256 432 256 c 258,47,-1
 528 256 l 258,48,49
 544 256 544 256 560 240 c 258,50,-1
 656 144 l 258,51,52
 672 128 672 128 688 128 c 280,53,54
 704 128 704 128 720 144 c 258,55,-1
 736 160 l 258,56,57
 768 192 768 192 768 224 c 258,58,-1
 768 1056 l 258,59,60
 768 1088 768 1088 736 1120 c 256,61,62
 704 1152 704 1152 672 1152 c 258,63,-1
 352 1152 l 258,64,65
 320 1152 320 1152 288 1120 c 256,66,67
 256 1088 256 1088 256 1056 c 258,32,-1
EndSplineSet
Colour: 6600
EndChar
StartChar: R
Encoding: 82 82 51
Width: 1024
VWidth: 0
Flags: W
HStem: 0 21G<136 248 776 888> 512 128<256 332 512.004 746> 1152 128<256 746>
VStem: 128 128<0 511.996 640 1152> 768 128<0 76 674 1118>
DStem2: 832 160 752 48 0.707107 -0.707107<-463.506 134.339>
LayerCount: 3
Back
Fore
SplineSet
272 640 m 258,0,-1
 672 640 l 258,1,2
 704 640 704 640 736 672 c 256,3,4
 768 704 768 704 768 736 c 258,5,-1
 768 1056 l 258,6,7
 768 1088 768 1088 736 1120 c 256,8,9
 704 1152 704 1152 672 1152 c 258,10,-1
 272 1152 l 258,11,12
 256 1152 256 1152 256 1136 c 258,13,-1
 256 656 l 258,14,15
 256 640 256 640 272 640 c 258,0,-1
128 16 m 258,16,-1
 128 1264 l 258,17,18
 128 1280 128 1280 144 1280 c 258,19,-1
 704 1280 l 258,20,21
 768 1280 768 1280 832 1216 c 256,22,23
 896 1152 896 1152 896 1088 c 258,24,-1
 896 704 l 258,25,26
 896 640 896 640 832 576 c 256,27,28
 768 512 768 512 704 512 c 258,29,-1
 528 512 l 258,30,31
 512 512 512 512 512 496 c 256,32,33
 512 480 512 480 528 464 c 258,34,-1
 832 160 l 258,35,36
 896 96 896 96 896 32 c 258,37,-1
 896 16 l 258,38,39
 896 0 896 0 880 0 c 258,40,-1
 784 0 l 258,41,42
 768 0 768 0 768 16 c 280,43,44
 768 32 768 32 752 48 c 258,45,-1
 304 496 l 258,46,47
 288 512 288 512 272 512 c 256,48,49
 256 512 256 512 256 496 c 258,50,-1
 256 16 l 258,51,52
 256 0 256 0 240 0 c 258,53,-1
 144 0 l 258,54,55
 128 0 128 0 128 16 c 258,16,-1
EndSplineSet
Validated: 19457
Layer: 2
SplineSet
272 640 m 258,0,-1
 672 640 l 258,1,2
 704 640 704 640 736 672 c 256,3,4
 768 704 768 704 768 736 c 258,5,-1
 768 1056 l 258,6,7
 768 1088 768 1088 736 1120 c 256,8,9
 704 1152 704 1152 672 1152 c 258,10,-1
 272 1152 l 258,11,12
 256 1152 256 1152 256 1136 c 258,13,-1
 256 656 l 258,14,15
 256 640 256 640 272 640 c 258,0,-1
128 16 m 258,16,-1
 128 1264 l 258,17,18
 128 1280 128 1280 144 1280 c 258,19,-1
 704 1280 l 258,20,21
 768 1280 768 1280 832 1216 c 256,22,23
 896 1152 896 1152 896 1088 c 258,24,-1
 896 704 l 258,25,26
 896 640 896 640 832 576 c 256,27,28
 768 512 768 512 704 512 c 258,29,-1
 528 512 l 258,30,31
 512 512 512 512 512 496 c 256,32,33
 512 480 512 480 528 464 c 258,34,-1
 832 160 l 258,35,36
 896 96 896 96 896 32 c 258,37,-1
 896 16 l 258,38,39
 896 0 896 0 880 0 c 258,40,-1
 784 0 l 258,41,42
 768 0 768 0 768 16 c 280,43,44
 768 32 768 32 752 48 c 258,45,-1
 304 496 l 258,46,47
 288 512 288 512 272 512 c 256,48,49
 256 512 256 512 256 496 c 258,50,-1
 256 16 l 258,51,52
 256 0 256 0 240 0 c 258,53,-1
 144 0 l 258,54,55
 128 0 128 0 128 16 c 258,16,-1
EndSplineSet
Colour: 6600
EndChar
StartChar: S
Encoding: 83 83 52
Width: 1024
VWidth: 0
Flags: W
HStem: 0 128<278 746> 576 128<278 746> 1152 128<278 746>
VStem: 128 128<150 320 726 1130> 768 128<162 542 960 1118>
CounterMasks: 1 e0
LayerCount: 3
Back
Fore
SplineSet
880 960 m 258,0,-1
 784 960 l 258,1,2
 768 960 768 960 768 976 c 258,3,4
 768 1056 l 258,5,6
 768 1088 768 1088 736 1120 c 256,7,8
 704 1152 704 1152 672 1152 c 258,9,-1
 352 1152 l 258,10,11
 320 1152 320 1152 288 1120 c 256,12,13
 256 1088 256 1088 256 1056 c 258,14,-1
 256 800 l 258,15,16
 256 768 256 768 288 736 c 256,17,18
 320 704 320 704 352 704 c 258,19,-1
 704 704 l 258,20,21
 768 704 768 704 832 640 c 256,22,23
 896 576 896 576 896 512 c 258,24,-1
 896 192 l 258,25,26
 896 128 896 128 832 64 c 256,27,28
 768 0 768 0 704 0 c 258,29,-1
 320 0 l 258,30,31
 256 0 256 0 192 64 c 256,32,33
 128 128 128 128 128 192 c 258,34,-1
 128 304 l 258,35,36
 128 320 128 320 144 320 c 258,37,-1
 240 320 l 258,38,39
 256 320 256 320 256 304 c 258,40,-1
 256 224 l 258,41,42
 256 192 256 192 288 160 c 256,43,44
 320 128 320 128 352 128 c 258,45,-1
 672 128 l 258,46,47
 704 128 704 128 736 160 c 256,48,49
 768 192 768 192 768 224 c 258,50,-1
 768 480 l 258,51,52
 768 512 768 512 736 544 c 256,53,54
 704 576 704 576 672 576 c 258,55,-1
 320 576 l 258,56,57
 256 576 256 576 192 640 c 256,58,59
 128 704 128 704 128 768 c 258,60,-1
 128 1088 l 258,61,62
 128 1152 128 1152 192 1216 c 256,63,64
 256 1280 256 1280 320 1280 c 258,65,-1
 704 1280 l 258,66,67
 768 1280 768 1280 832 1216 c 256,68,69
 896 1152 896 1152 896 1088 c 258,70,-1
 896 976 l 258,71,72
 896 960 896 960 880 960 c 258,0,-1
EndSplineSet
Validated: 19457
Layer: 2
SplineSet
880 960 m 258,0,-1
 784 960 l 258,1,2
 768 960 768 960 768 976 c 258,3,4
 768 1056 l 258,5,6
 768 1088 768 1088 736 1120 c 256,7,8
 704 1152 704 1152 672 1152 c 258,9,-1
 352 1152 l 258,10,11
 320 1152 320 1152 288 1120 c 256,12,13
 256 1088 256 1088 256 1056 c 258,14,-1
 256 800 l 258,15,16
 256 768 256 768 288 736 c 256,17,18
 320 704 320 704 352 704 c 258,19,-1
 704 704 l 258,20,21
 768 704 768 704 832 640 c 256,22,23
 896 576 896 576 896 512 c 258,24,-1
 896 192 l 258,25,26
 896 128 896 128 832 64 c 256,27,28
 768 0 768 0 704 0 c 258,29,-1
 320 0 l 258,30,31
 256 0 256 0 192 64 c 256,32,33
 128 128 128 128 128 192 c 258,34,-1
 128 304 l 258,35,36
 128 320 128 320 144 320 c 258,37,-1
 240 320 l 258,38,39
 256 320 256 320 256 304 c 258,40,-1
 256 224 l 258,41,42
 256 192 256 192 288 160 c 256,43,44
 320 128 320 128 352 128 c 258,45,-1
 672 128 l 258,46,47
 704 128 704 128 736 160 c 256,48,49
 768 192 768 192 768 224 c 258,50,-1
 768 480 l 258,51,52
 768 512 768 512 736 544 c 256,53,54
 704 576 704 576 672 576 c 258,55,-1
 320 576 l 258,56,57
 256 576 256 576 192 640 c 256,58,59
 128 704 128 704 128 768 c 258,60,-1
 128 1088 l 258,61,62
 128 1152 128 1152 192 1216 c 256,63,64
 256 1280 256 1280 320 1280 c 258,65,-1
 704 1280 l 258,66,67
 768 1280 768 1280 832 1216 c 256,68,69
 896 1152 896 1152 896 1088 c 258,70,-1
 896 976 l 258,71,72
 896 960 896 960 880 960 c 258,0,-1
EndSplineSet
Colour: 6600
EndChar
StartChar: T
Encoding: 84 84 53
Width: 1024
VWidth: 0
Flags: W
HStem: 0 21G<456 568> 1152 128<128 448 576 896>
VStem: 448 128<0 1152>
LayerCount: 3
Back
Fore
SplineSet
144 1280 m 258,0,-1
 880 1280 l 258,1,2
 896 1280 896 1280 896 1264 c 258,3,-1
 896 1168 l 258,4,5
 896 1152 896 1152 880 1152 c 258,6,-1
 592 1152 l 258,7,8
 576 1152 576 1152 576 1136 c 258,9,-1
 576 16 l 258,10,11
 576 0 576 0 560 0 c 258,12,-1
 464 0 l 258,13,14
 448 0 448 0 448 16 c 258,15,-1
 448 1136 l 258,16,17
 448 1152 448 1152 432 1152 c 258,18,-1
 144 1152 l 258,19,20
 128 1152 128 1152 128 1168 c 258,21,-1
 128 1264 l 258,22,23
 128 1280 128 1280 144 1280 c 258,0,-1
EndSplineSet
Validated: 19457
Layer: 2
SplineSet
144 1280 m 258,0,-1
 880 1280 l 258,1,2
 896 1280 896 1280 896 1264 c 258,3,-1
 896 1168 l 258,4,5
 896 1152 896 1152 880 1152 c 258,6,-1
 592 1152 l 258,7,8
 576 1152 576 1152 576 1136 c 258,9,-1
 576 16 l 258,10,11
 576 0 576 0 560 0 c 258,12,-1
 464 0 l 258,13,14
 448 0 448 0 448 16 c 258,15,-1
 448 1136 l 258,16,17
 448 1152 448 1152 432 1152 c 258,18,-1
 144 1152 l 258,19,20
 128 1152 128 1152 128 1168 c 258,21,-1
 128 1264 l 258,22,23
 128 1280 128 1280 144 1280 c 258,0,-1
EndSplineSet
Colour: 6600
EndChar
StartChar: U
Encoding: 85 85 54
Width: 1024
VWidth: 0
Flags: W
HStem: 0 128<278 746> 1260 20G<136 248 776 888>
VStem: 128 128<150 1280> 768 128<162 1280>
LayerCount: 3
Back
Fore
SplineSet
784 1280 m 258,0,-1
 880 1280 l 258,1,2
 896 1280 896 1280 896 1264 c 258,3,-1
 896 192 l 258,4,5
 896 128 896 128 832 64 c 256,6,7
 768 0 768 0 704 0 c 258,8,-1
 320 0 l 258,9,10
 256 0 256 0 192 64 c 256,11,12
 128 128 128 128 128 192 c 258,13,-1
 128 1264 l 258,14,15
 128 1280 128 1280 144 1280 c 258,16,-1
 240 1280 l 258,17,18
 256 1280 256 1280 256 1264 c 258,19,-1
 256 224 l 258,20,21
 256 192 256 192 288 160 c 256,22,23
 320 128 320 128 352 128 c 258,24,-1
 672 128 l 258,25,26
 704 128 704 128 736 160 c 256,27,28
 768 192 768 192 768 224 c 258,29,-1
 768 1264 l 258,30,31
 768 1280 768 1280 784 1280 c 258,0,-1
EndSplineSet
Validated: 19457
Layer: 2
SplineSet
784 1280 m 258,0,-1
 880 1280 l 258,1,2
 896 1280 896 1280 896 1264 c 258,3,-1
 896 192 l 258,4,5
 896 128 896 128 832 64 c 256,6,7
 768 0 768 0 704 0 c 258,8,-1
 320 0 l 258,9,10
 256 0 256 0 192 64 c 256,11,12
 128 128 128 128 128 192 c 258,13,-1
 128 1264 l 258,14,15
 128 1280 128 1280 144 1280 c 258,16,-1
 240 1280 l 258,17,18
 256 1280 256 1280 256 1264 c 258,19,-1
 256 224 l 258,20,21
 256 192 256 192 288 160 c 256,22,23
 320 128 320 128 352 128 c 258,24,-1
 672 128 l 258,25,26
 704 128 704 128 736 160 c 256,27,28
 768 192 768 192 768 224 c 258,29,-1
 768 1264 l 258,30,31
 768 1280 768 1280 784 1280 c 258,0,-1
EndSplineSet
Colour: 6600
EndChar
StartChar: V
Encoding: 86 86 55
Width: 1024
VWidth: 0
Flags: W
HStem: 1260 20G<136 248 776 888>
VStem: 128 128<460 1280> 768 128<460 1280>
DStem2: 480 208 416 80 0.707107 -0.707107<-291.836 45.2548> 544 208 608 80 0.707107 0.707107<-45.2548 291.836>
LayerCount: 3
Back
Fore
SplineSet
480 16 m 258,0,-1
 416 80 l 258,1,2
 128 368 128 368 128 656 c 258,3,-1
 128 1264 l 258,4,5
 128 1280 128 1280 144 1280 c 258,6,-1
 240 1280 l 258,7,8
 256 1280 256 1280 256 1264 c 258,9,-1
 256 656 l 258,10,11
 256 432 256 432 480 208 c 258,12,13
 496 192 l 258,14,15
 512 176 512 176 528 192 c 258,16,-1
 544 208 l 258,17,18
 768 432 768 432 768 656 c 258,19,-1
 768 1264 l 258,20,21
 768 1280 768 1280 784 1280 c 258,22,-1
 880 1280 l 258,23,24
 896 1280 896 1280 896 1264 c 258,25,-1
 896 656 l 258,26,27
 896 368 896 368 608 80 c 258,28,-1
 544 16 l 258,29,30
 512 -16 512 -16 480 16 c 258,0,-1
EndSplineSet
Validated: 19457
Layer: 2
SplineSet
480 16 m 258,0,-1
 416 80 l 258,1,2
 128 368 128 368 128 656 c 258,3,-1
 128 1264 l 258,4,5
 128 1280 128 1280 144 1280 c 258,6,-1
 240 1280 l 258,7,8
 256 1280 256 1280 256 1264 c 258,9,-1
 256 656 l 258,10,11
 256 432 256 432 480 208 c 258,12,13
 496 192 l 258,14,15
 512 176 512 176 528 192 c 258,16,-1
 544 208 l 258,17,18
 768 432 768 432 768 656 c 258,19,-1
 768 1264 l 258,20,21
 768 1280 768 1280 784 1280 c 258,22,-1
 880 1280 l 258,23,24
 896 1280 896 1280 896 1264 c 258,25,-1
 896 656 l 258,26,27
 896 368 896 368 608 80 c 258,28,-1
 544 16 l 258,29,30
 512 -16 512 -16 480 16 c 258,0,-1
EndSplineSet
Colour: 6600
EndChar
StartChar: X
Encoding: 88 88 57
Width: 1024
VWidth: 0
Flags: MW
LayerCount: 4
Back
Fore
SplineSet
400 656 m 262,0,-1
 384 672 l 262,1,2
 128 928 128 928 128 1184 c 262,3,-1
 128 1264 l 262,4,5
 128 1280 128 1280 144 1280 c 262,6,-1
 240 1280 l 262,7,8
 256 1280 256 1280 256 1264 c 262,9,-1
 256 1184 l 262,10,11
 256 992 256 992 448 800 c 262,12,-1
 496 752 l 262,13,14
 512 736 512 736 528 752 c 262,15,-1
 576 800 l 262,16,17
 768 992 768 992 768 1184 c 262,18,-1
 768 1264 l 262,19,20
 768 1280 768 1280 784 1280 c 262,21,-1
 880 1280 l 262,22,23
 896 1280 896 1280 896 1264 c 262,24,-1
 896 1184 l 262,25,26
 896 928 896 928 640 672 c 262,27,-1
 624 656 l 262,28,29
 608 640 608 640 624 624 c 262,30,-1
 640 608 l 262,31,32
 896 352 896 352 896 96 c 262,33,-1
 896 16 l 262,34,35
 896 0 896 0 880 0 c 262,36,-1
 784 0 l 262,37,38
 768 0 768 0 768 16 c 262,39,-1
 768 96 l 262,40,41
 768 288 768 288 576 480 c 262,42,-1
 528 528 l 262,43,44
 512 544 512 544 496 528 c 262,45,-1
 448 480 l 262,46,47
 256 288 256 288 256 96 c 262,48,-1
 256 16 l 262,49,50
 256 0 256 0 240 0 c 262,51,-1
 144 0 l 262,52,53
 128 0 128 0 128 16 c 262,54,-1
 128 96 l 262,55,56
 128 352 128 352 384 608 c 262,57,-1
 400 624 l 262,58,59
 416 640 416 640 400 656 c 262,0,-1
EndSplineSet
Validated: 19457
Layer: 2
SplineSet
441 654 m 2,0,-1
 427 668 l 26,1,2
 128 967 128 967 128 1266 c 0,3,4
 128 1280 128 1280 142 1280 c 2,5,-1
 199 1280 l 2,6,7
 213 1280 213 1280 213 1266 c 0,8,9
 213 996 213 996 484 725 c 26,10,-1
 498 711 l 2,11,12
 512 697 512 697 526 711 c 2,13,-1
 540 725 l 26,14,15
 810 995 810 995 811 1266 c 0,16,17
 811 1280 811 1280 825 1280 c 2,18,-1
 882 1280 l 2,19,20
 896 1280 896 1280 896 1266 c 0,21,22
 896 967 896 967 597 668 c 26,23,-1
 583 654 l 2,24,25
 569 640 569 640 583 626 c 2,26,-1
 597 612 l 26,27,28
 896 313 896 313 896 14 c 0,29,30
 896 0 896 0 882 0 c 2,31,-1
 825 0 l 2,32,33
 811 0 811 0 811 14 c 0,34,35
 811 284 811 284 540 555 c 26,36,-1
 526 569 l 2,37,38
 512 583 512 583 498 569 c 2,39,-1
 484 555 l 26,40,41
 214 285 214 285 213 14 c 0,42,43
 213 0 213 0 199 0 c 2,44,-1
 142 0 l 2,45,46
 128 0 128 0 128 14 c 0,47,48
 128 313 128 313 427 612 c 26,49,-1
 441 626 l 2,50,51
 455 640 455 640 441 654 c 2,0,-1
EndSplineSet
Layer: 3
SplineSet
400 656 m 258,0,-1
 384 672 l 258,1,2
 128 928 128 928 128 1184 c 258,3,-1
 128 1264 l 258,4,5
 128 1280 128 1280 144 1280 c 258,6,-1
 240 1280 l 258,7,8
 256 1280 256 1280 256 1264 c 258,9,-1
 256 1184 l 258,10,11
 256 992 256 992 448 800 c 258,12,-1
 496 752 l 258,13,14
 512 736 512 736 528 752 c 258,15,-1
 576 800 l 258,16,17
 768 992 768 992 768 1184 c 258,18,-1
 768 1264 l 258,19,20
 768 1280 768 1280 784 1280 c 258,21,-1
 880 1280 l 258,22,23
 896 1280 896 1280 896 1264 c 258,24,-1
 896 1184 l 258,25,26
 896 928 896 928 640 672 c 258,27,-1
 624 656 l 258,28,29
 608 640 608 640 624 624 c 258,30,-1
 640 608 l 258,31,32
 896 352 896 352 896 96 c 262,33,-1
 896 16 l 258,34,35
 896 0 896 0 880 0 c 258,36,-1
 784 0 l 258,37,38
 768 0 768 0 768 16 c 258,39,-1
 768 96 l 262,40,41
 768 288 768 288 576 480 c 258,42,-1
 528 528 l 258,43,44
 512 544 512 544 496 528 c 258,45,-1
 448 480 l 258,46,47
 256 288 256 288 256 96 c 262,48,-1
 256 16 l 258,49,50
 256 0 256 0 240 0 c 258,51,-1
 144 0 l 258,52,53
 128 0 128 0 128 16 c 258,54,-1
 128 96 l 262,55,56
 128 352 128 352 384 608 c 258,57,-1
 400 624 l 258,58,59
 416 640 416 640 400 656 c 258,0,-1
EndSplineSet
Colour: 8000
EndChar
StartChar: Y
Encoding: 89 89 58
Width: 1024
VWidth: 0
Flags: W
HStem: 0 21G<456 568> 1260 20G<136 248 776 888>
VStem: 128 128<1020 1280> 448 128<0 649> 768 128<1020 1280>
DStem2: 480 768 416 640 0.707107 -0.707107<-291.836 45.2548> 528 752 608 640 0.707107 0.707107<-22.6274 314.464>
CounterMasks: 1 38
LayerCount: 3
Back
Fore
SplineSet
432 624 m 258,0,-1
 416 640 l 258,1,2
 128 928 128 928 128 1216 c 258,3,-1
 128 1264 l 258,4,5
 128 1280 128 1280 144 1280 c 258,6,-1
 240 1280 l 258,7,8
 256 1280 256 1280 256 1264 c 258,9,-1
 256 1216 l 258,10,11
 256 992 256 992 480 768 c 258,12,-1
 496 752 l 258,13,14
 512 736 512 736 528 752 c 258,15,-1
 544 768 l 258,16,17
 768 992 768 992 768 1216 c 258,18,-1
 768 1264 l 258,19,20
 768 1280 768 1280 784 1280 c 258,21,-1
 880 1280 l 258,22,23
 896 1280 896 1280 896 1264 c 258,24,-1
 896 1216 l 258,25,26
 896 928 896 928 608 640 c 258,27,-1
 592 624 l 258,28,29
 576 608 576 608 576 592 c 258,30,-1
 576 16 l 258,31,32
 576 0 576 0 560 0 c 258,33,-1
 464 0 l 258,34,35
 448 0 448 0 448 16 c 258,36,-1
 448 592 l 258,37,38
 448 608 448 608 432 624 c 258,0,-1
EndSplineSet
Validated: 19457
Layer: 2
SplineSet
432 624 m 258,0,-1
 416 640 l 258,1,2
 128 928 128 928 128 1216 c 258,3,-1
 128 1264 l 258,4,5
 128 1280 128 1280 144 1280 c 258,6,-1
 240 1280 l 258,7,8
 256 1280 256 1280 256 1264 c 258,9,-1
 256 1216 l 258,10,11
 256 992 256 992 480 768 c 258,12,-1
 496 752 l 258,13,14
 512 736 512 736 528 752 c 258,15,-1
 544 768 l 258,16,17
 768 992 768 992 768 1216 c 258,18,-1
 768 1264 l 258,19,20
 768 1280 768 1280 784 1280 c 258,21,-1
 880 1280 l 258,22,23
 896 1280 896 1280 896 1264 c 258,24,-1
 896 1216 l 258,25,26
 896 928 896 928 608 640 c 258,27,-1
 592 624 l 258,28,29
 576 608 576 608 576 592 c 258,30,-1
 576 16 l 258,31,32
 576 0 576 0 560 0 c 258,33,-1
 464 0 l 258,34,35
 448 0 448 0 448 16 c 258,36,-1
 448 592 l 258,37,38
 448 608 448 608 432 624 c 258,0,-1
EndSplineSet
Colour: 6600
EndChar
StartChar: Z
Encoding: 90 90 59
Width: 1024
VWidth: 0
Flags: W
HStem: 0 128<256.281 896> 1152 128<128 767.719>
VStem: 128 128<128 308> 768 128<972 1152>
DStem2: 320 544 384 416 0.707107 0.707107<-250.183 657.477>
LayerCount: 3
Back
Fore
SplineSet
128 1168 m 258,0,-1
 128 1264 l 258,1,2
 128 1280 128 1280 144 1280 c 258,3,-1
 880 1280 l 258,4,5
 896 1280 896 1280 896 1264 c 258,6,-1
 896 1120 l 258,7,8
 896 928 896 928 704 736 c 258,9,-1
 384 416 l 258,10,11
 256 288 256 288 256 160 c 258,12,13
 256 144 l 258,14,15
 256 128 256 128 272 128 c 258,16,-1
 880 128 l 258,17,18
 896 128 896 128 896 112 c 258,19,-1
 896 16 l 258,20,21
 896 0 896 0 880 0 c 258,22,-1
 144 0 l 258,23,24
 128 0 128 0 128 16 c 258,25,-1
 128 160 l 258,26,27
 128 352 128 352 320 544 c 258,28,-1
 640 864 l 258,29,30
 768 992 768 992 768 1120 c 258,31,-1
 768 1136 l 258,32,33
 768 1152 768 1152 752 1152 c 258,34,-1
 144 1152 l 258,35,36
 128 1152 128 1152 128 1168 c 258,0,-1
EndSplineSet
Validated: 19457
Layer: 2
SplineSet
128 1168 m 258,0,-1
 128 1264 l 258,1,2
 128 1280 128 1280 144 1280 c 258,3,-1
 880 1280 l 258,4,5
 896 1280 896 1280 896 1264 c 258,6,-1
 896 1120 l 258,7,8
 896 928 896 928 704 736 c 258,9,-1
 384 416 l 258,10,11
 256 288 256 288 256 160 c 258,12,13
 256 144 l 258,14,15
 256 128 256 128 272 128 c 258,16,-1
 880 128 l 258,17,18
 896 128 896 128 896 112 c 258,19,-1
 896 16 l 258,20,21
 896 0 896 0 880 0 c 258,22,-1
 144 0 l 258,23,24
 128 0 128 0 128 16 c 258,25,-1
 128 160 l 258,26,27
 128 352 128 352 320 544 c 258,28,-1
 640 864 l 258,29,30
 768 992 768 992 768 1120 c 258,31,-1
 768 1136 l 258,32,33
 768 1152 768 1152 752 1152 c 258,34,-1
 144 1152 l 258,35,36
 128 1152 128 1152 128 1168 c 258,0,-1
EndSplineSet
Colour: 6600
EndChar
StartChar: bracketleft
Encoding: 91 91 60
Width: 1024
VWidth: 0
Flags: W
HStem: -128 128<384 704> 1280 128<384 704>
VStem: 256 448<-128 -1.6e-07 1280 1408> 256 128<0 1280>
LayerCount: 3
Back
Fore
SplineSet
256 -112 m 258,0,-1
 256 1392 l 262,1,2
 256 1408 256 1408 272 1408 c 262,3,-1
 688 1408 l 262,4,5
 704 1408 704 1408 704 1392 c 262,6,-1
 704 1296 l 262,7,8
 704 1280 704 1280 688 1280 c 262,9,-1
 400 1280 l 262,10,11
 384 1280 384 1280 384 1264 c 262,12,-1
 384 16 l 258,13,14
 384 0 384 0 400 0 c 258,15,-1
 688 0 l 258,16,17
 704 0 704 0 704 -16 c 258,18,-1
 704 -112 l 258,19,20
 704 -128 704 -128 688 -128 c 258,21,-1
 272 -128 l 258,22,23
 256 -128 256 -128 256 -112 c 258,0,-1
EndSplineSet
Validated: 19457
Layer: 2
SplineSet
256 16 m 258,0,-1
 256 1264 l 258,1,2
 256 1280 256 1280 272 1280 c 258,3,-1
 688 1280 l 258,4,5
 704 1280 704 1280 704 1264 c 258,6,-1
 704 1168 l 258,7,8
 704 1152 704 1152 688 1152 c 258,9,-1
 400 1152 l 258,10,11
 384 1152 384 1152 384 1136 c 258,12,-1
 384 144 l 258,13,14
 384 128 384 128 400 128 c 258,15,-1
 688 128 l 258,16,17
 704 128 704 128 704 112 c 258,18,-1
 704 16 l 258,19,20
 704 0 704 0 688 0 c 258,21,-1
 272 0 l 258,22,23
 256 0 256 0 256 16 c 258,0,-1
EndSplineSet
Colour: 6600
EndChar
StartChar: backslash
Encoding: 92 92 61
Width: 1024
VWidth: 0
UnlinkRmOvrlpSave: 1
Flags: W
HStem: 0 21G<713 825> 1260 20G<136.5 248.5>
DStem2: 826 16 135 1264 0.411215 -0.911538<-1406.93 -15.0229>
LayerCount: 3
Back
Fore
SplineSet
241 1280 m 258,0,1
 256 1280 256 1280 263 1264 c 258,2,-1
 826 16 l 258,3,4
 833 0 833 0 817 0 c 258,5,-1
 721 0 l 258,6,7
 705 0 705 0 698 16 c 258,8,-1
 135 1264 l 258,9,10
 128 1280 128 1280 145 1280 c 258,11,-1
 241 1280 l 258,0,1
EndSplineSet
Layer: 2
SplineSet
241 1280 m 258,0,1
 256 1280 256 1280 263 1264 c 258,2,-1
 826 16 l 258,3,4
 833 0 833 0 817 0 c 258,5,-1
 721 0 l 258,6,7
 705 0 705 0 698 16 c 258,8,-1
 135 1264 l 258,9,10
 128 1280 128 1280 145 1280 c 258,11,-1
 241 1280 l 258,0,1
EndSplineSet
Colour: 6600
EndChar
StartChar: asciicircum
Encoding: 94 94 63
Width: 1024
VWidth: 0
Flags: W
DStem2: 176 1120 272 1024 0.707107 0.707107<-22.6274 339.411> 544 1424 528 1248 0.707107 -0.707107<90.5097 452.548>
LayerCount: 3
Back
Fore
SplineSet
848 1120 m 258,0,1
 864 1104 864 1104 848 1088 c 258,2,-1
 784 1024 l 258,3,4
 768 1008 768 1008 752 1024 c 258,5,-1
 528 1248 l 258,6,7
 512 1264 512 1264 496 1248 c 258,8,-1
 272 1024 l 258,9,10
 256 1008 256 1008 240 1024 c 258,11,-1
 176 1088 l 258,12,13
 160 1104 160 1104 176 1120 c 258,14,-1
 480 1424 l 258,15,16
 512 1456 512 1456 544 1424 c 258,17,-1
 848 1120 l 258,0,1
EndSplineSet
Validated: 19457
Layer: 2
SplineSet
848 1120 m 258,0,1
 864 1104 864 1104 848 1088 c 258,2,-1
 784 1024 l 258,3,4
 768 1008 768 1008 752 1024 c 258,5,-1
 528 1248 l 258,6,7
 512 1264 512 1264 496 1248 c 258,8,-1
 272 1024 l 258,9,10
 256 1008 256 1008 240 1024 c 258,11,-1
 176 1088 l 258,12,13
 160 1104 160 1104 176 1120 c 258,14,-1
 480 1424 l 258,15,16
 512 1456 512 1456 544 1424 c 258,17,-1
 848 1120 l 258,0,1
EndSplineSet
Colour: 6600
EndChar
StartChar: grave
Encoding: 96 96 65
Width: 1024
VWidth: 0
Flags: W
DStem2: 368 1632 272 1536 0.707107 -0.707107<-22.6274 339.411>
LayerCount: 3
Back
Fore
SplineSet
592 1408 m 258,0,1
 608 1392 608 1392 592 1376 c 258,2,-1
 528 1312 l 258,3,4
 512 1296 512 1296 496 1312 c 258,5,-1
 272 1536 l 258,6,7
 256 1552 256 1552 272 1568 c 258,8,-1
 336 1632 l 258,9,10
 352 1648 352 1648 368 1632 c 258,11,-1
 592 1408 l 258,0,1
EndSplineSet
Validated: 19457
Layer: 2
SplineSet
592 1408 m 258,0,1
 608 1392 608 1392 592 1376 c 258,2,-1
 528 1312 l 258,3,4
 512 1296 512 1296 496 1312 c 258,5,-1
 272 1536 l 258,6,7
 256 1552 256 1552 272 1568 c 258,8,-1
 336 1632 l 258,9,10
 352 1648 352 1648 368 1632 c 258,11,-1
 592 1408 l 258,0,1
EndSplineSet
Colour: 6600
EndChar
StartChar: a
Encoding: 97 97 66
Width: 1024
VWidth: 0
Flags: W
HStem: 0 128<278 768> 448 128<278 768> 768 128<192 746>
VStem: 128 128<150 426> 768 128<128 448 576 734>
LayerCount: 3
Back
Fore
SplineSet
256 352 m 258,0,-1
 256 224 l 258,1,2
 256 192 256 192 288 160 c 256,3,4
 320 128 320 128 352 128 c 258,5,-1
 752 128 l 258,6,7
 768 128 768 128 768 144 c 258,8,-1
 768 432 l 258,9,10
 768 448 768 448 752 448 c 258,11,-1
 352 448 l 258,12,13
 320 448 320 448 288 416 c 256,14,15
 256 384 256 384 256 352 c 258,0,-1
128 192 m 258,16,-1
 128 384 l 258,17,18
 128 448 128 448 192 512 c 256,19,20
 256 576 256 576 320 576 c 258,21,-1
 752 576 l 258,22,23
 768 576 768 576 768 592 c 258,24,-1
 768 672 l 258,25,26
 768 704 768 704 736 736 c 256,27,28
 704 768 704 768 672 768 c 258,29,-1
 208 768 l 258,30,31
 192 768 192 768 192 784 c 258,32,-1
 192 880 l 258,33,34
 192 896 192 896 208 896 c 258,35,-1
 704 896 l 258,36,37
 768 896 768 896 832 832 c 256,38,39
 896 768 896 768 896 704 c 258,40,-1
 896 16 l 258,41,42
 896 0 896 0 880 0 c 258,43,-1
 320 0 l 258,44,45
 256 0 256 0 192 64 c 256,46,47
 128 128 128 128 128 192 c 258,16,-1
EndSplineSet
Validated: 19457
Layer: 2
SplineSet
256 352 m 258,0,-1
 256 224 l 258,1,2
 256 192 256 192 288 160 c 256,3,4
 320 128 320 128 352 128 c 258,5,-1
 752 128 l 258,6,7
 768 128 768 128 768 144 c 258,8,-1
 768 432 l 258,9,10
 768 448 768 448 752 448 c 258,11,-1
 352 448 l 258,12,13
 320 448 320 448 288 416 c 256,14,15
 256 384 256 384 256 352 c 258,0,-1
128 192 m 258,16,-1
 128 384 l 258,17,18
 128 448 128 448 192 512 c 256,19,20
 256 576 256 576 320 576 c 258,21,-1
 752 576 l 258,22,23
 768 576 768 576 768 592 c 258,24,-1
 768 672 l 258,25,26
 768 704 768 704 736 736 c 256,27,28
 704 768 704 768 672 768 c 258,29,-1
 208 768 l 258,30,31
 192 768 192 768 192 784 c 258,32,-1
 192 880 l 258,33,34
 192 896 192 896 208 896 c 258,35,-1
 704 896 l 258,36,37
 768 896 768 896 832 832 c 256,38,39
 896 768 896 768 896 704 c 258,40,-1
 896 16 l 258,41,42
 896 0 896 0 880 0 c 258,43,-1
 320 0 l 258,44,45
 256 0 256 0 192 64 c 256,46,47
 128 128 128 128 128 192 c 258,16,-1
EndSplineSet
Colour: 6600
EndChar
StartChar: b
Encoding: 98 98 67
Width: 1024
VWidth: 0
Flags: MW
LayerCount: 4
Back
Fore
SplineSet
272 768 m 286,0,1
 256 768 256 768 256 752 c 262,2,-1
 256 144 l 262,3,4
 256 128 256 128 272 128 c 262,5,-1
 672 128 l 262,6,7
 704 128 704 128 736 160 c 260,8,9
 768 192 768 192 768 224 c 262,10,-1
 768 672 l 262,11,12
 768 704 768 704 736 736 c 260,13,14
 704 768 704 768 672 768 c 262,15,-1
 272 768 l 286,0,1
128 1264 m 262,16,17
 128 1280 128 1280 144 1280 c 262,18,-1
 240 1280 l 262,19,20
 256 1280 256 1280 256 1264 c 262,21,-1
 256 912 l 262,22,23
 256 896 256 896 272 896 c 262,24,-1
 704 896 l 262,25,26
 768 896 768 896 832 832 c 260,27,28
 896 768 896 768 896 704 c 262,29,-1
 896 192 l 262,30,31
 896 128 896 128 832 64 c 260,32,33
 768 0 768 0 704 0 c 262,34,-1
 144 0 l 262,35,36
 128 0 128 0 128 16 c 262,37,-1
 128 1264 l 262,16,17
EndSplineSet
Validated: 19457
Layer: 2
SplineSet
213 839 m 2,0,-1
 213 100 l 2,1,2
 213 86 213 86 228 85 c 2,3,-1
 640 85 l 2,4,5
 697 85 697 85 754 142 c 128,-1,6
 811 199 811 199 811 256 c 2,7,-1
 811 683 l 2,8,9
 811 740 811 740 754 796.5 c 128,-1,10
 697 853 697 853 640 853 c 2,11,-1
 228 853 l 2,12,13
 213 853 213 853 213 839 c 2,0,-1
128 14 m 2,14,-1
 128 1266 l 2,15,16
 128 1280 128 1280 142 1280 c 2,17,-1
 199 1280 l 2,18,19
 213 1280 213 1280 213 1266 c 2,20,-1
 213 953 l 2,21,22
 213 939 213 939 228 939 c 2,23,-1
 640 939 l 2,24,25
 725 939 725 939 810.5 853.5 c 128,-1,26
 896 768 896 768 896 683 c 2,27,-1
 896 256 l 2,28,29
 896 171 896 171 810.5 85.5 c 128,-1,30
 725 0 725 0 640 0 c 2,31,-1
 142 0 l 2,32,33
 128 0 128 0 128 14 c 2,14,-1
EndSplineSet
Layer: 3
SplineSet
272 768 m 286,0,1
 256 768 256 768 256 752 c 6,2,-1
 256 144 l 262,3,4
 256 128 256 128 272 128 c 262,5,-1
 688 128 l 262,6,7
 704 128 704 128 720 144 c 6,8,-1
 752 176 l 262,9,10
 768 192 768 192 768 208 c 262,11,-1
 768 688 l 262,12,13
 768 704 768 704 752 720 c 6,14,-1
 720 752 l 262,15,16
 704 768 704 768 688 768 c 262,17,-1
 272 768 l 286,0,1
128 1264 m 262,18,19
 128 1280 128 1280 144 1280 c 262,20,-1
 240 1280 l 262,21,22
 256 1280 256 1280 256 1264 c 262,23,-1
 256 912 l 262,24,25
 256 896 256 896 272 896 c 262,26,-1
 736 896 l 262,27,28
 768 896 768 896 800 864 c 262,29,-1
 864 800 l 6,30,31
 896 768 896 768 896 736 c 262,32,-1
 896 160 l 262,33,34
 896 128 896 128 864 96 c 260,35,-1
 800 32 l 4,36,37
 768 0 768 0 736 0 c 262,38,-1
 144 0 l 262,39,40
 128 0 128 0 128 16 c 262,41,-1
 128 1264 l 262,18,19
EndSplineSet
Colour: 8000
EndChar
StartChar: c
Encoding: 99 99 68
Width: 1024
VWidth: 0
Flags: MW
LayerCount: 4
Back
Fore
SplineSet
768 656 m 262,0,-1
 768 672 l 258,1,2
 768 704 768 704 736 736 c 256,3,4
 704 768 704 768 672 768 c 258,5,-1
 352 768 l 258,6,7
 320 768 320 768 288 736 c 256,8,9
 256 704 256 704 256 672 c 258,10,-1
 256 224 l 258,11,12
 256 192 256 192 288 160 c 256,13,14
 320 128 320 128 352 128 c 258,15,-1
 672 128 l 258,16,17
 704 128 704 128 736 160 c 256,18,19
 768 192 768 192 768 224 c 258,20,-1
 768 240 l 258,21,22
 768 256 768 256 784 256 c 258,23,-1
 880 256 l 258,24,25
 896 256 896 256 896 240 c 258,26,-1
 896 192 l 258,27,28
 896 128 896 128 832 64 c 256,29,30
 768 0 768 0 704 0 c 258,31,-1
 320 0 l 258,32,33
 256 0 256 0 192 64 c 256,34,35
 128 128 128 128 128 192 c 258,36,-1
 128 704 l 258,37,38
 128 768 128 768 192 832 c 256,39,40
 256 896 256 896 320 896 c 258,41,-1
 704 896 l 258,42,43
 768 896 768 896 832 832 c 256,44,45
 896 768 896 768 896 704 c 258,46,-1
 896 656 l 262,47,48
 896 640 896 640 880 640 c 262,49,-1
 784 640 l 262,50,51
 768 640 768 640 768 656 c 262,0,-1
EndSplineSet
Validated: 3073
Layer: 2
SplineSet
820 683 m 0,0,1
 820 740 820 740 763 796.5 c 128,-1,2
 706 853 706 853 649 853 c 2,3,-1
 393 853 l 2,4,5
 336 853 336 853 279 796.5 c 128,-1,6
 222 740 222 740 222 683 c 2,7,-1
 222 256 l 2,8,9
 222 199 222 199 279 142 c 128,-1,10
 336 85 336 85 393 85 c 2,11,-1
 649 85 l 2,12,13
 706 85 706 85 763 142 c 128,-1,14
 820 199 820 199 820 256 c 0,15,16
 820 270 820 270 834 270 c 2,17,-1
 891 270 l 2,18,19
 905 270 905 270 905 256 c 0,20,21
 905 171 905 171 819.5 85.5 c 128,-1,22
 734 0 734 0 649 0 c 2,23,-1
 393 0 l 2,24,25
 308 0 308 0 222.5 85.5 c 128,-1,26
 137 171 137 171 137 256 c 2,27,-1
 137 683 l 2,28,29
 137 768 137 768 222.5 853.5 c 128,-1,30
 308 939 308 939 393 939 c 2,31,-1
 649 939 l 2,32,33
 734 939 734 939 819.5 853.5 c 128,-1,34
 905 768 905 768 905 683 c 0,35,36
 905 669 905 669 891 668 c 2,37,-1
 834 668 l 2,38,39
 820 669 820 669 820 683 c 0,0,1
EndSplineSet
Layer: 3
SplineSet
768 592 m 258,0,-1
 768 688 l 258,1,2
 768 704 768 704 752 720 c 2,3,4
 720 752 l 258,5,6
 704 768 704 768 688 768 c 258,7,-1
 336 768 l 258,8,9
 320 768 320 768 304 752 c 258,10,11
 272 720 l 2,12,13
 256 704 256 704 256 688 c 258,14,-1
 256 208 l 258,15,16
 256 192 256 192 272 176 c 2,17,18
 304 144 l 258,19,20
 320 128 320 128 336 128 c 258,21,-1
 688 128 l 258,22,23
 704 128 704 128 720 144 c 258,24,25
 752 176 l 2,26,27
 768 192 768 192 768 208 c 258,28,-1
 768 240 l 262,29,30
 768 256 768 256 784 256 c 262,31,-1
 880 256 l 262,32,33
 896 256 896 256 896 240 c 262,34,-1
 896 160 l 258,35,36
 896 128 896 128 864 96 c 258,37,38
 800 32 l 2,39,40
 768 0 768 0 736 0 c 258,41,-1
 288 0 l 2,42,43
 256 0 256 0 224 32 c 258,44,45
 160 96 l 2,46,47
 128 128 128 128 128 160 c 258,48,-1
 128 736 l 258,49,50
 128 768 128 768 160 800 c 258,51,52
 224 864 l 2,53,54
 256 896 256 896 288 896 c 258,55,-1
 736 896 l 258,56,57
 768 896 768 896 800 864 c 258,58,59
 864 800 l 2,60,61
 896 768 896 768 896 640 c 258,62,-1
 896 592 l 258,63,64
 896 576 896 576 880 576 c 258,65,-1
 784 576 l 258,66,67
 768 576 768 576 768 592 c 258,0,-1
EndSplineSet
Colour: 8000
EndChar
StartChar: d
Encoding: 100 100 69
Width: 1024
VWidth: 0
UnlinkRmOvrlpSave: 1
Flags: W
HStem: 0 128<278 768> 768 128<289.003 768> 1260 20G<776 888>
VStem: 128 128<150 734.996> 768 128<128 768 896 1280>
LayerCount: 3
Back
Fore
SplineSet
752 768 m 282,0,1
 365 768 l 258,2,3
 320 768 320 768 288 736 c 256,4,5
 256 704 256 704 256 656 c 258,6,-1
 256 224 l 258,7,8
 256 192 256 192 288 160 c 256,9,10
 320 128 320 128 352 128 c 258,11,-1
 752 128 l 258,12,13
 768 128 768 128 768 144 c 258,14,-1
 768 752 l 258,15,16
 768 768 768 768 752 768 c 282,0,1
896 1264 m 258,17,-1
 896 16 l 258,18,19
 896 0 896 0 880 0 c 258,20,-1
 320 0 l 258,21,22
 256 0 256 0 192 64 c 256,23,24
 128 128 128 128 128 192 c 258,25,-1
 128 704 l 258,26,27
 128 768 128 768 192 832 c 256,28,29
 256 896 256 896 320 896 c 258,30,-1
 752 896 l 258,31,32
 768 896 768 896 768 912 c 258,33,-1
 768 1264 l 258,34,35
 768 1280 768 1280 784 1280 c 258,36,-1
 880 1280 l 258,37,38
 896 1280 896 1280 896 1264 c 258,17,-1
EndSplineSet
Layer: 2
SplineSet
752 768 m 282,0,1
 365 768 l 258,2,3
 320 768 320 768 288 736 c 256,4,5
 256 704 256 704 256 656 c 258,6,-1
 256 224 l 258,7,8
 256 192 256 192 288 160 c 256,9,10
 320 128 320 128 352 128 c 258,11,-1
 752 128 l 258,12,13
 768 128 768 128 768 144 c 258,14,-1
 768 752 l 258,15,16
 768 768 768 768 752 768 c 282,0,1
896 1264 m 258,17,-1
 896 16 l 258,18,19
 896 0 896 0 880 0 c 258,20,-1
 320 0 l 258,21,22
 256 0 256 0 192 64 c 256,23,24
 128 128 128 128 128 192 c 258,25,-1
 128 704 l 258,26,27
 128 768 128 768 192 832 c 256,28,29
 256 896 256 896 320 896 c 258,30,-1
 752 896 l 258,31,32
 768 896 768 896 768 912 c 258,33,-1
 768 1264 l 258,34,35
 768 1280 768 1280 784 1280 c 258,36,-1
 880 1280 l 258,37,38
 896 1280 896 1280 896 1264 c 258,17,-1
EndSplineSet
Colour: 6600
EndChar
StartChar: e
Encoding: 101 101 70
Width: 1024
VWidth: 0
Flags: W
HStem: 0 192<768 875.68> 0 128<278 768> 384 128<256 768> 768 128<278 746>
VStem: 128 128<150 384 512 746> 768 128<128 192 512 734>
LayerCount: 4
Back
Fore
SplineSet
768 528 m 282,0,-1
 768 672 l 258,1,2
 768 704 768 704 736 736 c 256,3,4
 704 768 704 768 672 768 c 258,5,-1
 352 768 l 258,6,7
 320 768 320 768 288 736 c 256,8,9
 256 704 256 704 256 672 c 258,10,-1
 256 528 l 258,11,12
 256 512 256 512 272 512 c 258,13,-1
 752 512 l 282,14,15
 768 512 768 512 768 528 c 282,0,-1
896 704 m 258,16,-1
 896 400 l 282,17,18
 896 384 896 384 880 384 c 286,19,-1
 272 384 l 258,20,21
 256 384 256 384 256 368 c 258,22,-1
 256 224 l 258,23,24
 256 192 256 192 288 160 c 256,25,26
 320 128 320 128 352 128 c 258,27,-1
 752 128 l 258,28,29
 768 128 768 128 768 144 c 258,30,-1
 768 176 l 258,31,32
 768 192 768 192 784 192 c 258,33,-1
 880 192 l 258,34,35
 896 192 896 192 896 176 c 257,36,-1
 896 96 l 258,37,38
 896 64 896 64 864 32 c 256,39,40
 832 0 832 0 800 0 c 282,41,-1
 320 0 l 258,42,43
 256 0 256 0 192 64 c 256,44,45
 128 128 128 128 128 192 c 258,46,-1
 128 704 l 282,47,48
 128 768 128 768 192 832 c 280,49,50
 256 896 256 896 320 896 c 282,51,-1
 704 896 l 258,52,53
 768 896 768 896 832 832 c 256,54,55
 896 768 896 768 896 704 c 258,16,-1
EndSplineSet
Validated: 19457
Layer: 2
SplineSet
213 683 m 2,0,-1
 213 526 l 2,1,2
 213 512 213 512 228 512 c 2,3,-1
 796 512 l 2,4,5
 810 512 810 512 811 526 c 2,6,-1
 811 683 l 2,7,8
 811 740 811 740 754 796.5 c 128,-1,9
 697 853 697 853 640 853 c 2,10,-1
 384 853 l 2,11,12
 327 853 327 853 270 796.5 c 128,-1,13
 213 740 213 740 213 683 c 2,0,-1
128 256 m 2,14,-1
 128 683 l 2,15,16
 128 768 128 768 213.5 853.5 c 128,-1,17
 299 939 299 939 384 939 c 2,18,-1
 640 939 l 2,19,20
 725 939 725 939 810.5 853.5 c 128,-1,21
 896 768 896 768 896 683 c 2,22,-1
 896 441 l 2,23,24
 896 427 896 427 882 427 c 2,25,-1
 228 427 l 2,26,27
 214 427 214 427 213 412 c 2,28,-1
 213 256 l 2,29,30
 213 199 213 199 270 142 c 128,-1,31
 327 85 327 85 384 85 c 2,32,-1
 768 85 l 2,33,34
 782 85 782 85 796.5 99.5 c 128,-1,35
 811 114 811 114 811 128 c 6,36,-1
 811 156 l 2,37,38
 811 170 811 170 825 171 c 2,39,-1
 882 171 l 2,40,41
 896 171 896 171 896 156 c 2,42,-1
 896 128 l 2,43,44
 896 85 896 85 853.5 42.5 c 128,-1,45
 811 0 811 0 768 0 c 2,46,-1
 384 0 l 2,47,48
 299 0 299 0 213.5 85.5 c 128,-1,49
 128 171 128 171 128 256 c 2,14,-1
EndSplineSet
Colour: 8000
EndChar
StartChar: f
Encoding: 102 102 71
Width: 1024
VWidth: 0
Flags: W
HStem: 0 21G<456 568> 768 128<192 448 576 832> 1152 128<598 960>
VStem: 448 128<0 768 896 1130>
LayerCount: 3
Back
Fore
SplineSet
448 912 m 258,0,-1
 448 1088 l 258,1,2
 448 1152 448 1152 512 1216 c 256,3,4
 576 1280 576 1280 640 1280 c 258,5,-1
 944 1280 l 258,6,7
 960 1280 960 1280 960 1264 c 258,8,-1
 960 1168 l 258,9,10
 960 1152 960 1152 944 1152 c 258,11,-1
 672 1152 l 258,12,13
 640 1152 640 1152 608 1120 c 256,14,15
 576 1088 576 1088 576 1056 c 258,16,-1
 576 912 l 258,17,18
 576 896 576 896 592 896 c 258,19,-1
 816 896 l 258,20,21
 832 896 832 896 832 880 c 258,22,-1
 832 784 l 258,23,24
 832 768 832 768 816 768 c 258,25,-1
 592 768 l 258,26,27
 576 768 576 768 576 752 c 258,28,-1
 576 16 l 258,29,30
 576 0 576 0 560 0 c 258,31,-1
 464 0 l 258,32,33
 448 0 448 0 448 16 c 258,34,-1
 448 752 l 258,35,36
 448 768 448 768 432 768 c 258,37,-1
 208 768 l 258,38,39
 192 768 192 768 192 784 c 258,40,-1
 192 880 l 258,41,42
 192 896 192 896 208 896 c 258,43,-1
 432 896 l 258,44,45
 448 896 448 896 448 912 c 258,0,-1
EndSplineSet
Validated: 19457
Layer: 2
SplineSet
448 912 m 258,0,-1
 448 1088 l 258,1,2
 448 1152 448 1152 512 1216 c 256,3,4
 576 1280 576 1280 640 1280 c 258,5,-1
 944 1280 l 258,6,7
 960 1280 960 1280 960 1264 c 258,8,-1
 960 1168 l 258,9,10
 960 1152 960 1152 944 1152 c 258,11,-1
 672 1152 l 258,12,13
 640 1152 640 1152 608 1120 c 256,14,15
 576 1088 576 1088 576 1056 c 258,16,-1
 576 912 l 258,17,18
 576 896 576 896 592 896 c 258,19,-1
 816 896 l 258,20,21
 832 896 832 896 832 880 c 258,22,-1
 832 784 l 258,23,24
 832 768 832 768 816 768 c 258,25,-1
 592 768 l 258,26,27
 576 768 576 768 576 752 c 258,28,-1
 576 16 l 258,29,30
 576 0 576 0 560 0 c 258,31,-1
 464 0 l 258,32,33
 448 0 448 0 448 16 c 258,34,-1
 448 752 l 258,35,36
 448 768 448 768 432 768 c 258,37,-1
 208 768 l 258,38,39
 192 768 192 768 192 784 c 258,40,-1
 192 880 l 258,41,42
 192 896 192 896 208 896 c 258,43,-1
 432 896 l 258,44,45
 448 896 448 896 448 912 c 258,0,-1
EndSplineSet
Colour: 6600
EndChar
StartChar: g
Encoding: 103 103 72
Width: 1024
VWidth: 0
Flags: W
HStem: -320 128<192 746> 0 128<278 768> 768 128<278 768>
VStem: 128 128<150 746> 768 128<-158 -1.6e-07 128 768>
LayerCount: 3
Back
Fore
SplineSet
256 672 m 258,0,-1
 256 224 l 258,1,2
 256 192 256 192 288 160 c 256,3,4
 320 128 320 128 352 128 c 258,5,-1
 752 128 l 282,6,7
 768 128 768 128 768 144 c 282,8,-1
 768 752 l 258,9,10
 768 768 768 768 752 768 c 258,11,-1
 352 768 l 258,12,13
 320 768 320 768 288 736 c 256,14,15
 256 704 256 704 256 672 c 258,0,-1
128 192 m 258,16,-1
 128 704 l 258,17,18
 128 768 128 768 192 832 c 256,19,20
 256 896 256 896 320 896 c 258,21,-1
 880 896 l 258,22,23
 896 896 896 896 896 880 c 258,24,-1
 896 -128 l 258,25,26
 896 -192 896 -192 832 -256 c 256,27,28
 768 -320 768 -320 704 -320 c 258,29,-1
 208 -320 l 258,30,31
 192 -320 192 -320 192 -304 c 258,32,-1
 192 -208 l 258,33,34
 192 -192 192 -192 208 -192 c 258,35,-1
 672 -192 l 258,36,37
 704 -192 704 -192 736 -160 c 256,38,39
 768 -128 768 -128 768 -96 c 258,40,-1
 768 -16 l 258,41,42
 768 0 768 0 752 0 c 258,43,-1
 320 0 l 258,44,45
 256 0 256 0 192 64 c 256,46,47
 128 128 128 128 128 192 c 258,16,-1
EndSplineSet
Validated: 19457
Layer: 2
SplineSet
256 672 m 258,0,-1
 256 224 l 258,1,2
 256 192 256 192 288 160 c 256,3,4
 320 128 320 128 352 128 c 258,5,-1
 752 128 l 282,6,7
 768 128 768 128 768 144 c 282,8,-1
 768 752 l 258,9,10
 768 768 768 768 752 768 c 258,11,-1
 352 768 l 258,12,13
 320 768 320 768 288 736 c 256,14,15
 256 704 256 704 256 672 c 258,0,-1
128 192 m 258,16,-1
 128 704 l 258,17,18
 128 768 128 768 192 832 c 256,19,20
 256 896 256 896 320 896 c 258,21,-1
 880 896 l 258,22,23
 896 896 896 896 896 880 c 258,24,-1
 896 -128 l 258,25,26
 896 -192 896 -192 832 -256 c 256,27,28
 768 -320 768 -320 704 -320 c 258,29,-1
 208 -320 l 258,30,31
 192 -320 192 -320 192 -304 c 258,32,-1
 192 -208 l 258,33,34
 192 -192 192 -192 208 -192 c 258,35,-1
 672 -192 l 258,36,37
 704 -192 704 -192 736 -160 c 256,38,39
 768 -128 768 -128 768 -96 c 258,40,-1
 768 -16 l 258,41,42
 768 0 768 0 752 0 c 258,43,-1
 320 0 l 258,44,45
 256 0 256 0 192 64 c 256,46,47
 128 128 128 128 128 192 c 258,16,-1
EndSplineSet
Colour: 6600
EndChar
StartChar: h
Encoding: 104 104 73
Width: 1024
VWidth: 0
Flags: MW
LayerCount: 4
Back
Fore
SplineSet
144 1280 m 262,0,-1
 240 1280 l 262,1,2
 256 1280 256 1280 256 1264 c 262,3,-1
 256 912 l 262,4,5
 256 896 256 896 272 896 c 262,6,-1
 704 896 l 262,7,8
 768 896 768 896 832 832 c 260,9,10
 896 768 896 768 896 704 c 262,11,-1
 896 16 l 262,12,13
 896 0 896 0 880 0 c 262,14,-1
 784 0 l 262,15,16
 768 0 768 0 768 16 c 262,17,-1
 768 672 l 262,18,19
 768 704 768 704 736 736 c 260,20,21
 704 768 704 768 672 768 c 262,22,-1
 272 768 l 262,23,24
 256 768 256 768 256 752 c 262,25,-1
 256 16 l 262,26,27
 256 0 256 0 240 0 c 262,28,-1
 144 0 l 262,29,30
 128 0 128 0 128 16 c 262,31,-1
 128 1264 l 262,32,33
 128 1280 128 1280 144 1280 c 262,0,-1
EndSplineSet
Validated: 19457
Layer: 2
SplineSet
142 1280 m 2,0,-1
 199 1280 l 2,1,2
 213 1280 213 1280 213 1266 c 2,3,-1
 213 953 l 6,4,5
 213 939 213 939 228 939 c 2,6,-1
 640 939 l 2,7,8
 725 939 725 939 810.5 853.5 c 128,-1,9
 896 768 896 768 896 683 c 2,10,-1
 896 14 l 2,11,12
 896 0 896 0 882 0 c 2,13,-1
 825 0 l 2,14,15
 811 0 811 0 811 14 c 2,16,-1
 811 683 l 2,17,18
 811 740 811 740 754 796.5 c 128,-1,19
 697 853 697 853 640 853 c 2,20,-1
 228 853 l 2,21,22
 214 853 214 853 213 839 c 2,23,-1
 213 14 l 2,24,25
 213 0 213 0 199 0 c 2,26,-1
 142 0 l 2,27,28
 128 0 128 0 128 14 c 2,29,-1
 128 1266 l 2,30,31
 128 1280 128 1280 142 1280 c 2,0,-1
EndSplineSet
Layer: 3
SplineSet
142 1280 m 2,0,-1
 231 1280 l 2,1,2
 245 1280 245 1280 245 1266 c 2,3,-1
 245 921 l 6,4,5
 245 907 245 907 260 907 c 6,6,-1
 640 907 l 6,7,8
 725 907 725 907 810.5 821.5 c 132,-1,9
 896 736 896 736 896 683 c 2,10,-1
 896 14 l 2,11,12
 896 0 896 0 882 0 c 2,13,-1
 793 0 l 2,14,15
 779 0 779 0 779 14 c 2,16,-1
 779 603 l 2,17,18
 779 660 779 660 722 716.5 c 128,-1,19
 665 773 665 773 640 773 c 2,20,-1
 260 773 l 2,21,22
 245 773 245 773 245 759 c 2,23,-1
 245 14 l 2,24,25
 245 0 245 0 231 0 c 2,26,-1
 142 0 l 2,27,28
 128 0 128 0 128 14 c 2,29,-1
 128 1266 l 2,30,31
 128 1280 128 1280 142 1280 c 2,0,-1
EndSplineSet
Colour: 8000
EndChar
StartChar: i
Encoding: 105 105 74
Width: 1024
VWidth: 0
Flags: W
HStem: 0 128<320 448 576 704> 768 128<320 448> 1024 256<448 576>
VStem: 448 128<128 768 1024 1280>
LayerCount: 3
Back
Fore
SplineSet
336 896 m 258,0,-1
 560 896 l 258,1,2
 576 896 576 896 576 880 c 258,3,-1
 576 144 l 258,4,5
 576 128 576 128 592 128 c 258,6,-1
 688 128 l 258,7,8
 704 128 704 128 704 112 c 258,9,-1
 704 16 l 258,10,11
 704 0 704 0 688 0 c 258,12,-1
 336 0 l 258,13,14
 320 0 320 0 320 16 c 258,15,-1
 320 112 l 258,16,17
 320 128 320 128 336 128 c 258,18,-1
 432 128 l 258,19,20
 448 128 448 128 448 144 c 258,21,-1
 448 752 l 258,22,23
 448 768 448 768 432 768 c 258,24,-1
 336 768 l 258,25,26
 320 768 320 768 320 784 c 258,27,-1
 320 880 l 258,28,29
 320 896 320 896 336 896 c 258,0,-1
464 1280 m 258,30,-1
 560 1280 l 258,31,32
 576 1280 576 1280 576 1264 c 258,33,-1
 576 1040 l 258,34,35
 576 1024 576 1024 560 1024 c 258,36,-1
 464 1024 l 258,37,38
 448 1024 448 1024 448 1040 c 258,39,-1
 448 1264 l 258,40,41
 448 1280 448 1280 464 1280 c 258,30,-1
EndSplineSet
Validated: 19457
Layer: 2
SplineSet
336 896 m 258,0,-1
 560 896 l 258,1,2
 576 896 576 896 576 880 c 258,3,-1
 576 144 l 258,4,5
 576 128 576 128 592 128 c 258,6,-1
 688 128 l 258,7,8
 704 128 704 128 704 112 c 258,9,-1
 704 16 l 258,10,11
 704 0 704 0 688 0 c 258,12,-1
 336 0 l 258,13,14
 320 0 320 0 320 16 c 258,15,-1
 320 112 l 258,16,17
 320 128 320 128 336 128 c 258,18,-1
 432 128 l 258,19,20
 448 128 448 128 448 144 c 258,21,-1
 448 752 l 258,22,23
 448 768 448 768 432 768 c 258,24,-1
 336 768 l 258,25,26
 320 768 320 768 320 784 c 258,27,-1
 320 880 l 258,28,29
 320 896 320 896 336 896 c 258,0,-1
464 1280 m 258,30,-1
 560 1280 l 258,31,32
 576 1280 576 1280 576 1264 c 258,33,-1
 576 1040 l 258,34,35
 576 1024 576 1024 560 1024 c 258,36,-1
 464 1024 l 258,37,38
 448 1024 448 1024 448 1040 c 258,39,-1
 448 1264 l 258,40,41
 448 1280 448 1280 464 1280 c 258,30,-1
EndSplineSet
Colour: 6600
EndChar
StartChar: j
Encoding: 106 106 75
Width: 1024
VWidth: 0
Flags: W
HStem: -320 128<342 682> -20 20G<200 312> 768 128<576 704> 1024 256<704 832>
VStem: 192 128<-170 0> 704 128<-158 768 1024 1280>
LayerCount: 3
Back
Fore
SplineSet
720 1280 m 258,0,-1
 816 1280 l 258,1,2
 832 1280 832 1280 832 1264 c 258,3,-1
 832 1040 l 258,4,5
 832 1024 832 1024 816 1024 c 258,6,-1
 720 1024 l 258,7,8
 704 1024 704 1024 704 1040 c 258,9,-1
 704 1264 l 258,10,11
 704 1280 704 1280 720 1280 c 258,0,-1
832 880 m 258,12,-1
 832 -128 l 258,13,14
 832 -192 832 -192 768 -256 c 256,15,16
 704 -320 704 -320 640 -320 c 258,17,-1
 384 -320 l 258,18,19
 320 -320 320 -320 256 -256 c 256,20,21
 192 -192 192 -192 192 -128 c 258,22,-1
 192 -16 l 258,23,24
 192 0 192 0 208 0 c 258,25,-1
 304 0 l 258,26,27
 320 0 320 0 320 -16 c 258,28,-1
 320 -96 l 258,29,30
 320 -128 320 -128 352 -160 c 256,31,32
 384 -192 384 -192 416 -192 c 258,33,-1
 608 -192 l 258,34,35
 640 -192 640 -192 672 -160 c 256,36,37
 704 -128 704 -128 704 -96 c 258,38,-1
 704 752 l 258,39,40
 704 768 704 768 688 768 c 258,41,-1
 592 768 l 258,42,43
 576 768 576 768 576 784 c 258,44,-1
 576 880 l 258,45,46
 576 896 576 896 592 896 c 258,47,-1
 816 896 l 258,48,49
 832 896 832 896 832 880 c 258,12,-1
EndSplineSet
Validated: 19457
Layer: 2
SplineSet
720 1280 m 258,0,-1
 816 1280 l 258,1,2
 832 1280 832 1280 832 1264 c 258,3,-1
 832 1040 l 258,4,5
 832 1024 832 1024 816 1024 c 258,6,-1
 720 1024 l 258,7,8
 704 1024 704 1024 704 1040 c 258,9,-1
 704 1264 l 258,10,11
 704 1280 704 1280 720 1280 c 258,0,-1
832 880 m 258,12,-1
 832 -128 l 258,13,14
 832 -192 832 -192 768 -256 c 256,15,16
 704 -320 704 -320 640 -320 c 258,17,-1
 384 -320 l 258,18,19
 320 -320 320 -320 256 -256 c 256,20,21
 192 -192 192 -192 192 -128 c 258,22,-1
 192 -16 l 258,23,24
 192 0 192 0 208 0 c 258,25,-1
 304 0 l 258,26,27
 320 0 320 0 320 -16 c 258,28,-1
 320 -96 l 258,29,30
 320 -128 320 -128 352 -160 c 256,31,32
 384 -192 384 -192 416 -192 c 258,33,-1
 608 -192 l 258,34,35
 640 -192 640 -192 672 -160 c 256,36,37
 704 -128 704 -128 704 -96 c 258,38,-1
 704 752 l 258,39,40
 704 768 704 768 688 768 c 258,41,-1
 592 768 l 258,42,43
 576 768 576 768 576 784 c 258,44,-1
 576 880 l 258,45,46
 576 896 576 896 592 896 c 258,47,-1
 816 896 l 258,48,49
 832 896 832 896 832 880 c 258,12,-1
EndSplineSet
Colour: 6600
EndChar
StartChar: k
Encoding: 107 107 76
Width: 1024
VWidth: 0
Flags: W
HStem: 0 21G<136 248 776 888> 876 20G<776 888> 1260 20G<136 248>
VStem: 128 128<0 180 384.004 1280> 768 128<0 333.5 820 896>
DStem2: 704 576 608 480 0.707107 -0.707107<-22.6274 243.245> 752 848 384 288 0.707107 0.707107<-667.152 -362.039 -226.274 111.712>
LayerCount: 3
Back
Fore
SplineSet
144 1280 m 258,0,-1
 240 1280 l 258,1,2
 256 1280 256 1280 256 1264 c 258,3,-1
 256 400 l 258,4,5
 256 384 256 384 272 384 c 280,6,7
 288 384 288 384 304 400 c 258,8,-1
 752 848 l 258,9,10
 768 864 768 864 768 880 c 280,11,12
 768 896 768 896 784 896 c 258,13,-1
 880 896 l 258,14,15
 896 896 896 896 896 880 c 258,16,-1
 896 864 l 258,17,18
 896 800 896 800 832 736 c 258,19,-1
 704 608 l 274,20,21
 688 592 688 592 704 576 c 282,22,-1
 736 544 l 258,23,24
 896 384 896 384 896 224 c 258,25,-1
 896 16 l 258,26,27
 896 0 896 0 880 0 c 258,28,-1
 784 0 l 258,29,30
 768 0 768 0 768 16 c 258,31,-1
 768 176 l 258,32,33
 768 320 768 320 624 464 c 258,34,-1
 608 480 l 274,35,36
 592 496 592 496 576 480 c 258,37,-1
 384 288 l 282,38,39
 256 160 256 160 256 32 c 258,40,-1
 256 16 l 258,41,42
 256 0 256 0 240 0 c 258,43,-1
 144 0 l 258,44,45
 128 0 128 0 128 16 c 258,46,-1
 128 1264 l 258,47,48
 128 1280 128 1280 144 1280 c 258,0,-1
EndSplineSet
Validated: 19457
Layer: 2
SplineSet
144 1280 m 258,0,-1
 240 1280 l 258,1,2
 256 1280 256 1280 256 1264 c 258,3,-1
 256 400 l 258,4,5
 256 384 256 384 272 384 c 280,6,7
 288 384 288 384 304 400 c 258,8,-1
 752 848 l 258,9,10
 768 864 768 864 768 880 c 280,11,12
 768 896 768 896 784 896 c 258,13,-1
 880 896 l 258,14,15
 896 896 896 896 896 880 c 258,16,-1
 896 864 l 258,17,18
 896 800 896 800 832 736 c 258,19,-1
 704 608 l 274,20,21
 688 592 688 592 704 576 c 282,22,-1
 736 544 l 258,23,24
 896 384 896 384 896 224 c 258,25,-1
 896 16 l 258,26,27
 896 0 896 0 880 0 c 258,28,-1
 784 0 l 258,29,30
 768 0 768 0 768 16 c 258,31,-1
 768 176 l 258,32,33
 768 320 768 320 624 464 c 258,34,-1
 608 480 l 274,35,36
 592 496 592 496 576 480 c 258,37,-1
 384 288 l 282,38,39
 256 160 256 160 256 32 c 258,40,-1
 256 16 l 258,41,42
 256 0 256 0 240 0 c 258,43,-1
 144 0 l 258,44,45
 128 0 128 0 128 16 c 258,46,-1
 128 1264 l 258,47,48
 128 1280 128 1280 144 1280 c 258,0,-1
EndSplineSet
Colour: 6600
EndChar
StartChar: l
Encoding: 108 108 77
Width: 1024
VWidth: 0
Flags: W
HStem: 0 128<320 448 576 704> 1152 128<320 448>
VStem: 448 128<128 1152>
LayerCount: 3
Back
Fore
SplineSet
336 1280 m 258,0,-1
 560 1280 l 258,1,2
 576 1280 576 1280 576 1264 c 258,3,-1
 576 144 l 258,4,5
 576 128 576 128 592 128 c 258,6,-1
 688 128 l 258,7,8
 704 128 704 128 704 112 c 258,9,-1
 704 16 l 258,10,11
 704 0 704 0 688 0 c 258,12,-1
 336 0 l 258,13,14
 320 0 320 0 320 16 c 258,15,-1
 320 112 l 258,16,17
 320 128 320 128 336 128 c 258,18,-1
 432 128 l 258,19,20
 448 128 448 128 448 144 c 258,21,-1
 448 1136 l 258,22,23
 448 1152 448 1152 432 1152 c 258,24,-1
 336 1152 l 258,25,26
 320 1152 320 1152 320 1168 c 258,27,-1
 320 1264 l 258,28,29
 320 1280 320 1280 336 1280 c 258,0,-1
EndSplineSet
Validated: 19457
Layer: 2
SplineSet
336 1280 m 258,0,-1
 560 1280 l 258,1,2
 576 1280 576 1280 576 1264 c 258,3,-1
 576 144 l 258,4,5
 576 128 576 128 592 128 c 258,6,-1
 688 128 l 258,7,8
 704 128 704 128 704 112 c 258,9,-1
 704 16 l 258,10,11
 704 0 704 0 688 0 c 258,12,-1
 336 0 l 258,13,14
 320 0 320 0 320 16 c 258,15,-1
 320 112 l 258,16,17
 320 128 320 128 336 128 c 258,18,-1
 432 128 l 258,19,20
 448 128 448 128 448 144 c 258,21,-1
 448 1136 l 258,22,23
 448 1152 448 1152 432 1152 c 258,24,-1
 336 1152 l 258,25,26
 320 1152 320 1152 320 1168 c 258,27,-1
 320 1264 l 258,28,29
 320 1280 320 1280 336 1280 c 258,0,-1
EndSplineSet
Colour: 6600
EndChar
StartChar: m
Encoding: 109 109 78
Width: 1024
VWidth: 0
Flags: W
HStem: 0 21G<136 248 456 568 776 888> 768 128<256 448 576 746>
VStem: 128 128<0 768> 448 128<0 768> 768 128<0 734>
CounterMasks: 1 38
LayerCount: 3
Back
Fore
SplineSet
784 0 m 258,0,1
 768 0 768 0 768 16 c 258,2,-1
 768 672 l 258,3,4
 768 704 768 704 736 736 c 256,5,6
 704 768 704 768 672 768 c 258,7,-1
 592 768 l 258,8,9
 576 768 576 768 576 752 c 258,10,-1
 576 16 l 258,11,12
 576 0 576 0 560 0 c 258,13,-1
 464 0 l 258,14,15
 448 0 448 0 448 16 c 258,16,-1
 448 752 l 258,17,18
 448 768 448 768 432 768 c 258,19,-1
 272 768 l 258,20,21
 256 768 256 768 256 752 c 258,22,-1
 256 16 l 258,23,24
 256 0 256 0 240 0 c 258,25,-1
 144 0 l 258,26,27
 128 0 128 0 128 16 c 258,28,-1
 128 880 l 258,29,30
 128 896 128 896 144 896 c 258,31,-1
 704 896 l 258,32,33
 768 896 768 896 832 832 c 256,34,35
 896 768 896 768 896 704 c 258,36,-1
 896 16 l 258,37,38
 896 0 896 0 880 0 c 258,39,-1
 784 0 l 258,0,1
EndSplineSet
Validated: 19457
Layer: 2
SplineSet
784 0 m 258,0,1
 768 0 768 0 768 16 c 258,2,-1
 768 672 l 258,3,4
 768 704 768 704 736 736 c 256,5,6
 704 768 704 768 672 768 c 258,7,-1
 592 768 l 258,8,9
 576 768 576 768 576 752 c 258,10,-1
 576 16 l 258,11,12
 576 0 576 0 560 0 c 258,13,-1
 464 0 l 258,14,15
 448 0 448 0 448 16 c 258,16,-1
 448 752 l 258,17,18
 448 768 448 768 432 768 c 258,19,-1
 272 768 l 258,20,21
 256 768 256 768 256 752 c 258,22,-1
 256 16 l 258,23,24
 256 0 256 0 240 0 c 258,25,-1
 144 0 l 258,26,27
 128 0 128 0 128 16 c 258,28,-1
 128 880 l 258,29,30
 128 896 128 896 144 896 c 258,31,-1
 704 896 l 258,32,33
 768 896 768 896 832 832 c 256,34,35
 896 768 896 768 896 704 c 258,36,-1
 896 16 l 258,37,38
 896 0 896 0 880 0 c 258,39,-1
 784 0 l 258,0,1
EndSplineSet
Colour: 6600
EndChar
StartChar: n
Encoding: 110 110 79
Width: 1024
VWidth: 0
Flags: W
HStem: 0 21G<136 248 776 888> 768 128<256 746>
VStem: 128 128<0 768> 768 128<0 734>
LayerCount: 3
Back
Fore
SplineSet
784 0 m 258,0,1
 768 0 768 0 768 16 c 258,2,-1
 768 672 l 258,3,4
 768 704 768 704 736 736 c 256,5,6
 704 768 704 768 672 768 c 258,7,-1
 272 768 l 258,8,9
 256 768 256 768 256 752 c 258,10,-1
 256 16 l 258,11,12
 256 0 256 0 240 0 c 258,13,-1
 144 0 l 258,14,15
 128 0 128 0 128 16 c 258,16,-1
 128 880 l 258,17,18
 128 896 128 896 144 896 c 258,19,-1
 704 896 l 258,20,21
 768 896 768 896 832 832 c 256,22,23
 896 768 896 768 896 704 c 258,24,-1
 896 16 l 258,25,26
 896 0 896 0 880 0 c 258,27,-1
 784 0 l 258,0,1
EndSplineSet
Validated: 19457
Layer: 2
SplineSet
784 0 m 258,0,1
 768 0 768 0 768 16 c 258,2,-1
 768 672 l 258,3,4
 768 704 768 704 736 736 c 256,5,6
 704 768 704 768 672 768 c 258,7,-1
 272 768 l 258,8,9
 256 768 256 768 256 752 c 258,10,-1
 256 16 l 258,11,12
 256 0 256 0 240 0 c 258,13,-1
 144 0 l 258,14,15
 128 0 128 0 128 16 c 258,16,-1
 128 880 l 258,17,18
 128 896 128 896 144 896 c 258,19,-1
 704 896 l 258,20,21
 768 896 768 896 832 832 c 256,22,23
 896 768 896 768 896 704 c 258,24,-1
 896 16 l 258,25,26
 896 0 896 0 880 0 c 258,27,-1
 784 0 l 258,0,1
EndSplineSet
Colour: 6600
EndChar
StartChar: o
Encoding: 111 111 80
Width: 1024
VWidth: 0
Flags: W
HStem: 0 128<278 746> 768 128<278 746>
VStem: 128 128<150 746> 768 128<162 734>
LayerCount: 3
Back
Fore
SplineSet
256 224 m 258,0,1
 256 192 256 192 288 160 c 256,2,3
 320 128 320 128 352 128 c 258,4,-1
 672 128 l 258,5,6
 704 128 704 128 736 160 c 256,7,8
 768 192 768 192 768 224 c 258,9,-1
 768 672 l 258,10,11
 768 704 768 704 736 736 c 256,12,13
 704 768 704 768 672 768 c 258,14,-1
 352 768 l 258,15,16
 320 768 320 768 288 736 c 256,17,18
 256 704 256 704 256 672 c 258,19,-1
 256 224 l 258,0,1
128 192 m 258,20,-1
 128 704 l 258,21,22
 128 768 128 768 192 832 c 256,23,24
 256 896 256 896 320 896 c 258,25,-1
 704 896 l 258,26,27
 768 896 768 896 832 832 c 256,28,29
 896 768 896 768 896 704 c 258,30,-1
 896 192 l 258,31,32
 896 128 896 128 832 64 c 256,33,34
 768 0 768 0 704 0 c 258,35,-1
 320 0 l 258,36,37
 256 0 256 0 192 64 c 256,38,39
 128 128 128 128 128 192 c 258,20,-1
EndSplineSet
Validated: 19457
Layer: 2
SplineSet
256 224 m 258,0,1
 256 192 256 192 288 160 c 256,2,3
 320 128 320 128 352 128 c 258,4,-1
 672 128 l 258,5,6
 704 128 704 128 736 160 c 256,7,8
 768 192 768 192 768 224 c 258,9,-1
 768 672 l 258,10,11
 768 704 768 704 736 736 c 256,12,13
 704 768 704 768 672 768 c 258,14,-1
 352 768 l 258,15,16
 320 768 320 768 288 736 c 256,17,18
 256 704 256 704 256 672 c 258,19,-1
 256 224 l 258,0,1
128 192 m 258,20,-1
 128 704 l 258,21,22
 128 768 128 768 192 832 c 256,23,24
 256 896 256 896 320 896 c 258,25,-1
 704 896 l 258,26,27
 768 896 768 896 832 832 c 256,28,29
 896 768 896 768 896 704 c 258,30,-1
 896 192 l 258,31,32
 896 128 896 128 832 64 c 256,33,34
 768 0 768 0 704 0 c 258,35,-1
 320 0 l 258,36,37
 256 0 256 0 192 64 c 256,38,39
 128 128 128 128 128 192 c 258,20,-1
EndSplineSet
Colour: 6600
EndChar
StartChar: p
Encoding: 112 112 81
Width: 1024
VWidth: 0
UnlinkRmOvrlpSave: 1
Flags: W
HStem: -320 21G<136 248> 0 128<256 746> 768 128<256 746>
VStem: 128 128<-320 0 128 768> 768 128<162 734>
LayerCount: 3
Back
Fore
SplineSet
272 128 m 282,0,1
 672 128 l 258,2,3
 704 128 704 128 736 160 c 256,4,5
 768 192 768 192 768 224 c 258,6,-1
 768 672 l 258,7,8
 768 704 768 704 736 736 c 256,9,10
 704 768 704 768 672 768 c 258,11,-1
 272 768 l 258,12,13
 256 768 256 768 256 752 c 258,14,-1
 256 144 l 258,15,16
 256 128 256 128 272 128 c 282,0,1
128 -304 m 258,17,-1
 128 880 l 258,18,19
 128 896 128 896 144 896 c 258,20,-1
 704 896 l 258,21,22
 768 896 768 896 832 832 c 256,23,24
 896 768 896 768 896 704 c 258,25,-1
 896 192 l 258,26,27
 896 128 896 128 832 64 c 256,28,29
 768 0 768 0 704 0 c 258,30,-1
 272 0 l 258,31,32
 256 0 256 0 256 -16 c 258,33,-1
 256 -304 l 258,34,35
 256 -320 256 -320 240 -320 c 258,36,-1
 144 -320 l 258,37,38
 128 -320 128 -320 128 -304 c 258,17,-1
EndSplineSet
Layer: 2
SplineSet
272 128 m 282,0,1
 672 128 l 258,2,3
 704 128 704 128 736 160 c 256,4,5
 768 192 768 192 768 224 c 258,6,-1
 768 672 l 258,7,8
 768 704 768 704 736 736 c 256,9,10
 704 768 704 768 672 768 c 258,11,-1
 272 768 l 258,12,13
 256 768 256 768 256 752 c 258,14,-1
 256 144 l 258,15,16
 256 128 256 128 272 128 c 282,0,1
128 -304 m 258,17,-1
 128 880 l 258,18,19
 128 896 128 896 144 896 c 258,20,-1
 704 896 l 258,21,22
 768 896 768 896 832 832 c 256,23,24
 896 768 896 768 896 704 c 258,25,-1
 896 192 l 258,26,27
 896 128 896 128 832 64 c 256,28,29
 768 0 768 0 704 0 c 258,30,-1
 272 0 l 258,31,32
 256 0 256 0 256 -16 c 258,33,-1
 256 -304 l 258,34,35
 256 -320 256 -320 240 -320 c 258,36,-1
 144 -320 l 258,37,38
 128 -320 128 -320 128 -304 c 258,17,-1
EndSplineSet
Colour: 6600
EndChar
StartChar: q
Encoding: 113 113 82
Width: 1024
VWidth: 0
UnlinkRmOvrlpSave: 1
Flags: W
HStem: -320 21G<776 888> 0 128<278 768> 768 128<278 768>
VStem: 128 128<150 746> 768 128<-320 -1.6e-07 128 768>
LayerCount: 3
Back
Fore
SplineSet
752 128 m 282,0,1
 768 128 768 128 768 144 c 258,2,-1
 768 752 l 258,3,4
 768 768 768 768 752 768 c 258,5,-1
 352 768 l 258,6,7
 320 768 320 768 288 736 c 256,8,9
 256 704 256 704 256 672 c 258,10,-1
 256 224 l 258,11,12
 256 192 256 192 288 160 c 256,13,14
 320 128 320 128 352 128 c 258,15,-1
 752 128 l 282,0,1
896 -304 m 258,16,17
 896 -320 896 -320 880 -320 c 258,18,-1
 784 -320 l 258,19,20
 768 -320 768 -320 768 -304 c 258,21,-1
 768 -16 l 258,22,23
 768 0 768 0 752 0 c 258,24,-1
 320 0 l 258,25,26
 256 0 256 0 192 64 c 256,27,28
 128 128 128 128 128 192 c 258,29,-1
 128 704 l 258,30,31
 128 768 128 768 192 832 c 256,32,33
 256 896 256 896 320 896 c 258,34,-1
 880 896 l 258,35,36
 896 896 896 896 896 880 c 258,37,-1
 896 -304 l 258,16,17
EndSplineSet
Layer: 2
SplineSet
752 128 m 282,0,1
 768 128 768 128 768 144 c 258,2,-1
 768 752 l 258,3,4
 768 768 768 768 752 768 c 258,5,-1
 352 768 l 258,6,7
 320 768 320 768 288 736 c 256,8,9
 256 704 256 704 256 672 c 258,10,-1
 256 224 l 258,11,12
 256 192 256 192 288 160 c 256,13,14
 320 128 320 128 352 128 c 258,15,-1
 752 128 l 282,0,1
896 -304 m 258,16,17
 896 -320 896 -320 880 -320 c 258,18,-1
 784 -320 l 258,19,20
 768 -320 768 -320 768 -304 c 258,21,-1
 768 -16 l 258,22,23
 768 0 768 0 752 0 c 258,24,-1
 320 0 l 258,25,26
 256 0 256 0 192 64 c 256,27,28
 128 128 128 128 128 192 c 258,29,-1
 128 704 l 258,30,31
 128 768 128 768 192 832 c 256,32,33
 256 896 256 896 320 896 c 258,34,-1
 880 896 l 258,35,36
 896 896 896 896 896 880 c 258,37,-1
 896 -304 l 258,16,17
EndSplineSet
Colour: 6600
EndChar
StartChar: r
Encoding: 114 114 83
Width: 1024
VWidth: 0
Flags: W
HStem: 0 21G<136 248> 768 128<470.5 896>
VStem: 128 128<0 556.5 769.32 896>
DStem2: 352 800 288 544 0.707107 0.707107<-84.8473 134.339>
LayerCount: 3
Back
Fore
SplineSet
256 16 m 258,0,1
 256 0 256 0 240 0 c 258,2,-1
 144 0 l 258,3,4
 128 0 128 0 128 16 c 258,5,-1
 128 880 l 258,6,7
 128 896 128 896 144 896 c 258,8,-1
 240 896 l 258,9,10
 256 896 256 896 256 880 c 258,11,-1
 256 784 l 258,12,13
 256 768 256 768 272 768 c 258,14,-1
 288 768 l 258,15,16
 320 768 320 768 352 800 c 258,17,-1
 368 816 l 258,18,19
 448 896 448 896 528 896 c 258,20,-1
 880 896 l 258,21,22
 896 896 896 896 896 880 c 258,23,-1
 896 784 l 258,24,25
 896 768 896 768 880 768 c 258,26,-1
 576 768 l 258,27,28
 512 768 512 768 448 704 c 258,29,-1
 288 544 l 258,30,31
 256 512 256 512 256 480 c 258,32,-1
 256 16 l 258,0,1
EndSplineSet
Validated: 19457
Layer: 2
SplineSet
256 16 m 258,0,1
 256 0 256 0 240 0 c 258,2,-1
 144 0 l 258,3,4
 128 0 128 0 128 16 c 258,5,-1
 128 880 l 258,6,7
 128 896 128 896 144 896 c 258,8,-1
 240 896 l 258,9,10
 256 896 256 896 256 880 c 258,11,-1
 256 784 l 258,12,13
 256 768 256 768 272 768 c 258,14,-1
 288 768 l 258,15,16
 320 768 320 768 352 800 c 258,17,-1
 368 816 l 258,18,19
 448 896 448 896 528 896 c 258,20,-1
 880 896 l 258,21,22
 896 896 896 896 896 880 c 258,23,-1
 896 784 l 258,24,25
 896 768 896 768 880 768 c 258,26,-1
 576 768 l 258,27,28
 512 768 512 768 448 704 c 258,29,-1
 288 544 l 258,30,31
 256 512 256 512 256 480 c 258,32,-1
 256 16 l 258,0,1
EndSplineSet
Colour: 6600
EndChar
StartChar: s
Encoding: 115 115 84
Width: 1024
VWidth: 0
Flags: W
HStem: 0 128<278 746> 384 128<278 746> 768 128<278 746>
VStem: 128 128<150 256 534 746> 768 128<162 350 640 734>
CounterMasks: 1 e0
LayerCount: 3
Back
Fore
SplineSet
880 640 m 258,0,-1
 784 640 l 258,1,2
 768 640 768 640 768 656 c 258,3,4
 768 672 l 258,5,6
 768 704 768 704 736 736 c 256,7,8
 704 768 704 768 672 768 c 258,9,-1
 352 768 l 258,10,11
 320 768 320 768 288 736 c 256,12,13
 256 704 256 704 256 672 c 258,14,-1
 256 608 l 258,15,16
 256 576 256 576 288 544 c 256,17,18
 320 512 320 512 352 512 c 258,19,-1
 704 512 l 258,20,21
 768 512 768 512 832 448 c 256,22,23
 896 384 896 384 896 320 c 258,24,-1
 896 192 l 258,25,26
 896 128 896 128 832 64 c 256,27,28
 768 0 768 0 704 0 c 258,29,-1
 320 0 l 258,30,31
 256 0 256 0 192 64 c 256,32,33
 128 128 128 128 128 192 c 258,34,-1
 128 240 l 258,35,36
 128 256 128 256 144 256 c 258,37,-1
 240 256 l 258,38,39
 256 256 256 256 256 240 c 258,40,-1
 256 224 l 258,41,42
 256 192 256 192 288 160 c 256,43,44
 320 128 320 128 352 128 c 258,45,-1
 672 128 l 258,46,47
 704 128 704 128 736 160 c 256,48,49
 768 192 768 192 768 224 c 258,50,-1
 768 288 l 258,51,52
 768 320 768 320 736 352 c 256,53,54
 704 384 704 384 672 384 c 258,55,-1
 320 384 l 258,56,57
 256 384 256 384 192 448 c 256,58,59
 128 512 128 512 128 576 c 258,60,-1
 128 704 l 258,61,62
 128 768 128 768 192 832 c 256,63,64
 256 896 256 896 320 896 c 258,65,-1
 704 896 l 258,66,67
 768 896 768 896 832 832 c 256,68,69
 896 768 896 768 896 704 c 258,70,-1
 896 656 l 258,71,72
 896 640 896 640 880 640 c 258,0,-1
EndSplineSet
Validated: 19457
Layer: 2
SplineSet
880 640 m 258,0,-1
 784 640 l 258,1,2
 768 640 768 640 768 656 c 258,3,4
 768 672 l 258,5,6
 768 704 768 704 736 736 c 256,7,8
 704 768 704 768 672 768 c 258,9,-1
 352 768 l 258,10,11
 320 768 320 768 288 736 c 256,12,13
 256 704 256 704 256 672 c 258,14,-1
 256 608 l 258,15,16
 256 576 256 576 288 544 c 256,17,18
 320 512 320 512 352 512 c 258,19,-1
 704 512 l 258,20,21
 768 512 768 512 832 448 c 256,22,23
 896 384 896 384 896 320 c 258,24,-1
 896 192 l 258,25,26
 896 128 896 128 832 64 c 256,27,28
 768 0 768 0 704 0 c 258,29,-1
 320 0 l 258,30,31
 256 0 256 0 192 64 c 256,32,33
 128 128 128 128 128 192 c 258,34,-1
 128 240 l 258,35,36
 128 256 128 256 144 256 c 258,37,-1
 240 256 l 258,38,39
 256 256 256 256 256 240 c 258,40,-1
 256 224 l 258,41,42
 256 192 256 192 288 160 c 256,43,44
 320 128 320 128 352 128 c 258,45,-1
 672 128 l 258,46,47
 704 128 704 128 736 160 c 256,48,49
 768 192 768 192 768 224 c 258,50,-1
 768 288 l 258,51,52
 768 320 768 320 736 352 c 256,53,54
 704 384 704 384 672 384 c 258,55,-1
 320 384 l 258,56,57
 256 384 256 384 192 448 c 256,58,59
 128 512 128 512 128 576 c 258,60,-1
 128 704 l 258,61,62
 128 768 128 768 192 832 c 256,63,64
 256 896 256 896 320 896 c 258,65,-1
 704 896 l 258,66,67
 768 896 768 896 832 832 c 256,68,69
 896 768 896 768 896 704 c 258,70,-1
 896 656 l 258,71,72
 896 640 896 640 880 640 c 258,0,-1
EndSplineSet
Colour: 6600
EndChar
StartChar: t
Encoding: 116 116 85
Width: 1024
VWidth: 0
Flags: W
HStem: 0 128<534 896> 768 128<128 384 512 768> 1260 20G<392 504>
VStem: 384 128<150 768 896 1280>
LayerCount: 3
Back
Fore
SplineSet
880 0 m 258,0,-1
 576 0 l 258,1,2
 512 0 512 0 448 64 c 256,3,4
 384 128 384 128 384 192 c 258,5,-1
 384 752 l 258,6,7
 384 768 384 768 368 768 c 258,8,-1
 144 768 l 258,9,10
 128 768 128 768 128 784 c 258,11,-1
 128 880 l 258,12,13
 128 896 128 896 144 896 c 258,14,-1
 368 896 l 258,15,16
 384 896 384 896 384 912 c 258,17,-1
 384 1264 l 258,18,19
 384 1280 384 1280 400 1280 c 258,20,-1
 496 1280 l 258,21,22
 512 1280 512 1280 512 1264 c 258,23,-1
 512 912 l 258,24,25
 512 896 512 896 528 896 c 258,26,-1
 752 896 l 258,27,28
 768 896 768 896 768 880 c 258,29,-1
 768 784 l 258,30,31
 768 768 768 768 752 768 c 258,32,-1
 528 768 l 258,33,34
 512 768 512 768 512 752 c 258,35,-1
 512 224 l 258,36,37
 512 192 512 192 544 160 c 256,38,39
 576 128 576 128 608 128 c 258,40,-1
 880 128 l 258,41,42
 896 128 896 128 896 112 c 258,43,-1
 896 16 l 258,44,45
 896 0 896 0 880 0 c 258,0,-1
EndSplineSet
Validated: 19457
Layer: 2
SplineSet
880 0 m 258,0,-1
 576 0 l 258,1,2
 512 0 512 0 448 64 c 256,3,4
 384 128 384 128 384 192 c 258,5,-1
 384 752 l 258,6,7
 384 768 384 768 368 768 c 258,8,-1
 144 768 l 258,9,10
 128 768 128 768 128 784 c 258,11,-1
 128 880 l 258,12,13
 128 896 128 896 144 896 c 258,14,-1
 368 896 l 258,15,16
 384 896 384 896 384 912 c 258,17,-1
 384 1264 l 258,18,19
 384 1280 384 1280 400 1280 c 258,20,-1
 496 1280 l 258,21,22
 512 1280 512 1280 512 1264 c 258,23,-1
 512 912 l 258,24,25
 512 896 512 896 528 896 c 258,26,-1
 752 896 l 258,27,28
 768 896 768 896 768 880 c 258,29,-1
 768 784 l 258,30,31
 768 768 768 768 752 768 c 258,32,-1
 528 768 l 258,33,34
 512 768 512 768 512 752 c 258,35,-1
 512 224 l 258,36,37
 512 192 512 192 544 160 c 256,38,39
 576 128 576 128 608 128 c 258,40,-1
 880 128 l 258,41,42
 896 128 896 128 896 112 c 258,43,-1
 896 16 l 258,44,45
 896 0 896 0 880 0 c 258,0,-1
EndSplineSet
Colour: 6600
EndChar
StartChar: v
Encoding: 118 118 87
Width: 1024
VWidth: 0
Flags: MW
LayerCount: 5
Back
Fore
SplineSet
480 16 m 262,0,-1
 416 80 l 262,1,2
 128 368 128 368 128 656 c 262,3,-1
 128 880 l 262,4,5
 128 896 128 896 144 896 c 262,6,-1
 240 896 l 262,7,8
 256 896 256 896 256 880 c 262,9,-1
 256 656 l 262,10,11
 256 432 256 432 480 208 c 262,12,13
 496 192 l 262,14,15
 512 176 512 176 528 192 c 262,16,-1
 544 208 l 262,17,18
 768 432 768 432 768 656 c 262,19,-1
 768 880 l 262,20,21
 768 896 768 896 784 896 c 262,22,-1
 880 896 l 262,23,24
 896 896 896 896 896 880 c 262,25,-1
 896 656 l 262,26,27
 896 368 896 368 608 80 c 262,28,-1
 544 16 l 262,29,30
 512 -16 512 -16 480 16 c 262,0,-1
EndSplineSet
Validated: 19457
Layer: 2
SplineSet
498 14 m 2,0,-1
 441 71 l 2,1,2
 128 384 128 384 128 697 c 2,3,-1
 128 924 l 2,4,5
 128 938 128 938 142 939 c 2,6,-1
 199 939 l 2,7,8
 213 939 213 939 213 924 c 2,9,-1
 213 697 l 2,10,11
 213 413 213 413 498 128 c 0,12,13
 512 114 512 114 526 128 c 0,14,15
 810 412 810 412 811 697 c 2,16,-1
 811 924 l 2,17,18
 811 938 811 938 825 939 c 2,19,-1
 882 939 l 2,20,21
 896 939 896 939 896 924 c 2,22,-1
 896 697 l 2,23,24
 896 384 896 384 583 71 c 2,25,-1
 526 14 l 2,26,27
 512 0 512 0 498 14 c 2,0,-1
EndSplineSet
Layer: 3
SplineSet
480 16 m 258,0,-1
 416 80 l 258,1,2
 128 368 128 368 128 656 c 258,3,-1
 128 880 l 258,4,5
 128 896 128 896 144 896 c 258,6,-1
 240 896 l 258,7,8
 256 896 256 896 256 880 c 258,9,-1
 256 656 l 258,10,11
 256 432 256 432 480 208 c 258,12,13
 496 192 l 258,14,15
 512 176 512 176 528 192 c 258,16,-1
 544 208 l 258,17,18
 768 432 768 432 768 656 c 258,19,-1
 768 880 l 258,20,21
 768 896 768 896 784 896 c 258,22,-1
 880 896 l 258,23,24
 896 896 896 896 896 880 c 258,25,-1
 896 656 l 258,26,27
 896 368 896 368 608 80 c 258,28,-1
 544 16 l 258,29,30
 512 -16 512 -16 480 16 c 258,0,-1
EndSplineSet
Comment: "U+-0078 LATIN SMALL LETTER X, U+-0056 LATIN CAPITAL LETTER V, U+-0058 LATIN CAPITAL LETTER X, U+-0059 LATIN CAPITAL LETTER Y and partially U+-004D LATIN CAPITAL LETTER M are heavily based off this Glyph."
Colour: 6600
EndChar
StartChar: w
Encoding: 119 119 88
Width: 1024
VWidth: 0
Flags: W
HStem: 0 128<278 448 576 746> 876 20G<136 248 776 888>
VStem: 128 128<150 896> 448 128<128 640> 768 128<162 896>
CounterMasks: 1 38
LayerCount: 3
Back
Fore
SplineSet
784 896 m 258,0,-1
 880 896 l 258,1,2
 896 896 896 896 896 880 c 258,3,-1
 896 192 l 258,4,5
 896 128 896 128 832 64 c 256,6,7
 768 0 768 0 704 0 c 258,8,-1
 320 0 l 258,9,10
 256 0 256 0 192 64 c 256,11,12
 128 128 128 128 128 192 c 258,13,-1
 128 880 l 258,14,15
 128 896 128 896 144 896 c 258,16,-1
 240 896 l 258,17,18
 256 896 256 896 256 880 c 258,19,-1
 256 224 l 258,20,21
 256 192 256 192 288 160 c 256,22,23
 320 128 320 128 352 128 c 258,24,-1
 432 128 l 258,25,26
 448 128 448 128 448 144 c 258,27,-1
 448 624 l 258,28,29
 448 640 448 640 464 640 c 258,30,-1
 560 640 l 258,31,32
 576 640 576 640 576 624 c 258,33,-1
 576 144 l 258,34,35
 576 128 576 128 592 128 c 258,36,-1
 672 128 l 258,37,38
 704 128 704 128 736 160 c 256,39,40
 768 192 768 192 768 224 c 258,41,-1
 768 880 l 258,42,43
 768 896 768 896 784 896 c 258,0,-1
EndSplineSet
Validated: 19457
Layer: 2
SplineSet
784 896 m 258,0,-1
 880 896 l 258,1,2
 896 896 896 896 896 880 c 258,3,-1
 896 192 l 258,4,5
 896 128 896 128 832 64 c 256,6,7
 768 0 768 0 704 0 c 258,8,-1
 320 0 l 258,9,10
 256 0 256 0 192 64 c 256,11,12
 128 128 128 128 128 192 c 258,13,-1
 128 880 l 258,14,15
 128 896 128 896 144 896 c 258,16,-1
 240 896 l 258,17,18
 256 896 256 896 256 880 c 258,19,-1
 256 224 l 258,20,21
 256 192 256 192 288 160 c 256,22,23
 320 128 320 128 352 128 c 258,24,-1
 432 128 l 258,25,26
 448 128 448 128 448 144 c 258,27,-1
 448 624 l 258,28,29
 448 640 448 640 464 640 c 258,30,-1
 560 640 l 258,31,32
 576 640 576 640 576 624 c 258,33,-1
 576 144 l 258,34,35
 576 128 576 128 592 128 c 258,36,-1
 672 128 l 258,37,38
 704 128 704 128 736 160 c 256,39,40
 768 192 768 192 768 224 c 258,41,-1
 768 880 l 258,42,43
 768 896 768 896 784 896 c 258,0,-1
EndSplineSet
Colour: 6600
EndChar
StartChar: x
Encoding: 120 120 89
Width: 1024
VWidth: 0
Flags: W
HStem: 0 21G<136 248 776 888> 876 20G<136 248 776 888>
VStem: 128 128<0 136 760 896> 768 128<0 136 760 896>
DStem2: 320 736 256 608 0.707107 -0.707107<-133.798 271.529 407.294 812.62> 256 288 320 160 0.707107 0.707107<-179.053 226.274 362.039 767.366>
LayerCount: 3
Back
Fore
SplineSet
400 464 m 258,0,-1
 256 608 l 258,1,2
 128 736 128 736 128 864 c 258,3,-1
 128 880 l 258,4,5
 128 896 128 896 144 896 c 258,6,-1
 240 896 l 258,7,8
 256 896 256 896 256 880 c 258,9,-1
 256 864 l 258,10,11
 256 800 256 800 320 736 c 258,12,-1
 496 560 l 258,13,14
 512 544 512 544 528 560 c 258,15,-1
 704 736 l 258,16,17
 768 800 768 800 768 864 c 258,18,-1
 768 880 l 258,19,20
 768 896 768 896 784 896 c 258,21,-1
 880 896 l 258,22,23
 896 896 896 896 896 880 c 258,24,-1
 896 864 l 258,25,26
 896 736 896 736 768 608 c 258,27,-1
 624 464 l 258,28,29
 608 448 608 448 624 432 c 258,30,-1
 768 288 l 258,31,32
 896 160 896 160 896 32 c 258,33,-1
 896 16 l 258,34,35
 896 0 896 0 880 0 c 258,36,-1
 784 0 l 258,37,38
 768 0 768 0 768 16 c 258,39,-1
 768 32 l 258,40,41
 768 96 768 96 704 160 c 258,42,-1
 528 336 l 258,43,44
 512 352 512 352 496 336 c 258,45,-1
 320 160 l 258,46,47
 256 96 256 96 256 32 c 258,48,-1
 256 16 l 258,49,50
 256 0 256 0 240 0 c 258,51,-1
 144 0 l 258,52,53
 128 0 128 0 128 16 c 258,54,-1
 128 32 l 258,55,56
 128 160 128 160 256 288 c 258,57,-1
 400 432 l 258,58,59
 416 448 416 448 400 464 c 258,0,-1
EndSplineSet
Validated: 19457
Layer: 2
SplineSet
400 464 m 258,0,-1
 256 608 l 258,1,2
 128 736 128 736 128 864 c 258,3,-1
 128 880 l 258,4,5
 128 896 128 896 144 896 c 258,6,-1
 240 896 l 258,7,8
 256 896 256 896 256 880 c 258,9,-1
 256 864 l 258,10,11
 256 800 256 800 320 736 c 258,12,-1
 496 560 l 258,13,14
 512 544 512 544 528 560 c 258,15,-1
 704 736 l 258,16,17
 768 800 768 800 768 864 c 258,18,-1
 768 880 l 258,19,20
 768 896 768 896 784 896 c 258,21,-1
 880 896 l 258,22,23
 896 896 896 896 896 880 c 258,24,-1
 896 864 l 258,25,26
 896 736 896 736 768 608 c 258,27,-1
 624 464 l 258,28,29
 608 448 608 448 624 432 c 258,30,-1
 768 288 l 258,31,32
 896 160 896 160 896 32 c 258,33,-1
 896 16 l 258,34,35
 896 0 896 0 880 0 c 258,36,-1
 784 0 l 258,37,38
 768 0 768 0 768 16 c 258,39,-1
 768 32 l 258,40,41
 768 96 768 96 704 160 c 258,42,-1
 528 336 l 258,43,44
 512 352 512 352 496 336 c 258,45,-1
 320 160 l 258,46,47
 256 96 256 96 256 32 c 258,48,-1
 256 16 l 258,49,50
 256 0 256 0 240 0 c 258,51,-1
 144 0 l 258,52,53
 128 0 128 0 128 16 c 258,54,-1
 128 32 l 258,55,56
 128 160 128 160 256 288 c 258,57,-1
 400 432 l 258,58,59
 416 448 416 448 400 464 c 258,0,-1
EndSplineSet
Colour: 6600
EndChar
StartChar: y
Encoding: 121 121 90
Width: 1024
VWidth: 0
Flags: W
HStem: -320 128<192 746> 0 128<278 768> 876 20G<136 248 776 888>
VStem: 128 128<150 896> 768 128<-158 -1.6e-07 128 896>
LayerCount: 3
Back
Fore
SplineSet
784 896 m 258,0,-1
 880 896 l 258,1,2
 896 896 896 896 896 880 c 258,3,-1
 896 -128 l 258,4,5
 896 -192 896 -192 832 -256 c 256,6,7
 768 -320 768 -320 704 -320 c 258,8,-1
 208 -320 l 258,9,10
 192 -320 192 -320 192 -304 c 258,11,-1
 192 -208 l 258,12,13
 192 -192 192 -192 208 -192 c 258,14,-1
 672 -192 l 258,15,16
 704 -192 704 -192 736 -160 c 256,17,18
 768 -128 768 -128 768 -96 c 258,19,-1
 768 -16 l 258,20,21
 768 0 768 0 752 0 c 258,22,-1
 320 0 l 258,23,24
 256 0 256 0 192 64 c 256,25,26
 128 128 128 128 128 192 c 258,27,-1
 128 880 l 258,28,29
 128 896 128 896 144 896 c 258,30,-1
 240 896 l 258,31,32
 256 896 256 896 256 880 c 258,33,-1
 256 224 l 258,34,35
 256 192 256 192 288 160 c 256,36,37
 320 128 320 128 352 128 c 258,38,-1
 752 128 l 282,39,40
 768 128 768 128 768 144 c 282,41,-1
 768 880 l 258,42,43
 768 896 768 896 784 896 c 258,0,-1
EndSplineSet
Validated: 19457
Layer: 2
SplineSet
784 896 m 258,0,-1
 880 896 l 258,1,2
 896 896 896 896 896 880 c 258,3,-1
 896 -128 l 258,4,5
 896 -192 896 -192 832 -256 c 256,6,7
 768 -320 768 -320 704 -320 c 258,8,-1
 208 -320 l 258,9,10
 192 -320 192 -320 192 -304 c 258,11,-1
 192 -208 l 258,12,13
 192 -192 192 -192 208 -192 c 258,14,-1
 672 -192 l 258,15,16
 704 -192 704 -192 736 -160 c 256,17,18
 768 -128 768 -128 768 -96 c 258,19,-1
 768 -16 l 258,20,21
 768 0 768 0 752 0 c 258,22,-1
 320 0 l 258,23,24
 256 0 256 0 192 64 c 256,25,26
 128 128 128 128 128 192 c 258,27,-1
 128 880 l 258,28,29
 128 896 128 896 144 896 c 258,30,-1
 240 896 l 258,31,32
 256 896 256 896 256 880 c 258,33,-1
 256 224 l 258,34,35
 256 192 256 192 288 160 c 256,36,37
 320 128 320 128 352 128 c 258,38,-1
 752 128 l 282,39,40
 768 128 768 128 768 144 c 282,41,-1
 768 880 l 258,42,43
 768 896 768 896 784 896 c 258,0,-1
EndSplineSet
Colour: 6600
EndChar
StartChar: z
Encoding: 122 122 91
Width: 1024
VWidth: 0
Flags: W
HStem: 0 128<320.004 896> 768 128<128 703.996>
VStem: 128 192<128 199.25> 704 192<696.75 768>
DStem2: 192 224 336 176 0.707107 0.707107<34.2974 735.035>
LayerCount: 3
Back
Fore
SplineSet
128 784 m 258,0,-1
 128 880 l 258,1,2
 128 896 128 896 144 896 c 258,3,-1
 880 896 l 258,4,5
 896 896 896 896 896 880 c 258,6,-1
 896 800 l 258,7,8
 896 736 896 736 832 672 c 258,9,-1
 336 176 l 258,10,11
 320 160 320 160 320 144 c 256,12,13
 320 128 320 128 336 128 c 258,14,-1
 880 128 l 258,15,16
 896 128 896 128 896 112 c 258,17,-1
 896 16 l 258,18,19
 896 0 896 0 880 0 c 258,20,-1
 144 0 l 258,21,22
 128 0 128 0 128 16 c 258,23,-1
 128 96 l 258,24,25
 128 160 128 160 192 224 c 258,26,-1
 688 720 l 258,27,28
 704 736 704 736 704 752 c 256,29,30
 704 768 704 768 688 768 c 258,31,-1
 144 768 l 258,32,33
 128 768 128 768 128 784 c 258,0,-1
EndSplineSet
Validated: 19457
Layer: 2
SplineSet
128 784 m 258,0,-1
 128 880 l 258,1,2
 128 896 128 896 144 896 c 258,3,-1
 880 896 l 258,4,5
 896 896 896 896 896 880 c 258,6,-1
 896 800 l 258,7,8
 896 736 896 736 832 672 c 258,9,-1
 336 176 l 258,10,11
 320 160 320 160 320 144 c 256,12,13
 320 128 320 128 336 128 c 258,14,-1
 880 128 l 258,15,16
 896 128 896 128 896 112 c 258,17,-1
 896 16 l 258,18,19
 896 0 896 0 880 0 c 258,20,-1
 144 0 l 258,21,22
 128 0 128 0 128 16 c 258,23,-1
 128 96 l 258,24,25
 128 160 128 160 192 224 c 258,26,-1
 688 720 l 258,27,28
 704 736 704 736 704 752 c 256,29,30
 704 768 704 768 688 768 c 258,31,-1
 144 768 l 258,32,33
 128 768 128 768 128 784 c 258,0,-1
EndSplineSet
Comment: "The top right and bottom left don't +ACIA-Exactly+ACIA follow my conventions for shaping.  Refer to U+-0032 DIGIT TWO for similarity."
Colour: 6600
EndChar
StartChar: braceleft
Encoding: 123 123 92
Width: 1024
VWidth: 0
Flags: W
HStem: -128 128<534 768> 576 128<192 384> 1280 128<534 768>
VStem: 384 128<22 575 705 1258.44>
LayerCount: 3
Back
Fore
SplineSet
768 1392 m 258,0,-1
 768 1296 l 258,1,2
 768 1280 768 1280 752 1280 c 258,3,-1
 608 1280 l 258,4,5
 576 1280 576 1280 544 1248 c 256,6,7
 512 1216 512 1216 512 1184 c 258,8,-1
 512 737 l 258,9,10
 512 705 512 705 480 673 c 258,11,-1
 463 656 l 286,12,13
 447 640 447 640 463 624 c 286,14,-1
 480 607 l 258,15,16
 512 575 512 575 512 543 c 258,17,-1
 512 96 l 258,18,19
 512 64 512 64 544 32 c 256,20,21
 576 0 576 0 608 0 c 258,22,-1
 752 0 l 258,23,24
 768 0 768 0 768 -16 c 258,25,-1
 768 -112 l 258,26,27
 768 -128 768 -128 752 -128 c 258,28,-1
 576 -128 l 258,29,30
 512 -128 512 -128 448 -64 c 256,31,32
 384 0 384 0 384 64 c 258,33,-1
 384 560 l 258,34,35
 384 576 384 576 368 576 c 258,36,-1
 208 576 l 258,37,38
 192 576 192 576 192 592 c 258,39,-1
 192 688 l 258,40,41
 192 704 192 704 208 704 c 258,42,-1
 368 704 l 258,43,44
 384 704 384 704 384 720 c 258,45,-1
 384 1216 l 258,46,47
 384 1281 384 1281 448 1344 c 256,48,49
 512 1408 512 1408 576 1408 c 258,50,-1
 752 1408 l 258,51,52
 768 1408 768 1408 768 1392 c 258,0,-1
EndSplineSet
Validated: 19457
Layer: 2
SplineSet
768 1264 m 258,0,-1
 768 1168 l 258,1,2
 768 1152 768 1152 752 1152 c 258,3,-1
 608 1152 l 258,4,5
 576 1152 576 1152 544 1120 c 256,6,7
 512 1088 512 1088 512 1056 c 258,8,-1
 512 736 l 258,9,10
 512 704 512 704 480 672 c 258,11,-1
 464 656 l 282,12,13
 448 640 448 640 464 624 c 282,14,-1
 480 608 l 258,15,16
 512 576 512 576 512 544 c 258,17,-1
 512 224 l 258,18,19
 512 192 512 192 544 160 c 256,20,21
 576 128 576 128 608 128 c 258,22,-1
 752 128 l 258,23,24
 768 128 768 128 768 112 c 258,25,-1
 768 16 l 258,26,27
 768 0 768 0 752 0 c 258,28,-1
 576 0 l 258,29,30
 512 0 512 0 448 64 c 256,31,32
 384 128 384 128 384 192 c 258,33,-1
 384 560 l 258,34,35
 384 576 384 576 368 576 c 258,36,-1
 208 576 l 258,37,38
 192 576 192 576 192 592 c 258,39,-1
 192 688 l 258,40,41
 192 704 192 704 208 704 c 258,42,-1
 368 704 l 258,43,44
 384 704 384 704 384 720 c 258,45,-1
 384 1088 l 258,46,47
 384 1153 384 1153 448 1216 c 256,48,49
 512 1280 512 1280 576 1280 c 258,50,-1
 752 1280 l 258,51,52
 768 1280 768 1280 768 1264 c 258,0,-1
EndSplineSet
Colour: 6600
EndChar
StartChar: bar
Encoding: 124 124 93
Width: 1024
VWidth: 0
Flags: W
HStem: 0 21G<456 568> 1260 20G<456 568>
VStem: 448 128<0 1280>
LayerCount: 3
Back
Fore
SplineSet
464 1280 m 258,0,-1
 560 1280 l 258,1,2
 576 1280 576 1280 576 1264 c 258,3,-1
 576 16 l 258,4,5
 576 0 576 0 560 0 c 258,6,-1
 464 0 l 258,7,8
 448 0 448 0 448 16 c 258,9,-1
 448 1264 l 258,10,11
 448 1280 448 1280 464 1280 c 258,0,-1
EndSplineSet
Validated: 19457
Layer: 2
SplineSet
464 1280 m 258,0,-1
 560 1280 l 258,1,2
 576 1280 576 1280 576 1264 c 258,3,-1
 576 16 l 258,4,5
 576 0 576 0 560 0 c 258,6,-1
 464 0 l 258,7,8
 448 0 448 0 448 16 c 258,9,-1
 448 1264 l 258,10,11
 448 1280 448 1280 464 1280 c 258,0,-1
EndSplineSet
Colour: 6600
EndChar
StartChar: asciitilde
Encoding: 126 126 95
Width: 1024
VWidth: 0
Flags: W
HStem: 1024 128<595 749> 1280 128<275 429>
VStem: 128 128<1024 1247.5> 448 128<1184.5 1261> 768 128<1171 1408>
DStem2: 480 1376 400 1264 0.707107 -0.707107<-40.6531 172.711> 624 1168 480 1120 0.707107 -0.707107<-150.083 63.2805>
LayerCount: 3
Back
Fore
SplineSet
240 1024 m 258,0,-1
 144 1024 l 258,1,2
 128 1024 128 1024 128 1040 c 258,3,-1
 128 1248 l 258,4,5
 128 1280 128 1280 160 1312 c 257,6,7
 224 1376 l 258,8,9
 256 1408 256 1408 288 1408 c 258,10,-1
 416 1408 l 258,11,12
 448 1408 448 1408 480 1376 c 258,13,-1
 544 1312 l 258,14,15
 576 1280 576 1280 576 1248 c 258,16,-1
 576 1232 l 258,17,18
 576 1216 576 1216 592 1200 c 258,19,-1
 624 1168 l 258,20,21
 640 1152 640 1152 656 1152 c 258,22,-1
 688 1152 l 258,23,24
 704 1152 704 1152 720 1168 c 258,25,-1
 752 1200 l 258,26,27
 768 1216 768 1216 768 1232 c 258,28,-1
 768 1392 l 258,29,30
 768 1408 768 1408 784 1408 c 258,31,-1
 880 1408 l 258,32,33
 896 1408 896 1408 896 1392 c 258,34,-1
 896 1184 l 258,35,36
 896 1152 896 1152 864 1120 c 258,37,-1
 800 1056 l 258,38,39
 768 1024 768 1024 736 1024 c 258,40,-1
 608 1024 l 258,41,42
 576 1024 576 1024 544 1056 c 258,43,-1
 480 1120 l 258,44,45
 448 1152 448 1152 448 1184 c 258,46,-1
 448 1200 l 258,47,48
 448 1216 448 1216 432 1232 c 258,49,-1
 400 1264 l 258,50,51
 384 1280 384 1280 368 1280 c 258,52,-1
 336 1280 l 258,53,54
 320 1280 320 1280 304 1264 c 258,55,-1
 272 1232 l 258,56,57
 256 1216 256 1216 256 1200 c 258,58,-1
 256 1040 l 258,59,60
 256 1024 256 1024 240 1024 c 258,0,-1
EndSplineSet
Validated: 19457
Layer: 2
SplineSet
240 1024 m 258,0,-1
 144 1024 l 258,1,2
 128 1024 128 1024 128 1040 c 258,3,-1
 128 1248 l 258,4,5
 128 1280 128 1280 160 1312 c 257,6,7
 224 1376 l 258,8,9
 256 1408 256 1408 288 1408 c 258,10,-1
 416 1408 l 258,11,12
 448 1408 448 1408 480 1376 c 258,13,-1
 544 1312 l 258,14,15
 576 1280 576 1280 576 1248 c 258,16,-1
 576 1232 l 258,17,18
 576 1216 576 1216 592 1200 c 258,19,-1
 624 1168 l 258,20,21
 640 1152 640 1152 656 1152 c 258,22,-1
 688 1152 l 258,23,24
 704 1152 704 1152 720 1168 c 258,25,-1
 752 1200 l 258,26,27
 768 1216 768 1216 768 1232 c 258,28,-1
 768 1392 l 258,29,30
 768 1408 768 1408 784 1408 c 258,31,-1
 880 1408 l 258,32,33
 896 1408 896 1408 896 1392 c 258,34,-1
 896 1184 l 258,35,36
 896 1152 896 1152 864 1120 c 258,37,-1
 800 1056 l 258,38,39
 768 1024 768 1024 736 1024 c 258,40,-1
 608 1024 l 258,41,42
 576 1024 576 1024 544 1056 c 258,43,-1
 480 1120 l 258,44,45
 448 1152 448 1152 448 1184 c 258,46,-1
 448 1200 l 258,47,48
 448 1216 448 1216 432 1232 c 258,49,-1
 400 1264 l 258,50,51
 384 1280 384 1280 368 1280 c 258,52,-1
 336 1280 l 258,53,54
 320 1280 320 1280 304 1264 c 258,55,-1
 272 1232 l 258,56,57
 256 1216 256 1216 256 1200 c 258,58,-1
 256 1040 l 258,59,60
 256 1024 256 1024 240 1024 c 258,0,-1
EndSplineSet
Colour: 6600
EndChar
StartChar: sterling
Encoding: 163 163 99
Width: 1024
VWidth: 0
Flags: W
HStem: 0 256<768 896> 0 128<128 256 384 768> 576 128<128 256 384 704> 1152 128<406 682>
VStem: 256 128<128 576 704 1130> 704 128<1024 1118> 768 128<128 256>
CounterMasks: 1 70
LayerCount: 3
Back
Fore
SplineSet
320 1216 m 256,0,1
 384 1280 384 1280 448 1280 c 258,2,-1
 640 1280 l 258,3,4
 704 1280 704 1280 768 1216 c 256,5,6
 832 1152 832 1152 832 1088 c 258,7,-1
 832 1040 l 258,8,9
 832 1024 832 1024 816 1024 c 258,10,-1
 720 1024 l 258,11,12
 704 1024 704 1024 704 1040 c 258,13,-1
 704 1056 l 258,14,15
 704 1088 704 1088 672 1120 c 256,16,17
 640 1152 640 1152 608 1152 c 258,18,-1
 480 1152 l 258,19,20
 448 1152 448 1152 416 1120 c 256,21,22
 384 1088 384 1088 384 1056 c 258,23,-1
 384 720 l 258,24,25
 384 704 384 704 400 704 c 258,26,-1
 688 704 l 258,27,28
 704 704 704 704 704 688 c 258,29,-1
 704 592 l 258,30,31
 704 576 704 576 688 576 c 258,32,-1
 400 576 l 258,33,34
 384 576 384 576 384 560 c 258,35,-1
 384 144 l 258,36,37
 384 128 384 128 400 128 c 258,38,-1
 752 128 l 258,39,40
 768 128 768 128 768 144 c 258,41,-1
 768 240 l 258,42,43
 768 256 768 256 784 256 c 258,44,-1
 880 256 l 258,45,46
 896 256 896 256 896 240 c 258,47,-1
 896 16 l 258,48,49
 896 0 896 0 880 0 c 258,50,-1
 144 0 l 258,51,52
 128 0 128 0 128 16 c 258,53,-1
 128 112 l 258,54,55
 128 128 128 128 144 128 c 258,56,-1
 240 128 l 258,57,58
 256 128 256 128 256 144 c 258,59,-1
 256 560 l 258,60,61
 256 576 256 576 240 576 c 258,62,-1
 144 576 l 258,63,64
 128 576 128 576 128 592 c 258,65,-1
 128 688 l 258,66,67
 128 704 128 704 144 704 c 258,68,-1
 240 704 l 258,69,70
 256 704 256 704 256 720 c 258,71,-1
 256 1088 l 258,72,73
 256 1152 256 1152 320 1216 c 256,0,1
EndSplineSet
Validated: 19457
Layer: 2
SplineSet
320 1216 m 256,0,1
 384 1280 384 1280 448 1280 c 258,2,-1
 640 1280 l 258,3,4
 704 1280 704 1280 768 1216 c 256,5,6
 832 1152 832 1152 832 1088 c 258,7,-1
 832 1040 l 258,8,9
 832 1024 832 1024 816 1024 c 258,10,-1
 720 1024 l 258,11,12
 704 1024 704 1024 704 1040 c 258,13,-1
 704 1056 l 258,14,15
 704 1088 704 1088 672 1120 c 256,16,17
 640 1152 640 1152 608 1152 c 258,18,-1
 480 1152 l 258,19,20
 448 1152 448 1152 416 1120 c 256,21,22
 384 1088 384 1088 384 1056 c 258,23,-1
 384 720 l 258,24,25
 384 704 384 704 400 704 c 258,26,-1
 688 704 l 258,27,28
 704 704 704 704 704 688 c 258,29,-1
 704 592 l 258,30,31
 704 576 704 576 688 576 c 258,32,-1
 400 576 l 258,33,34
 384 576 384 576 384 560 c 258,35,-1
 384 144 l 258,36,37
 384 128 384 128 400 128 c 258,38,-1
 752 128 l 258,39,40
 768 128 768 128 768 144 c 258,41,-1
 768 240 l 258,42,43
 768 256 768 256 784 256 c 258,44,-1
 880 256 l 258,45,46
 896 256 896 256 896 240 c 258,47,-1
 896 16 l 258,48,49
 896 0 896 0 880 0 c 258,50,-1
 144 0 l 258,51,52
 128 0 128 0 128 16 c 258,53,-1
 128 112 l 258,54,55
 128 128 128 128 144 128 c 258,56,-1
 240 128 l 258,57,58
 256 128 256 128 256 144 c 258,59,-1
 256 560 l 258,60,61
 256 576 256 576 240 576 c 258,62,-1
 144 576 l 258,63,64
 128 576 128 576 128 592 c 258,65,-1
 128 688 l 258,66,67
 128 704 128 704 144 704 c 258,68,-1
 240 704 l 258,69,70
 256 704 256 704 256 720 c 258,71,-1
 256 1088 l 258,72,73
 256 1152 256 1152 320 1216 c 256,0,1
EndSplineSet
Colour: 6600
EndChar
StartChar: currency
Encoding: 164 164 100
Width: 1024
VWidth: 0
Flags: W
HStem: 320 128<385 639> 832 128<385 639>
VStem: 192 128<470 810> 256 128<264.882 320 960 1015.12> 640 128<264.882 320 960 1015.12> 704 128<482 798>
DStem2: 224 1200 128 1104 0.707107 -0.707107<-22.6274 222.247> 128 176 224 80 0.707107 0.707107<-22.6274 222.247> 721 1121 848 1056 0.707107 0.707107<-110.524 134.35> 896 176 721 159 0.707107 -0.707107<-222.247 22.6274>
LayerCount: 3
Back
Fore
SplineSet
352 800 m 256,0,1
 320 768 320 768 320 736 c 258,2,-1
 320 544 l 258,3,4
 320 512 320 512 352 480 c 256,5,6
 384 448 384 448 416 448 c 258,7,-1
 608 448 l 258,8,9
 640 448 640 448 672 480 c 256,10,11
 704 512 704 512 704 544 c 258,12,-1
 704 736 l 258,13,14
 704 768 704 768 672 800 c 256,15,16
 640 832 640 832 608 832 c 258,17,-1
 416 832 l 258,18,19
 384 832 384 832 352 800 c 256,0,1
640 960 m 257,20,21
 640 1040 640 1040 721 1121 c 258,22,-1
 800 1200 l 258,23,24
 816 1216 816 1216 832 1200 c 258,25,-1
 896 1136 l 258,26,27
 912 1120 912 1120 896 1104 c 258,28,-1
 848 1056 l 258,29,30
 768 976 768 976 768 896 c 257,31,32
 832 832 832 832 832 768 c 258,33,-1
 832 512 l 258,34,35
 832 448 832 448 768 384 c 257,36,37
 768 304 768 304 848 224 c 258,38,-1
 896 176 l 258,39,40
 912 160 912 160 896 144 c 258,41,-1
 832 80 l 258,42,43
 816 64 816 64 800 80 c 258,44,-1
 721 159 l 258,45,46
 640 240 640 240 640 320 c 257,47,-1
 384 320 l 257,48,49
 384 240 384 240 303 159 c 258,50,-1
 224 80 l 258,51,52
 208 64 208 64 192 80 c 258,53,-1
 128 144 l 258,54,55
 112 160 112 160 128 176 c 258,56,-1
 176 224 l 258,57,58
 256 304 256 304 256 384 c 257,59,60
 192 448 192 448 192 512 c 258,61,-1
 192 768 l 258,62,63
 192 832 192 832 256 896 c 257,64,65
 256 976 256 976 176 1056 c 258,66,-1
 128 1104 l 258,67,68
 112 1120 112 1120 128 1136 c 258,69,-1
 192 1200 l 258,70,71
 208 1216 208 1216 224 1200 c 258,72,-1
 303 1121 l 258,73,74
 384 1040 384 1040 384 960 c 257,75,-1
 640 960 l 257,20,21
EndSplineSet
Validated: 19457
Layer: 2
SplineSet
352 800 m 256,0,1
 320 768 320 768 320 736 c 258,2,-1
 320 544 l 258,3,4
 320 512 320 512 352 480 c 256,5,6
 384 448 384 448 416 448 c 258,7,-1
 608 448 l 258,8,9
 640 448 640 448 672 480 c 256,10,11
 704 512 704 512 704 544 c 258,12,-1
 704 736 l 258,13,14
 704 768 704 768 672 800 c 256,15,16
 640 832 640 832 608 832 c 258,17,-1
 416 832 l 258,18,19
 384 832 384 832 352 800 c 256,0,1
640 960 m 257,20,21
 640 1040 640 1040 721 1121 c 258,22,-1
 800 1200 l 258,23,24
 816 1216 816 1216 832 1200 c 258,25,-1
 896 1136 l 258,26,27
 912 1120 912 1120 896 1104 c 258,28,-1
 848 1056 l 258,29,30
 768 976 768 976 768 896 c 257,31,32
 832 832 832 832 832 768 c 258,33,-1
 832 512 l 258,34,35
 832 448 832 448 768 384 c 257,36,37
 768 304 768 304 848 224 c 258,38,-1
 896 176 l 258,39,40
 912 160 912 160 896 144 c 258,41,-1
 832 80 l 258,42,43
 816 64 816 64 800 80 c 258,44,-1
 721 159 l 258,45,46
 640 240 640 240 640 320 c 257,47,-1
 384 320 l 257,48,49
 384 240 384 240 303 159 c 258,50,-1
 224 80 l 258,51,52
 208 64 208 64 192 80 c 258,53,-1
 128 144 l 258,54,55
 112 160 112 160 128 176 c 258,56,-1
 176 224 l 258,57,58
 256 304 256 304 256 384 c 257,59,60
 192 448 192 448 192 512 c 258,61,-1
 192 768 l 258,62,63
 192 832 192 832 256 896 c 257,64,65
 256 976 256 976 176 1056 c 258,66,-1
 128 1104 l 258,67,68
 112 1120 112 1120 128 1136 c 258,69,-1
 192 1200 l 258,70,71
 208 1216 208 1216 224 1200 c 258,72,-1
 303 1121 l 258,73,74
 384 1040 384 1040 384 960 c 257,75,-1
 640 960 l 257,20,21
EndSplineSet
Colour: 6600
EndChar
StartChar: section
Encoding: 167 167 103
Width: 1024
VWidth: 0
Flags: W
HStem: -64 128<342 618> 320 128<342 619.68> 896 128<340.32 618> 1280 128<342 618>
VStem: 192 128<86 192 470 874 1046 1258> 640 128<98 286 482 862 1152 1246>
CounterMasks: 1 f0
LayerCount: 3
Back
Fore
SplineSet
192 512 m 258,0,-1
 192 832 l 258,1,2
 192 896 192 896 256 960 c 257,3,4
 192 1024 192 1024 192 1088 c 258,5,-1
 192 1216 l 258,6,7
 192 1280 192 1280 256 1344 c 256,8,9
 320 1408 320 1408 384 1408 c 258,10,-1
 576 1408 l 258,11,12
 640 1408 640 1408 704 1344 c 256,13,14
 768 1280 768 1280 768 1216 c 258,15,-1
 768 1168 l 258,16,17
 768 1152 768 1152 752 1152 c 258,18,-1
 656 1152 l 258,19,20
 640 1152 640 1152 640 1168 c 258,21,-1
 640 1184 l 258,22,23
 640 1216 640 1216 608 1248 c 256,24,25
 576 1280 576 1280 544 1280 c 258,26,-1
 416 1280 l 258,27,28
 384 1280 384 1280 352 1248 c 256,29,30
 320 1216 320 1216 320 1184 c 258,31,-1
 320 1120 l 258,32,33
 320 1088 320 1088 352 1056 c 256,34,35
 384 1024 384 1024 416 1024 c 258,36,-1
 576 1024 l 258,37,38
 640 1024 640 1024 704 960 c 256,39,40
 768 896 768 896 768 832 c 258,41,-1
 768 512 l 258,42,43
 768 448 768 448 704 384 c 257,44,45
 768 320 768 320 768 256 c 258,46,-1
 768 128 l 258,47,48
 768 64 768 64 704 0 c 256,49,50
 640 -64 640 -64 576 -64 c 258,51,-1
 384 -64 l 258,52,53
 320 -64 320 -64 256 0 c 256,54,55
 192 64 192 64 192 128 c 258,56,-1
 192 176 l 258,57,58
 192 192 192 192 208 192 c 258,59,-1
 304 192 l 258,60,61
 320 192 320 192 320 176 c 258,62,-1
 320 160 l 258,63,64
 320 128 320 128 352 96 c 256,65,66
 384 64 384 64 416 64 c 258,67,-1
 544 64 l 258,68,69
 576 64 576 64 608 96 c 256,70,71
 640 128 640 128 640 160 c 258,72,-1
 640 224 l 258,73,74
 640 256 640 256 608 288 c 256,75,76
 576 320 576 320 544 320 c 258,77,-1
 384 320 l 258,78,79
 320 320 320 320 256 384 c 256,80,81
 192 448 192 448 192 512 c 258,0,-1
416 896 m 258,82,83
 384 896 384 896 352 864 c 256,84,85
 320 832 320 832 320 800 c 258,86,-1
 320 544 l 258,87,88
 320 512 320 512 352 480 c 256,89,90
 384 448 384 448 416 448 c 258,91,-1
 544 448 l 258,92,93
 576 448 576 448 608 480 c 256,94,95
 640 512 640 512 640 544 c 258,96,-1
 640 800 l 258,97,98
 640 832 640 832 608 864 c 256,99,100
 576 896 576 896 544 896 c 258,101,-1
 416 896 l 258,82,83
EndSplineSet
Validated: 19457
Layer: 2
SplineSet
192 512 m 258,0,-1
 192 832 l 258,1,2
 192 896 192 896 256 960 c 257,3,4
 192 1024 192 1024 192 1088 c 258,5,-1
 192 1216 l 258,6,7
 192 1280 192 1280 256 1344 c 256,8,9
 320 1408 320 1408 384 1408 c 258,10,-1
 576 1408 l 258,11,12
 640 1408 640 1408 704 1344 c 256,13,14
 768 1280 768 1280 768 1216 c 258,15,-1
 768 1168 l 258,16,17
 768 1152 768 1152 752 1152 c 258,18,-1
 656 1152 l 258,19,20
 640 1152 640 1152 640 1168 c 258,21,-1
 640 1184 l 258,22,23
 640 1216 640 1216 608 1248 c 256,24,25
 576 1280 576 1280 544 1280 c 258,26,-1
 416 1280 l 258,27,28
 384 1280 384 1280 352 1248 c 256,29,30
 320 1216 320 1216 320 1184 c 258,31,-1
 320 1120 l 258,32,33
 320 1088 320 1088 352 1056 c 256,34,35
 384 1024 384 1024 416 1024 c 258,36,-1
 576 1024 l 258,37,38
 640 1024 640 1024 704 960 c 256,39,40
 768 896 768 896 768 832 c 258,41,-1
 768 512 l 258,42,43
 768 448 768 448 704 384 c 257,44,45
 768 320 768 320 768 256 c 258,46,-1
 768 128 l 258,47,48
 768 64 768 64 704 0 c 256,49,50
 640 -64 640 -64 576 -64 c 258,51,-1
 384 -64 l 258,52,53
 320 -64 320 -64 256 0 c 256,54,55
 192 64 192 64 192 128 c 258,56,-1
 192 176 l 258,57,58
 192 192 192 192 208 192 c 258,59,-1
 304 192 l 258,60,61
 320 192 320 192 320 176 c 258,62,-1
 320 160 l 258,63,64
 320 128 320 128 352 96 c 256,65,66
 384 64 384 64 416 64 c 258,67,-1
 544 64 l 258,68,69
 576 64 576 64 608 96 c 256,70,71
 640 128 640 128 640 160 c 258,72,-1
 640 224 l 258,73,74
 640 256 640 256 608 288 c 256,75,76
 576 320 576 320 544 320 c 258,77,-1
 384 320 l 258,78,79
 320 320 320 320 256 384 c 256,80,81
 192 448 192 448 192 512 c 258,0,-1
416 896 m 258,82,83
 384 896 384 896 352 864 c 256,84,85
 320 832 320 832 320 800 c 258,86,-1
 320 544 l 258,87,88
 320 512 320 512 352 480 c 256,89,90
 384 448 384 448 416 448 c 258,91,-1
 544 448 l 258,92,93
 576 448 576 448 608 480 c 256,94,95
 640 512 640 512 640 544 c 258,96,-1
 640 800 l 258,97,98
 640 832 640 832 608 864 c 256,99,100
 576 896 576 896 544 896 c 258,101,-1
 416 896 l 258,82,83
EndSplineSet
Colour: 6600
EndChar
StartChar: copyright
Encoding: 169 169 105
Width: 1024
VWidth: 0
Flags: W
HStem: 128 128<214 810> 320 208<637.359 747.68> 320 128<384.141 639.859> 752 208<637.359 747.68> 832 128<384.141 639.859> 1024 128<214 810>
VStem: 64 128<278 1002> 256 128<448.141 831.859> 640 128<448.141 528 752 831.859> 832 128<290 990>
CounterMasks: 2 ac 0340
LayerCount: 3
Back
Fore
SplineSet
640 768 m 258,0,-1
 640 784 l 258,1,2
 640 800 640 800 624 816 c 256,3,4
 608 832 608 832 592 832 c 258,5,-1
 432 832 l 258,6,7
 416 832 416 832 400 816 c 256,8,9
 384 800 384 800 384 784 c 258,10,-1
 384 496 l 258,11,12
 384 480 384 480 400 464 c 256,13,14
 416 448 416 448 432 448 c 258,15,-1
 592 448 l 258,16,17
 608 448 608 448 624 464 c 256,18,19
 640 480 640 480 640 496 c 258,20,-1
 640 512 l 258,21,22
 640 528 640 528 656 528 c 258,23,-1
 752 528 l 258,24,25
 768 528 768 528 768 512 c 258,26,-1
 768 416 l 258,27,28
 768 384 768 384 736 352 c 256,29,30
 704 320 704 320 672 320 c 258,31,-1
 352 320 l 258,32,33
 320 320 320 320 288 352 c 256,34,35
 256 384 256 384 256 416 c 258,36,-1
 256 864 l 258,37,38
 256 896 256 896 288 928 c 256,39,40
 320 960 320 960 352 960 c 258,41,-1
 672 960 l 258,42,43
 704 960 704 960 736 928 c 256,44,45
 768 896 768 896 768 864 c 258,46,-1
 768 768 l 258,47,48
 768 752 768 752 752 752 c 258,49,-1
 656 752 l 258,50,51
 640 752 640 752 640 768 c 258,0,-1
192 352 m 258,52,53
 192 320 192 320 224 288 c 256,54,55
 256 256 256 256 288 256 c 258,56,-1
 736 256 l 258,57,58
 768 256 768 256 800 288 c 256,59,60
 832 320 832 320 832 352 c 258,61,-1
 832 928 l 258,62,63
 832 960 832 960 800 992 c 256,64,65
 768 1024 768 1024 736 1024 c 258,66,-1
 288 1024 l 258,67,68
 256 1024 256 1024 224 992 c 256,69,70
 192 960 192 960 192 928 c 258,71,-1
 192 352 l 258,52,53
64 320 m 258,72,-1
 64 960 l 258,73,74
 64 1024 64 1024 128 1088 c 256,75,76
 192 1152 192 1152 256 1152 c 258,77,-1
 768 1152 l 258,78,79
 832 1152 832 1152 896 1088 c 256,80,81
 960 1024 960 1024 960 960 c 258,82,-1
 960 320 l 258,83,84
 960 256 960 256 896 192 c 256,85,86
 832 128 832 128 768 128 c 258,87,-1
 256 128 l 258,88,89
 192 128 192 128 128 192 c 256,90,91
 64 256 64 256 64 320 c 258,72,-1
EndSplineSet
Validated: 19457
Layer: 2
SplineSet
640 768 m 258,0,-1
 640 784 l 258,1,2
 640 800 640 800 624 816 c 256,3,4
 608 832 608 832 592 832 c 258,5,-1
 432 832 l 258,6,7
 416 832 416 832 400 816 c 256,8,9
 384 800 384 800 384 784 c 258,10,-1
 384 496 l 258,11,12
 384 480 384 480 400 464 c 256,13,14
 416 448 416 448 432 448 c 258,15,-1
 592 448 l 258,16,17
 608 448 608 448 624 464 c 256,18,19
 640 480 640 480 640 496 c 258,20,-1
 640 512 l 258,21,22
 640 528 640 528 656 528 c 258,23,-1
 752 528 l 258,24,25
 768 528 768 528 768 512 c 258,26,-1
 768 416 l 258,27,28
 768 384 768 384 736 352 c 256,29,30
 704 320 704 320 672 320 c 258,31,-1
 352 320 l 258,32,33
 320 320 320 320 288 352 c 256,34,35
 256 384 256 384 256 416 c 258,36,-1
 256 864 l 258,37,38
 256 896 256 896 288 928 c 256,39,40
 320 960 320 960 352 960 c 258,41,-1
 672 960 l 258,42,43
 704 960 704 960 736 928 c 256,44,45
 768 896 768 896 768 864 c 258,46,-1
 768 768 l 258,47,48
 768 752 768 752 752 752 c 258,49,-1
 656 752 l 258,50,51
 640 752 640 752 640 768 c 258,0,-1
192 352 m 258,52,53
 192 320 192 320 224 288 c 256,54,55
 256 256 256 256 288 256 c 258,56,-1
 736 256 l 258,57,58
 768 256 768 256 800 288 c 256,59,60
 832 320 832 320 832 352 c 258,61,-1
 832 928 l 258,62,63
 832 960 832 960 800 992 c 256,64,65
 768 1024 768 1024 736 1024 c 258,66,-1
 288 1024 l 258,67,68
 256 1024 256 1024 224 992 c 256,69,70
 192 960 192 960 192 928 c 258,71,-1
 192 352 l 258,52,53
64 320 m 258,72,-1
 64 960 l 258,73,74
 64 1024 64 1024 128 1088 c 256,75,76
 192 1152 192 1152 256 1152 c 258,77,-1
 768 1152 l 258,78,79
 832 1152 832 1152 896 1088 c 256,80,81
 960 1024 960 1024 960 960 c 258,82,-1
 960 320 l 258,83,84
 960 256 960 256 896 192 c 256,85,86
 832 128 832 128 768 128 c 258,87,-1
 256 128 l 258,88,89
 192 128 192 128 128 192 c 256,90,91
 64 256 64 256 64 320 c 258,72,-1
EndSplineSet
Colour: 6600
EndChar
StartChar: ordfeminine
Encoding: 170 170 106
Width: 1024
VWidth: 0
Flags: W
HStem: 576 128<192 832> 832 128<342 704> 1152 128<342 702.68> 1408 128<256 682>
VStem: 192 128<982 1130> 704 128<960 1152 1280 1374>
CounterMasks: 1 f0
LayerCount: 3
Back
Fore
SplineSet
208 704 m 258,0,-1
 816 704 l 258,1,2
 832 704 832 704 832 688 c 258,3,-1
 832 592 l 258,4,5
 832 576 832 576 816 576 c 258,6,-1
 208 576 l 258,7,8
 192 576 192 576 192 592 c 258,9,-1
 192 688 l 258,10,11
 192 704 192 704 208 704 c 258,0,-1
320 1056 m 280,12,13
 320 1024 320 1024 352 992 c 256,14,15
 384 960 384 960 416 960 c 258,16,-1
 688 960 l 258,17,18
 704 960 704 960 704 976 c 258,19,-1
 704 1136 l 258,20,21
 704 1152 704 1152 688 1152 c 258,22,-1
 416 1152 l 258,23,24
 384 1152 384 1152 352 1120 c 256,25,26
 320 1088 320 1088 320 1056 c 280,12,13
192 1024 m 258,27,-1
 192 1088 l 258,28,29
 192 1152 192 1152 256 1216 c 256,30,31
 320 1280 320 1280 384 1280 c 258,32,-1
 688 1280 l 258,33,34
 704 1280 704 1280 704 1296 c 258,35,-1
 704 1312 l 258,36,37
 704 1344 704 1344 672 1376 c 256,38,39
 640 1408 640 1408 608 1408 c 258,40,-1
 272 1408 l 258,41,42
 256 1408 256 1408 256 1424 c 258,43,-1
 256 1520 l 258,44,45
 256 1536 256 1536 272 1536 c 258,46,-1
 640 1536 l 258,47,48
 704 1536 704 1536 768 1472 c 256,49,50
 832 1408 832 1408 832 1344 c 258,51,-1
 832 848 l 258,52,53
 832 832 832 832 816 832 c 258,54,-1
 384 832 l 258,55,56
 320 832 320 832 256 896 c 256,57,58
 192 960 192 960 192 1024 c 258,27,-1
EndSplineSet
Validated: 19457
Layer: 2
SplineSet
208 704 m 258,0,-1
 816 704 l 258,1,2
 832 704 832 704 832 688 c 258,3,-1
 832 592 l 258,4,5
 832 576 832 576 816 576 c 258,6,-1
 208 576 l 258,7,8
 192 576 192 576 192 592 c 258,9,-1
 192 688 l 258,10,11
 192 704 192 704 208 704 c 258,0,-1
320 1056 m 280,12,13
 320 1024 320 1024 352 992 c 256,14,15
 384 960 384 960 416 960 c 258,16,-1
 688 960 l 258,17,18
 704 960 704 960 704 976 c 258,19,-1
 704 1136 l 258,20,21
 704 1152 704 1152 688 1152 c 258,22,-1
 416 1152 l 258,23,24
 384 1152 384 1152 352 1120 c 256,25,26
 320 1088 320 1088 320 1056 c 280,12,13
192 1024 m 258,27,-1
 192 1088 l 258,28,29
 192 1152 192 1152 256 1216 c 256,30,31
 320 1280 320 1280 384 1280 c 258,32,-1
 688 1280 l 258,33,34
 704 1280 704 1280 704 1296 c 258,35,-1
 704 1312 l 258,36,37
 704 1344 704 1344 672 1376 c 256,38,39
 640 1408 640 1408 608 1408 c 258,40,-1
 272 1408 l 258,41,42
 256 1408 256 1408 256 1424 c 258,43,-1
 256 1520 l 258,44,45
 256 1536 256 1536 272 1536 c 258,46,-1
 640 1536 l 258,47,48
 704 1536 704 1536 768 1472 c 256,49,50
 832 1408 832 1408 832 1344 c 258,51,-1
 832 848 l 258,52,53
 832 832 832 832 816 832 c 258,54,-1
 384 832 l 258,55,56
 320 832 320 832 256 896 c 256,57,58
 192 960 192 960 192 1024 c 258,27,-1
EndSplineSet
Colour: 6600
EndChar
StartChar: softhyphen
Encoding: 173 173 109
Width: 1024
VWidth: 0
Flags: W
HStem: 576 128<192 832>
VStem: 192 640<576 704>
LayerCount: 3
Back
Fore
SplineSet
208 704 m 258,0,-1
 816 704 l 258,1,2
 832 704 832 704 832 688 c 258,3,-1
 832 592 l 258,4,5
 832 576 832 576 816 576 c 258,6,-1
 208 576 l 258,7,8
 192 576 192 576 192 592 c 258,9,-1
 192 688 l 258,10,11
 192 704 192 704 208 704 c 258,0,-1
EndSplineSet
Validated: 19457
Layer: 2
SplineSet
208 704 m 258,0,-1
 816 704 l 258,1,2
 832 704 832 704 832 688 c 258,3,-1
 832 592 l 258,4,5
 832 576 832 576 816 576 c 258,6,-1
 208 576 l 258,7,8
 192 576 192 576 192 592 c 258,9,-1
 192 688 l 258,10,11
 192 704 192 704 208 704 c 258,0,-1
EndSplineSet
Colour: 6600
EndChar
StartChar: registered
Encoding: 174 174 110
Width: 1024
VWidth: 0
Flags: MWO
LayerCount: 4
Back
Fore
SplineSet
416 672 m 258,0,-1
 576 672 l 258,1,2
 592 672 592 672 608 688 c 256,3,4
 624 704 624 704 624 720 c 274,5,6
 624 784 l 2,7,8
 624 800 624 800 608 816 c 256,9,10
 592 832 592 832 576 832 c 258,11,-1
 416 832 l 258,12,13
 400 832 400 832 400 816 c 258,14,-1
 400 688 l 258,15,16
 400 672 400 672 416 672 c 258,0,-1
272 336 m 258,17,-1
 272 944 l 258,18,19
 272 960 272 960 288 960 c 258,20,-1
 656 960 l 258,21,22
 688 960 688 960 720 928 c 256,23,24
 752 896 752 896 752 864 c 274,25,-1
 752 640 l 2,26,27
 752 608 752 608 720 576 c 256,28,29
 688 544 688 544 656 544 c 258,30,-1
 640 544 l 258,31,32
 624 544 624 544 624 528 c 280,33,34
 624 513.118164062 624 513.118164062 640 497 c 18,35,-1
 720.407226562 416 l 2,36,37
 752 384 752 384 752 352 c 26,38,-1
 752 336 l 258,39,40
 752 320 752 320 736 320 c 258,41,-1
 640 320 l 258,42,43
 624 320 624 320 624 336 c 280,44,45
 624 352 624 352 608 368 c 258,46,-1
 448 528 l 258,47,48
 432 544 432 544 416 544 c 256,49,50
 400 544 400 544 400 528 c 258,51,-1
 400 336 l 258,52,53
 400 320 400 320 384 320 c 258,54,-1
 288 320 l 258,55,56
 272 320 272 320 272 336 c 258,17,-1
192 352 m 258,57,58
 192 320 192 320 224 288 c 256,59,60
 256 256 256 256 288 256 c 258,61,-1
 736 256 l 258,62,63
 768 256 768 256 800 288 c 256,64,65
 832 320 832 320 832 352 c 258,66,-1
 832 928 l 258,67,68
 832 960 832 960 800 992 c 256,69,70
 768 1024 768 1024 736 1024 c 258,71,-1
 288 1024 l 258,72,73
 256 1024 256 1024 224 992 c 256,74,75
 192 960 192 960 192 928 c 258,76,-1
 192 352 l 258,57,58
64 320 m 258,77,-1
 64 960 l 258,78,79
 64 1024 64 1024 128 1088 c 256,80,81
 192 1152 192 1152 256 1152 c 258,82,-1
 768 1152 l 258,83,84
 832 1152 832 1152 896 1088 c 256,85,86
 960 1024 960 1024 960 960 c 258,87,-1
 960 320 l 258,88,89
 960 256 960 256 896 192 c 256,90,91
 832 128 832 128 768 128 c 258,92,-1
 256 128 l 258,93,94
 192 128 192 128 128 192 c 256,95,96
 64 256 64 256 64 320 c 258,77,-1
EndSplineSet
Colour: 7300
EndChar
StartChar: macron
Encoding: 175 175 111
Width: 1024
VWidth: 0
Flags: W
HStem: 1408 128<256 768>
VStem: 256 512<1408 1536>
LayerCount: 3
Back
Fore
SplineSet
272 1536 m 258,0,-1
 752 1536 l 258,1,2
 768 1536 768 1536 768 1520 c 258,3,-1
 768 1424 l 258,4,5
 768 1408 768 1408 752 1408 c 258,6,-1
 272 1408 l 258,7,8
 256 1408 256 1408 256 1424 c 258,9,-1
 256 1520 l 258,10,11
 256 1536 256 1536 272 1536 c 258,0,-1
EndSplineSet
Validated: 19457
Layer: 2
SplineSet
272 1536 m 258,0,-1
 752 1536 l 258,1,2
 768 1536 768 1536 768 1520 c 258,3,-1
 768 1424 l 258,4,5
 768 1408 768 1408 752 1408 c 258,6,-1
 272 1408 l 258,7,8
 256 1408 256 1408 256 1424 c 258,9,-1
 256 1520 l 258,10,11
 256 1536 256 1536 272 1536 c 258,0,-1
EndSplineSet
Colour: 6600
EndChar
StartChar: degree
Encoding: 176 176 112
Width: 1024
VWidth: 0
Flags: W
HStem: 896 128<384.141 639.859> 1280 128<384.141 639.859>
VStem: 256 128<1024.14 1279.86> 640 128<1024.14 1279.86>
LayerCount: 3
Back
Fore
SplineSet
400 1264 m 256,0,1
 384 1248 384 1248 384 1232 c 258,2,-1
 384 1072 l 258,3,4
 384 1056 384 1056 400 1040 c 256,5,6
 416 1024 416 1024 432 1024 c 258,7,-1
 592 1024 l 258,8,9
 608 1024 608 1024 624 1040 c 256,10,11
 640 1056 640 1056 640 1072 c 258,12,-1
 640 1232 l 258,13,14
 640 1248 640 1248 624 1264 c 256,15,16
 608 1280 608 1280 592 1280 c 258,17,-1
 432 1280 l 258,18,19
 416 1280 416 1280 400 1264 c 256,0,1
352 1408 m 258,20,-1
 672 1408 l 258,21,22
 704 1408 704 1408 736 1376 c 256,23,24
 768 1344 768 1344 768 1312 c 258,25,-1
 768 992 l 258,26,27
 768 960 768 960 736 928 c 256,28,29
 704 896 704 896 672 896 c 258,30,-1
 352 896 l 258,31,32
 320 896 320 896 288 928 c 256,33,34
 256 960 256 960 256 992 c 258,35,-1
 256 1312 l 258,36,37
 256 1344 256 1344 288 1376 c 256,38,39
 320 1408 320 1408 352 1408 c 258,20,-1
EndSplineSet
Validated: 19457
Layer: 2
SplineSet
400 1264 m 256,0,1
 384 1248 384 1248 384 1232 c 258,2,-1
 384 1072 l 258,3,4
 384 1056 384 1056 400 1040 c 256,5,6
 416 1024 416 1024 432 1024 c 258,7,-1
 592 1024 l 258,8,9
 608 1024 608 1024 624 1040 c 256,10,11
 640 1056 640 1056 640 1072 c 258,12,-1
 640 1232 l 258,13,14
 640 1248 640 1248 624 1264 c 256,15,16
 608 1280 608 1280 592 1280 c 258,17,-1
 432 1280 l 258,18,19
 416 1280 416 1280 400 1264 c 256,0,1
352 1408 m 258,20,-1
 672 1408 l 258,21,22
 704 1408 704 1408 736 1376 c 256,23,24
 768 1344 768 1344 768 1312 c 258,25,-1
 768 992 l 258,26,27
 768 960 768 960 736 928 c 256,28,29
 704 896 704 896 672 896 c 258,30,-1
 352 896 l 258,31,32
 320 896 320 896 288 928 c 256,33,34
 256 960 256 960 256 992 c 258,35,-1
 256 1312 l 258,36,37
 256 1344 256 1344 288 1376 c 256,38,39
 320 1408 320 1408 352 1408 c 258,20,-1
EndSplineSet
Colour: 6600
EndChar
StartChar: twosuperior
Encoding: 178 178 114
Width: 1024
VWidth: 0
Flags: MW
LayerCount: 4
Back
Fore
SplineSet
256 1216 m 25,0,-1
 256 1408 l 29,1,-1
 320 1472 l 25,2,-1
 704 1472 l 25,3,-1
 768 1408 l 25,4,-1
 768 1216 l 25,5,-1
 448 896 l 25,6,-1
 768 896 l 25,7,-1
 768 767 l 25,8,-1
 256 767 l 25,9,-1
 256 896 l 25,10,-1
 640 1280 l 25,11,-1
 640 1344 l 25,12,-1
 384 1344 l 25,13,-1
 384 1216 l 25,14,-1
 256 1216 l 25,0,-1
EndSplineSet
Layer: 2
SplineSet
256 1195 m 25,0,-1
 256 1365 l 25,1,-1
 341 1451 l 25,2,-1
 683 1451 l 25,3,-1
 768 1365 l 25,4,-1
 768 1166 l 25,5,-1
 370 768 l 29,6,-1
 768 768 l 25,7,-1
 768 683 l 25,8,-1
 256 683 l 25,9,-1
 256 768 l 25,10,-1
 683 1195 l 25,11,-1
 683 1337 l 25,12,-1
 654 1365 l 25,13,-1
 370 1365 l 25,14,-1
 341 1337 l 25,15,-1
 341 1195 l 25,16,-1
 256 1195 l 25,0,-1
EndSplineSet
Layer: 3
SplineSet
256 1195 m 25,0,-1
 256 1365 l 25,1,-1
 341 1451 l 25,2,-1
 683 1451 l 25,3,-1
 768 1365 l 25,4,-1
 768 1166 l 25,5,-1
 370 768 l 29,6,-1
 768 768 l 25,7,-1
 768 683 l 25,8,-1
 256 683 l 25,9,-1
 256 768 l 25,10,-1
 683 1195 l 25,11,-1
 683 1337 l 25,12,-1
 654 1365 l 25,13,-1
 370 1365 l 25,14,-1
 341 1337 l 25,15,-1
 341 1195 l 25,16,-1
 256 1195 l 25,0,-1
EndSplineSet
Colour: 7300
EndChar
StartChar: threesuperior
Encoding: 179 179 115
Width: 1024
VWidth: 0
Flags: W
HStem: 736 224<276.32 384> 736 128<384.141 639.859> 1088 128<448 639.859> 1280 224<276.32 384> 1376 128<384.141 639.859>
VStem: 256 128<864.141 960 1280 1375.86> 640 128<864.141 1071 1233 1375.86>
CounterMasks: 1 68
LayerCount: 3
Back
Fore
SplineSet
384 912 m 258,0,1
 384 896 384 896 400 880 c 256,2,3
 416 864 416 864 432 864 c 258,4,-1
 592 864 l 258,5,6
 608 864 608 864 624 880 c 256,7,8
 640 896 640 896 640 912 c 258,9,-1
 640 1040 l 258,10,11
 640 1056 640 1056 624 1072 c 256,12,13
 608 1088 608 1088 592 1088 c 258,14,-1
 464 1088 l 258,15,16
 448 1088 448 1088 448 1104 c 258,17,-1
 448 1200 l 258,18,19
 448 1216 448 1216 464 1216 c 258,20,-1
 592 1216 l 258,21,22
 608 1216 608 1216 624 1232 c 256,23,24
 640 1248 640 1248 640 1264 c 258,25,-1
 640 1328 l 258,26,27
 640 1344 640 1344 624 1360 c 256,28,29
 608 1376 608 1376 592 1376 c 258,30,-1
 432 1376 l 258,31,32
 416 1376 416 1376 400 1360 c 256,33,34
 384 1344 384 1344 384 1328 c 258,35,-1
 384 1296 l 258,36,37
 384 1280 384 1280 368 1280 c 258,38,-1
 272 1280 l 258,39,40
 256 1280 256 1280 256 1296 c 258,41,-1
 256 1408 l 258,42,43
 256 1440 256 1440 288 1472 c 256,44,45
 320 1504 320 1504 352 1504 c 258,46,-1
 672 1504 l 258,47,48
 704 1504 704 1504 736 1472 c 256,49,50
 768 1440 768 1440 768 1408 c 258,51,-1
 768 1248 l 258,52,53
 768 1216 768 1216 736 1184 c 258,54,-1
 720 1168 l 258,55,56
 704 1152 704 1152 720 1136 c 258,57,-1
 736 1120 l 258,58,59
 768 1088 768 1088 768 1056 c 258,60,-1
 768 832 l 258,61,62
 768 800 768 800 736 768 c 256,63,64
 704 736 704 736 672 736 c 258,65,-1
 352 736 l 258,66,67
 320 736 320 736 288 768 c 256,68,69
 256 800 256 800 256 832 c 258,70,-1
 256 944 l 258,71,72
 256 960 256 960 272 960 c 258,73,-1
 368 960 l 258,74,75
 384 960 384 960 384 944 c 282,76,-1
 384 912 l 258,0,1
EndSplineSet
Validated: 19457
Layer: 2
SplineSet
384 912 m 258,0,1
 384 896 384 896 400 880 c 256,2,3
 416 864 416 864 432 864 c 258,4,-1
 592 864 l 258,5,6
 608 864 608 864 624 880 c 256,7,8
 640 896 640 896 640 912 c 258,9,-1
 640 1040 l 258,10,11
 640 1056 640 1056 624 1072 c 256,12,13
 608 1088 608 1088 592 1088 c 258,14,-1
 464 1088 l 258,15,16
 448 1088 448 1088 448 1104 c 258,17,-1
 448 1200 l 258,18,19
 448 1216 448 1216 464 1216 c 258,20,-1
 592 1216 l 258,21,22
 608 1216 608 1216 624 1232 c 256,23,24
 640 1248 640 1248 640 1264 c 258,25,-1
 640 1328 l 258,26,27
 640 1344 640 1344 624 1360 c 256,28,29
 608 1376 608 1376 592 1376 c 258,30,-1
 432 1376 l 258,31,32
 416 1376 416 1376 400 1360 c 256,33,34
 384 1344 384 1344 384 1328 c 258,35,-1
 384 1296 l 258,36,37
 384 1280 384 1280 368 1280 c 258,38,-1
 272 1280 l 258,39,40
 256 1280 256 1280 256 1296 c 258,41,-1
 256 1408 l 258,42,43
 256 1440 256 1440 288 1472 c 256,44,45
 320 1504 320 1504 352 1504 c 258,46,-1
 672 1504 l 258,47,48
 704 1504 704 1504 736 1472 c 256,49,50
 768 1440 768 1440 768 1408 c 258,51,-1
 768 1248 l 258,52,53
 768 1216 768 1216 736 1184 c 258,54,-1
 720 1168 l 258,55,56
 704 1152 704 1152 720 1136 c 258,57,-1
 736 1120 l 258,58,59
 768 1088 768 1088 768 1056 c 258,60,-1
 768 832 l 258,61,62
 768 800 768 800 736 768 c 256,63,64
 704 736 704 736 672 736 c 258,65,-1
 352 736 l 258,66,67
 320 736 320 736 288 768 c 256,68,69
 256 800 256 800 256 832 c 258,70,-1
 256 944 l 258,71,72
 256 960 256 960 272 960 c 258,73,-1
 368 960 l 258,74,75
 384 960 384 960 384 944 c 282,76,-1
 384 912 l 258,0,1
EndSplineSet
Colour: 6600
EndChar
StartChar: mu
Encoding: 181 181 117
Width: 1024
VWidth: 0
Flags: W
HStem: -320 21G<136 248> 0 128<256 609> 876 20G<136 248 776 888>
VStem: 128 128<-320 0 128 896> 768 128<1.6e-07 95.9961 287 896>
LayerCount: 3
Back
Fore
SplineSet
784 896 m 258,0,1
 880 896 l 258,2,3
 896 896 896 896 896 880 c 258,4,-1
 896 16 l 258,5,6
 896 0 896 0 880 0 c 258,7,-1
 784 0 l 256,8,-1
 768 0 l 257,9,-1
 768 16 l 256,10,-1
 768 80 l 258,11,12
 768 96 768 96 752 96 c 280,13,14
 736 96 736 96 720 80 c 258,15,-1
 704 64 l 256,16,17
 640 0 640 0 576 0 c 258,18,-1
 272 0 l 282,19,20
 256 0 256 0 256 -16 c 258,21,-1
 256 -304 l 258,22,23
 256 -320 256 -320 240 -320 c 258,24,-1
 144 -320 l 258,25,26
 128 -320 128 -320 128 -304 c 258,27,-1
 128 880 l 258,28,29
 128 896 128 896 144 896 c 258,30,-1
 240 896 l 258,31,32
 256 896 256 896 256 880 c 258,33,-1
 256 144 l 258,34,35
 256 128 256 128 272 128 c 258,36,-1
 480 128 l 258,37,38
 576 128 576 128 672 224 c 256,39,40
 768 320 768 320 768 416 c 258,41,-1
 768 880 l 258,42,43
 768 896 768 896 784 896 c 258,0,1
EndSplineSet
Validated: 19457
Layer: 2
SplineSet
784 896 m 258,0,1
 880 896 l 258,2,3
 896 896 896 896 896 880 c 258,4,-1
 896 16 l 258,5,6
 896 0 896 0 880 0 c 258,7,-1
 784 0 l 256,8,-1
 768 0 l 257,9,-1
 768 16 l 256,10,-1
 768 80 l 258,11,12
 768 96 768 96 752 96 c 280,13,14
 736 96 736 96 720 80 c 258,15,-1
 704 64 l 256,16,17
 640 0 640 0 576 0 c 258,18,-1
 272 0 l 282,19,20
 256 0 256 0 256 -16 c 258,21,-1
 256 -304 l 258,22,23
 256 -320 256 -320 240 -320 c 258,24,-1
 144 -320 l 258,25,26
 128 -320 128 -320 128 -304 c 258,27,-1
 128 880 l 258,28,29
 128 896 128 896 144 896 c 258,30,-1
 240 896 l 258,31,32
 256 896 256 896 256 880 c 258,33,-1
 256 144 l 258,34,35
 256 128 256 128 272 128 c 258,36,-1
 480 128 l 258,37,38
 576 128 576 128 672 224 c 256,39,40
 768 320 768 320 768 416 c 258,41,-1
 768 880 l 258,42,43
 768 896 768 896 784 896 c 258,0,1
EndSplineSet
Colour: 6600
EndChar
StartChar: paragraph
Encoding: 182 182 118
Width: 1024
VWidth: 0
Flags: W
HStem: 0 21G<456 568 776 888> 576 128<214 448> 1152 128<214 448 576 768>
VStem: 64 128<726 1130> 448 128<0 576 704 1152> 768 128<0 1152>
CounterMasks: 1 1c
LayerCount: 3
Back
Fore
SplineSet
576 16 m 258,0,1
 576 0 576 0 560 0 c 258,2,-1
 464 0 l 258,3,4
 448 0 448 0 448 16 c 258,5,-1
 448 560 l 258,6,7
 448 576 448 576 432 576 c 258,8,-1
 256 576 l 258,9,10
 192 576 192 576 128 640 c 256,11,12
 64 704 64 704 64 768 c 258,13,-1
 64 1088 l 258,14,15
 64 1152 64 1152 128 1216 c 256,16,17
 192 1280 192 1280 256 1280 c 258,18,-1
 880 1280 l 258,19,20
 896 1280 896 1280 896 1264 c 258,21,-1
 896 16 l 258,22,23
 896 0 896 0 880 0 c 258,24,-1
 784 0 l 258,25,26
 768 0 768 0 768 16 c 258,27,-1
 768 1136 l 258,28,29
 768 1152 768 1152 752 1152 c 258,30,-1
 592 1152 l 258,31,32
 576 1152 576 1152 576 1136 c 258,33,-1
 576 16 l 258,0,1
432 704 m 258,34,35
 448 704 448 704 448 720 c 258,36,-1
 448 1136 l 258,37,38
 448 1152 448 1152 432 1152 c 258,39,-1
 288 1152 l 258,40,41
 256 1152 256 1152 224 1120 c 256,42,43
 192 1088 192 1088 192 1056 c 258,44,-1
 192 800 l 258,45,46
 192 768 192 768 224 736 c 256,47,48
 256 704 256 704 288 704 c 258,49,-1
 432 704 l 258,34,35
EndSplineSet
Validated: 19457
Layer: 2
SplineSet
576 16 m 258,0,1
 576 0 576 0 560 0 c 258,2,-1
 464 0 l 258,3,4
 448 0 448 0 448 16 c 258,5,-1
 448 560 l 258,6,7
 448 576 448 576 432 576 c 258,8,-1
 256 576 l 258,9,10
 192 576 192 576 128 640 c 256,11,12
 64 704 64 704 64 768 c 258,13,-1
 64 1088 l 258,14,15
 64 1152 64 1152 128 1216 c 256,16,17
 192 1280 192 1280 256 1280 c 258,18,-1
 880 1280 l 258,19,20
 896 1280 896 1280 896 1264 c 258,21,-1
 896 16 l 258,22,23
 896 0 896 0 880 0 c 258,24,-1
 784 0 l 258,25,26
 768 0 768 0 768 16 c 258,27,-1
 768 1136 l 258,28,29
 768 1152 768 1152 752 1152 c 258,30,-1
 592 1152 l 258,31,32
 576 1152 576 1152 576 1136 c 258,33,-1
 576 16 l 258,0,1
432 704 m 258,34,35
 448 704 448 704 448 720 c 258,36,-1
 448 1136 l 258,37,38
 448 1152 448 1152 432 1152 c 258,39,-1
 288 1152 l 258,40,41
 256 1152 256 1152 224 1120 c 256,42,43
 192 1088 192 1088 192 1056 c 258,44,-1
 192 800 l 258,45,46
 192 768 192 768 224 736 c 256,47,48
 256 704 256 704 288 704 c 258,49,-1
 432 704 l 258,34,35
EndSplineSet
Colour: 6600
EndChar
StartChar: cedilla
Encoding: 184 184 120
Width: 1024
VWidth: 0
Flags: W
HStem: -20 20G<456 568>
VStem: 448 128<-172 0>
DStem2: 320 -272 416 -368 0.707107 0.707107<-22.6274 214.914>
LayerCount: 3
Back
Fore
SplineSet
464 0 m 258,0,-1
 560 0 l 258,1,2
 576 0 576 0 576 -16 c 258,3,-1
 576 -64 l 258,4,5
 576 -208 576 -208 432 -352 c 2,6,7
 416 -368 l 258,8,9
 400 -384 400 -384 384 -368 c 258,10,-1
 320 -304 l 258,11,12
 304 -288 304 -288 320 -272 c 258,13,14
 336 -256 l 2,15,16
 448 -144 448 -144 448 -32 c 258,17,-1
 448 -16 l 258,18,19
 448 0 448 0 464 0 c 258,0,-1
EndSplineSet
Validated: 19457
Layer: 2
SplineSet
464 0 m 258,0,-1
 560 0 l 258,1,2
 576 0 576 0 576 -16 c 258,3,-1
 576 -64 l 258,4,5
 576 -208 576 -208 432 -352 c 2,6,7
 416 -368 l 258,8,9
 400 -384 400 -384 384 -368 c 258,10,-1
 320 -304 l 258,11,12
 304 -288 304 -288 320 -272 c 258,13,14
 336 -256 l 2,15,16
 448 -144 448 -144 448 -32 c 258,17,-1
 448 -16 l 258,18,19
 448 0 448 0 464 0 c 258,0,-1
EndSplineSet
Colour: 6600
EndChar
